G75*
%MOIN*%
%OFA0B0*%
%FSLAX24Y24*%
%IPPOS*%
%LPD*%
%AMOC8*
5,1,8,0,0,1.08239X$1,22.5*
%
%ADD10C,0.1340*%
%ADD11C,0.0100*%
%ADD12C,0.0110*%
%ADD13C,0.0040*%
%ADD14R,0.0316X0.0560*%
%ADD15C,0.0740*%
%ADD16C,0.1380*%
%ADD17R,0.0631X0.0474*%
%ADD18R,0.0828X0.0631*%
%ADD19R,0.0789X0.0631*%
%ADD20R,0.0671X0.0277*%
%ADD21R,0.0277X0.0671*%
%ADD22C,0.0907*%
%ADD23R,0.0513X0.0356*%
%ADD24R,0.0356X0.0513*%
%ADD25C,0.0820*%
%ADD26R,0.0907X0.2285*%
%ADD27R,0.1655X0.0907*%
%ADD28R,0.0789X0.0474*%
%ADD29R,0.0356X0.0671*%
%ADD30R,0.0434X0.0671*%
%ADD31R,0.0671X0.0434*%
%ADD32R,0.0395X0.0395*%
%ADD33C,0.2380*%
%ADD34R,0.0433X0.0177*%
%ADD35R,0.0454X0.0222*%
%ADD36R,0.0513X0.0395*%
%ADD37R,0.0513X0.0474*%
%ADD38C,0.0674*%
%ADD39R,0.0820X0.0820*%
%ADD40C,0.0436*%
%ADD41C,0.0350*%
%ADD42C,0.0440*%
%ADD43C,0.0300*%
D10*
X054370Y007528D03*
X054370Y020324D03*
D11*
X003864Y019930D02*
X003114Y019930D01*
X003114Y019430D01*
X002614Y019680D01*
X002614Y020180D02*
X003114Y019930D01*
X003114Y020430D01*
X002614Y020680D01*
D12*
X042669Y003831D02*
X043092Y004254D01*
X043515Y003831D01*
X043515Y002985D01*
X043938Y002985D02*
X043938Y004254D01*
X044784Y002985D01*
X044784Y004254D01*
X045207Y004254D02*
X046053Y004254D01*
X045630Y004254D02*
X045630Y002985D01*
X046475Y002985D02*
X046475Y003831D01*
X046898Y004254D01*
X047321Y003831D01*
X047321Y002985D01*
X047744Y002985D02*
X047744Y004254D01*
X048379Y004254D01*
X048590Y004043D01*
X048590Y003620D01*
X048379Y003408D01*
X047744Y003408D01*
X048167Y003408D02*
X048590Y002985D01*
X049013Y003197D02*
X049225Y002985D01*
X049648Y002985D01*
X049859Y003197D01*
X049013Y003197D02*
X049013Y004043D01*
X049225Y004254D01*
X049648Y004254D01*
X049859Y004043D01*
X050282Y004254D02*
X051128Y004254D01*
X051551Y004254D02*
X051974Y004254D01*
X051762Y004254D02*
X051762Y002985D01*
X051551Y002985D02*
X051974Y002985D01*
X052397Y003197D02*
X052608Y002985D01*
X053031Y002985D01*
X053243Y003197D01*
X053665Y002985D02*
X053665Y003831D01*
X054088Y004254D01*
X054511Y003831D01*
X054511Y002985D01*
X054511Y003620D02*
X053665Y003620D01*
X053243Y004043D02*
X053031Y004254D01*
X052608Y004254D01*
X052397Y004043D01*
X052397Y003197D01*
X050705Y002985D02*
X050705Y004254D01*
X047321Y003620D02*
X046475Y003620D01*
X043515Y003620D02*
X042669Y003620D01*
X042669Y003831D02*
X042669Y002985D01*
D13*
X042711Y002410D02*
X042634Y002334D01*
X042634Y002027D01*
X042711Y001950D01*
X042864Y001950D01*
X042941Y002027D01*
X042941Y002180D01*
X042788Y002180D01*
X042941Y002334D02*
X042864Y002410D01*
X042711Y002410D01*
X043094Y002410D02*
X043248Y002257D01*
X043401Y002410D01*
X043401Y001950D01*
X043555Y002027D02*
X043632Y001950D01*
X043785Y001950D01*
X043862Y002027D01*
X043862Y002103D01*
X043785Y002180D01*
X043632Y002180D01*
X043555Y002257D01*
X043555Y002334D01*
X043632Y002410D01*
X043785Y002410D01*
X043862Y002334D01*
X044015Y002410D02*
X044015Y001950D01*
X044015Y002103D02*
X044322Y002410D01*
X044092Y002180D02*
X044322Y001950D01*
X044322Y001660D02*
X044169Y001660D01*
X044245Y001660D02*
X044245Y001277D01*
X044169Y001200D01*
X044092Y001200D01*
X044015Y001277D01*
X044476Y001277D02*
X044552Y001200D01*
X044783Y001200D01*
X044783Y001430D01*
X044706Y001507D01*
X044552Y001507D01*
X044552Y001353D02*
X044783Y001353D01*
X044936Y001200D02*
X044936Y001507D01*
X045166Y001507D01*
X045243Y001430D01*
X045243Y001200D01*
X045857Y001200D02*
X046164Y001507D01*
X046164Y001584D01*
X046087Y001660D01*
X045934Y001660D01*
X045857Y001584D01*
X046317Y001584D02*
X046317Y001277D01*
X046624Y001584D01*
X046624Y001277D01*
X046547Y001200D01*
X046394Y001200D01*
X046317Y001277D01*
X046164Y001200D02*
X045857Y001200D01*
X046317Y001584D02*
X046394Y001660D01*
X046547Y001660D01*
X046624Y001584D01*
X046778Y001507D02*
X046931Y001660D01*
X046931Y001200D01*
X046778Y001200D02*
X047085Y001200D01*
X047238Y001277D02*
X047315Y001200D01*
X047468Y001200D01*
X047545Y001277D01*
X047545Y001353D01*
X047468Y001430D01*
X047238Y001430D01*
X047238Y001277D01*
X047238Y001430D02*
X047391Y001584D01*
X047545Y001660D01*
X047468Y001950D02*
X047545Y002027D01*
X047545Y002334D01*
X047468Y002410D01*
X047315Y002410D01*
X047238Y002334D01*
X047238Y002027D01*
X047315Y001950D01*
X047468Y001950D01*
X047698Y001950D02*
X047698Y002410D01*
X047852Y002257D01*
X048005Y002410D01*
X048005Y001950D01*
X048159Y001950D02*
X048159Y002410D01*
X048312Y002257D01*
X048466Y002410D01*
X048466Y001950D01*
X048619Y002027D02*
X048696Y001950D01*
X048849Y001950D01*
X048926Y002027D01*
X048926Y002103D01*
X048849Y002180D01*
X048696Y002180D01*
X048619Y002257D01*
X048619Y002334D01*
X048696Y002410D01*
X048849Y002410D01*
X048926Y002334D01*
X049540Y002410D02*
X049540Y001950D01*
X049770Y001950D01*
X049847Y002027D01*
X049847Y002103D01*
X049770Y002180D01*
X049540Y002180D01*
X049770Y002180D02*
X049847Y002257D01*
X049847Y002334D01*
X049770Y002410D01*
X049540Y002410D01*
X050000Y002180D02*
X050000Y002027D01*
X050077Y001950D01*
X050231Y001950D01*
X050307Y002027D01*
X050307Y002180D01*
X050231Y002257D01*
X050077Y002257D01*
X050000Y002180D01*
X050461Y002027D02*
X050537Y002103D01*
X050768Y002103D01*
X050768Y002180D02*
X050768Y001950D01*
X050537Y001950D01*
X050461Y002027D01*
X050537Y002257D02*
X050691Y002257D01*
X050768Y002180D01*
X050921Y002103D02*
X051075Y002257D01*
X051151Y002257D01*
X051305Y002180D02*
X051382Y002257D01*
X051612Y002257D01*
X051612Y002410D02*
X051612Y001950D01*
X051382Y001950D01*
X051305Y002027D01*
X051305Y002180D01*
X050921Y002257D02*
X050921Y001950D01*
X051396Y001430D02*
X051627Y001660D01*
X051627Y001200D01*
X051857Y001277D02*
X051934Y001200D01*
X052087Y001200D01*
X052164Y001277D01*
X052164Y001353D01*
X052087Y001430D01*
X051857Y001430D01*
X051857Y001277D01*
X051857Y001430D02*
X052010Y001584D01*
X052164Y001660D01*
X052317Y001584D02*
X052317Y001277D01*
X052624Y001584D01*
X052624Y001277D01*
X052547Y001200D01*
X052394Y001200D01*
X052317Y001277D01*
X052317Y001584D02*
X052394Y001660D01*
X052547Y001660D01*
X052624Y001584D01*
X053238Y001660D02*
X053391Y001507D01*
X053545Y001660D01*
X053545Y001200D01*
X053698Y001200D02*
X053698Y001660D01*
X053698Y001430D02*
X054005Y001430D01*
X054159Y001507D02*
X054466Y001507D01*
X054159Y001200D01*
X054466Y001200D01*
X054005Y001200D02*
X054005Y001660D01*
X053990Y001950D02*
X054297Y001950D01*
X054144Y001950D02*
X054144Y002410D01*
X053990Y002257D01*
X054451Y002027D02*
X054528Y002027D01*
X054528Y001950D01*
X054451Y001950D01*
X054451Y002027D01*
X053377Y002257D02*
X053300Y002257D01*
X053146Y002103D01*
X053146Y001950D02*
X053146Y002257D01*
X052993Y002180D02*
X052916Y002257D01*
X052763Y002257D01*
X052686Y002180D01*
X052686Y002027D01*
X052763Y001950D01*
X052916Y001950D01*
X052993Y002103D02*
X052686Y002103D01*
X052532Y002103D02*
X052532Y002410D01*
X052226Y002410D02*
X052226Y002103D01*
X052379Y001950D01*
X052532Y002103D01*
X052993Y002103D02*
X052993Y002180D01*
X053238Y001660D02*
X053238Y001200D01*
X051703Y001430D02*
X051396Y001430D01*
X050783Y001430D02*
X050476Y001430D01*
X049862Y001353D02*
X049862Y001277D01*
X049785Y001200D01*
X049632Y001200D01*
X049555Y001277D01*
X049401Y001277D02*
X049325Y001200D01*
X049171Y001200D01*
X049094Y001277D01*
X048941Y001430D02*
X048634Y001430D01*
X048864Y001660D01*
X048864Y001200D01*
X049248Y001430D02*
X049325Y001430D01*
X049401Y001353D01*
X049401Y001277D01*
X049325Y001430D02*
X049401Y001507D01*
X049401Y001584D01*
X049325Y001660D01*
X049171Y001660D01*
X049094Y001584D01*
X049555Y001584D02*
X049632Y001660D01*
X049785Y001660D01*
X049862Y001584D01*
X049862Y001507D01*
X049785Y001430D01*
X049862Y001353D01*
X049785Y001430D02*
X049708Y001430D01*
X047085Y002027D02*
X047008Y001950D01*
X046854Y001950D01*
X046778Y002027D01*
X046778Y002334D01*
X046854Y002410D01*
X047008Y002410D01*
X047085Y002334D01*
X046164Y002410D02*
X045857Y001950D01*
X045703Y001950D02*
X045550Y002103D01*
X045627Y002103D02*
X045396Y002103D01*
X045396Y001950D02*
X045396Y002410D01*
X045627Y002410D01*
X045703Y002334D01*
X045703Y002180D01*
X045627Y002103D01*
X045857Y002410D02*
X046164Y001950D01*
X045243Y002410D02*
X044936Y002410D01*
X045089Y002410D02*
X045089Y001950D01*
X044552Y001353D02*
X044476Y001277D01*
X043401Y001277D02*
X043325Y001200D01*
X043171Y001200D01*
X043094Y001277D01*
X042941Y001200D02*
X042634Y001200D01*
X042788Y001200D02*
X042788Y001660D01*
X042634Y001507D01*
X043094Y001584D02*
X043171Y001660D01*
X043325Y001660D01*
X043401Y001584D01*
X043401Y001507D01*
X043325Y001430D01*
X043401Y001353D01*
X043401Y001277D01*
X043325Y001430D02*
X043248Y001430D01*
X043094Y001950D02*
X043094Y002410D01*
D14*
X009488Y009418D03*
X009114Y009418D03*
X008740Y009418D03*
X008740Y010442D03*
X009488Y010442D03*
D15*
X005826Y011749D03*
X005046Y011749D03*
X005046Y012733D03*
X005826Y012733D03*
D16*
X003976Y014611D03*
X003976Y009871D03*
D17*
X011431Y011430D03*
X012297Y011056D03*
X012297Y011804D03*
D18*
X013614Y011942D03*
X018114Y011793D03*
X035239Y006692D03*
D19*
X035239Y005668D03*
X018114Y012817D03*
X013614Y010918D03*
D20*
X020831Y010985D03*
X020831Y011300D03*
X020831Y011615D03*
X020831Y011930D03*
X020831Y012245D03*
X020831Y012560D03*
X020831Y012875D03*
X020831Y013190D03*
X020831Y013505D03*
X025398Y013505D03*
X025398Y013190D03*
X025398Y012875D03*
X025398Y012560D03*
X025398Y012245D03*
X025398Y011930D03*
X025398Y011615D03*
X025398Y011300D03*
X025398Y010985D03*
X025398Y010670D03*
X025398Y010355D03*
X020831Y010355D03*
X020831Y010670D03*
D21*
X021539Y009647D03*
X021854Y009647D03*
X022169Y009647D03*
X022484Y009647D03*
X022799Y009647D03*
X023114Y009647D03*
X023429Y009647D03*
X023744Y009647D03*
X024059Y009647D03*
X024374Y009647D03*
X024689Y009647D03*
X024689Y014213D03*
X024374Y014213D03*
X024059Y014213D03*
X023744Y014213D03*
X023429Y014213D03*
X023114Y014213D03*
X022799Y014213D03*
X022484Y014213D03*
X022169Y014213D03*
X021854Y014213D03*
X021539Y014213D03*
D22*
X022614Y018150D03*
X022614Y020710D03*
X012614Y020710D03*
X008614Y020710D03*
X008614Y018150D03*
X012614Y018150D03*
D23*
X014114Y018635D03*
X014114Y019225D03*
X014114Y019635D03*
X014114Y020225D03*
X017614Y019225D03*
X017614Y018635D03*
X018614Y018635D03*
X018614Y019225D03*
X024114Y019225D03*
X024114Y019635D03*
X024114Y020225D03*
X024114Y018635D03*
X031364Y014725D03*
X031364Y014135D03*
X031364Y011725D03*
X031364Y011135D03*
X023114Y008225D03*
X023114Y007635D03*
X021114Y008135D03*
X020614Y008135D03*
X020614Y008725D03*
X021114Y008725D03*
X018864Y011885D03*
X018864Y012475D03*
X013864Y008725D03*
X013864Y008135D03*
X010114Y009635D03*
X010114Y010225D03*
X007114Y011135D03*
X007114Y011725D03*
X013114Y005725D03*
X013114Y005135D03*
X013114Y004725D03*
X013614Y004725D03*
X013614Y004135D03*
X013114Y004135D03*
X010114Y002725D03*
X010114Y002135D03*
X009114Y004135D03*
X008614Y004135D03*
X008614Y004725D03*
X009114Y004725D03*
X018614Y004725D03*
X018614Y004135D03*
X037614Y006135D03*
X037614Y006725D03*
X010114Y018635D03*
X010114Y019225D03*
X010114Y019635D03*
X010114Y020225D03*
D24*
X009819Y020930D03*
X010409Y020930D03*
X004909Y018430D03*
X004319Y018430D03*
X004319Y017680D03*
X004909Y017680D03*
X011069Y014430D03*
X011659Y014430D03*
X018319Y015430D03*
X018909Y015430D03*
X018909Y015930D03*
X018319Y015930D03*
X021819Y015930D03*
X022409Y015930D03*
X022819Y015930D03*
X023409Y015930D03*
X026819Y015430D03*
X027409Y015430D03*
X027409Y014430D03*
X026819Y014430D03*
X026819Y011680D03*
X027409Y011680D03*
X027409Y010930D03*
X026819Y010930D03*
X026819Y010430D03*
X027409Y010430D03*
X018909Y010430D03*
X018319Y010430D03*
X011409Y005930D03*
X010819Y005930D03*
X017319Y005430D03*
X017909Y005430D03*
X037069Y016805D03*
X037659Y016805D03*
D25*
X039016Y016741D03*
X039016Y015741D03*
X039016Y014741D03*
X039016Y013741D03*
X039016Y012741D03*
X039016Y011741D03*
X039016Y010741D03*
X039016Y009741D03*
X039016Y008741D03*
X039016Y007741D03*
X039016Y006741D03*
X033114Y002430D03*
X032114Y002430D03*
X031114Y002430D03*
X028114Y002430D03*
X027114Y002430D03*
X026114Y002430D03*
X025114Y002430D03*
X024114Y002430D03*
X039016Y017741D03*
X033114Y020430D03*
X032114Y020430D03*
X031114Y020430D03*
X030114Y020430D03*
X029114Y020430D03*
X028114Y020430D03*
X027114Y020430D03*
D26*
X029614Y014623D03*
X029614Y011237D03*
D27*
X030008Y012930D03*
D28*
X026114Y014438D03*
X026114Y015422D03*
D29*
X009488Y011430D03*
X008740Y011430D03*
D30*
X012470Y007930D03*
X013258Y007930D03*
D31*
X011864Y008036D03*
X011864Y008824D03*
X010364Y011036D03*
X010364Y011824D03*
X036614Y006824D03*
X036614Y006036D03*
D32*
X010409Y014430D03*
X009819Y014430D03*
X008114Y011873D03*
X008114Y010987D03*
X017614Y020135D03*
X018614Y020135D03*
X018614Y020725D03*
X017614Y020725D03*
D33*
X003583Y002399D03*
X039016Y002399D03*
X035079Y022084D03*
X003583Y022084D03*
D34*
X010248Y004814D03*
X010248Y004558D03*
X010248Y004302D03*
X010248Y004046D03*
X011980Y004046D03*
X011980Y004302D03*
X011980Y004558D03*
X011980Y004814D03*
D35*
X017279Y004686D03*
X017949Y004686D03*
X017949Y004430D03*
X017949Y004174D03*
X017279Y004174D03*
D36*
X011378Y002686D03*
X011378Y002174D03*
D37*
X012846Y002434D03*
D38*
X006614Y002430D03*
D39*
X026114Y020430D03*
D40*
X025614Y022930D03*
X026614Y022930D03*
X027614Y022930D03*
X028614Y022930D03*
X029614Y022930D03*
X030614Y022930D03*
X031614Y022930D03*
X032614Y022930D03*
X024614Y022930D03*
X023614Y022930D03*
X022614Y022930D03*
X021614Y022930D03*
X020614Y022930D03*
X019614Y022930D03*
X018614Y022930D03*
X017614Y022930D03*
X016614Y022930D03*
X015614Y022930D03*
X014614Y022930D03*
X013614Y022930D03*
X012614Y022930D03*
X011614Y022930D03*
X010614Y022930D03*
X009614Y022930D03*
X008614Y022930D03*
X007614Y022930D03*
X006614Y022930D03*
X005614Y022930D03*
X002614Y018930D03*
X002614Y017930D03*
X002614Y016930D03*
X002614Y015930D03*
X002614Y014930D03*
X002614Y013930D03*
X002614Y012930D03*
X002614Y011930D03*
X002614Y010930D03*
X002614Y009930D03*
X002614Y008930D03*
X002614Y007930D03*
X002614Y006930D03*
X002614Y005930D03*
X002614Y004930D03*
D41*
X009114Y003430D03*
X009614Y003430D03*
X010114Y003430D03*
X009614Y002930D03*
X013114Y003430D03*
X013614Y003430D03*
X018114Y003430D03*
X018614Y005430D03*
X010114Y005930D03*
X008614Y008930D03*
X010864Y009930D03*
X010864Y010430D03*
X012114Y010430D03*
X012614Y010430D03*
X013364Y010180D03*
X013864Y010180D03*
X013614Y009430D03*
X014114Y009430D03*
X012114Y009430D03*
X011614Y009430D03*
X007864Y010430D03*
X007364Y010430D03*
X006864Y010430D03*
X009614Y012305D03*
X009864Y013180D03*
X012239Y014430D03*
X014989Y014555D03*
X015989Y015555D03*
X018114Y016680D03*
X018239Y017305D03*
X018614Y017930D03*
X017614Y017930D03*
X023864Y015930D03*
X027864Y015555D03*
X027864Y014930D03*
X027864Y014430D03*
X031989Y014430D03*
X031989Y013930D03*
X031989Y013180D03*
X031989Y012555D03*
X031989Y011930D03*
X031989Y011430D03*
X028114Y011680D03*
X023114Y010930D03*
X022739Y010930D03*
X019864Y012180D03*
X018114Y013430D03*
X017614Y010430D03*
X005364Y017305D03*
X005364Y017680D03*
X005364Y018055D03*
X005364Y018430D03*
X005364Y018805D03*
X024989Y019055D03*
X035989Y005305D03*
X036489Y005305D03*
X036989Y005305D03*
X037489Y005305D03*
D42*
X020864Y005680D03*
X018864Y007680D03*
X014989Y011680D03*
X015614Y013680D03*
D43*
X016239Y013680D03*
X016614Y014055D03*
X015489Y014430D03*
X015864Y014680D03*
X018864Y013680D03*
X019864Y014055D03*
X019489Y014305D03*
X020239Y013805D03*
X022114Y013305D03*
X022739Y012930D03*
X023364Y012180D03*
X024614Y013180D03*
X022489Y015055D03*
X021114Y014930D03*
X020864Y015305D03*
X020614Y015680D03*
X019614Y015555D03*
X021114Y016430D03*
X020864Y016680D03*
X020614Y016930D03*
X020239Y016805D03*
X023114Y016430D03*
X023364Y016680D03*
X023614Y016930D03*
X024614Y016180D03*
X024989Y016180D03*
X025364Y016180D03*
X025739Y016180D03*
X025864Y017430D03*
X026239Y017430D03*
X026864Y017680D03*
X027239Y017680D03*
X024864Y018055D03*
X023614Y018055D03*
X013614Y017555D03*
X012614Y016930D03*
X011739Y013055D03*
X011614Y012305D03*
X016114Y013055D03*
X019364Y012805D03*
X021614Y011430D03*
X021739Y010555D03*
X022239Y008680D03*
X021239Y007680D03*
X020614Y007680D03*
X022739Y007180D03*
X022989Y006805D03*
X023614Y006430D03*
X022864Y005680D03*
X022614Y005430D03*
X024114Y004430D03*
X025739Y005805D03*
X026864Y005805D03*
X027239Y006305D03*
X025989Y006555D03*
X025614Y007055D03*
X024989Y007305D03*
X026739Y007305D03*
X028364Y007180D03*
X028614Y007555D03*
X028614Y008055D03*
X028239Y008680D03*
X026989Y008680D03*
X025864Y008680D03*
X029114Y005930D03*
X029489Y005930D03*
X027614Y004555D03*
X027114Y004430D03*
X033864Y009555D03*
X036489Y013055D03*
X038114Y014055D03*
X037614Y014430D03*
X037114Y014805D03*
X035864Y015555D03*
X014114Y006805D03*
X012114Y006930D03*
X010989Y006930D03*
X014114Y005805D03*
X012614Y003930D03*
X011114Y003430D03*
M02*
