G75*
%MOIN*%
%OFA0B0*%
%FSLAX24Y24*%
%IPPOS*%
%LPD*%
%AMOC8*
5,1,8,0,0,1.08239X$1,22.5*
%
%ADD10C,0.0000*%
D10*
X002795Y000430D02*
X055551Y000430D01*
X055617Y000432D01*
X055683Y000437D01*
X055749Y000447D01*
X055814Y000460D01*
X055878Y000476D01*
X055941Y000496D01*
X056003Y000520D01*
X056063Y000547D01*
X056122Y000577D01*
X056179Y000611D01*
X056234Y000648D01*
X056287Y000688D01*
X056338Y000730D01*
X056386Y000776D01*
X056432Y000824D01*
X056474Y000875D01*
X056514Y000928D01*
X056551Y000983D01*
X056585Y001040D01*
X056615Y001099D01*
X056642Y001159D01*
X056666Y001221D01*
X056686Y001284D01*
X056702Y001348D01*
X056715Y001413D01*
X056725Y001479D01*
X056730Y001545D01*
X056732Y001611D01*
X056732Y022871D01*
X056730Y022937D01*
X056725Y023003D01*
X056715Y023069D01*
X056702Y023134D01*
X056686Y023198D01*
X056666Y023261D01*
X056642Y023323D01*
X056615Y023383D01*
X056585Y023442D01*
X056551Y023499D01*
X056514Y023554D01*
X056474Y023607D01*
X056432Y023658D01*
X056386Y023706D01*
X056338Y023752D01*
X056287Y023794D01*
X056234Y023834D01*
X056179Y023871D01*
X056122Y023905D01*
X056063Y023935D01*
X056003Y023962D01*
X055941Y023986D01*
X055878Y024006D01*
X055814Y024022D01*
X055749Y024035D01*
X055683Y024045D01*
X055617Y024050D01*
X055551Y024052D01*
X002795Y024052D01*
X002729Y024050D01*
X002663Y024045D01*
X002597Y024035D01*
X002532Y024022D01*
X002468Y024006D01*
X002405Y023986D01*
X002343Y023962D01*
X002283Y023935D01*
X002224Y023905D01*
X002167Y023871D01*
X002112Y023834D01*
X002059Y023794D01*
X002008Y023752D01*
X001960Y023706D01*
X001914Y023658D01*
X001872Y023607D01*
X001832Y023554D01*
X001795Y023499D01*
X001761Y023442D01*
X001731Y023383D01*
X001704Y023323D01*
X001680Y023261D01*
X001660Y023198D01*
X001644Y023134D01*
X001631Y023069D01*
X001621Y023003D01*
X001616Y022937D01*
X001614Y022871D01*
X001614Y001611D01*
X001616Y001545D01*
X001621Y001479D01*
X001631Y001413D01*
X001644Y001348D01*
X001660Y001284D01*
X001680Y001221D01*
X001704Y001159D01*
X001731Y001099D01*
X001761Y001040D01*
X001795Y000983D01*
X001832Y000928D01*
X001872Y000875D01*
X001914Y000824D01*
X001960Y000776D01*
X002008Y000730D01*
X002059Y000688D01*
X002112Y000648D01*
X002167Y000611D01*
X002224Y000577D01*
X002283Y000547D01*
X002343Y000520D01*
X002405Y000496D01*
X002468Y000476D01*
X002532Y000460D01*
X002597Y000447D01*
X002663Y000437D01*
X002729Y000432D01*
X002795Y000430D01*
X053740Y007528D02*
X053742Y007578D01*
X053748Y007628D01*
X053758Y007677D01*
X053772Y007725D01*
X053789Y007772D01*
X053810Y007817D01*
X053835Y007861D01*
X053863Y007902D01*
X053895Y007941D01*
X053929Y007978D01*
X053966Y008012D01*
X054006Y008042D01*
X054048Y008069D01*
X054092Y008093D01*
X054138Y008114D01*
X054185Y008130D01*
X054233Y008143D01*
X054283Y008152D01*
X054332Y008157D01*
X054383Y008158D01*
X054433Y008155D01*
X054482Y008148D01*
X054531Y008137D01*
X054579Y008122D01*
X054625Y008104D01*
X054670Y008082D01*
X054713Y008056D01*
X054754Y008027D01*
X054793Y007995D01*
X054829Y007960D01*
X054861Y007922D01*
X054891Y007882D01*
X054918Y007839D01*
X054941Y007795D01*
X054960Y007749D01*
X054976Y007701D01*
X054988Y007652D01*
X054996Y007603D01*
X055000Y007553D01*
X055000Y007503D01*
X054996Y007453D01*
X054988Y007404D01*
X054976Y007355D01*
X054960Y007307D01*
X054941Y007261D01*
X054918Y007217D01*
X054891Y007174D01*
X054861Y007134D01*
X054829Y007096D01*
X054793Y007061D01*
X054754Y007029D01*
X054713Y007000D01*
X054670Y006974D01*
X054625Y006952D01*
X054579Y006934D01*
X054531Y006919D01*
X054482Y006908D01*
X054433Y006901D01*
X054383Y006898D01*
X054332Y006899D01*
X054283Y006904D01*
X054233Y006913D01*
X054185Y006926D01*
X054138Y006942D01*
X054092Y006963D01*
X054048Y006987D01*
X054006Y007014D01*
X053966Y007044D01*
X053929Y007078D01*
X053895Y007115D01*
X053863Y007154D01*
X053835Y007195D01*
X053810Y007239D01*
X053789Y007284D01*
X053772Y007331D01*
X053758Y007379D01*
X053748Y007428D01*
X053742Y007478D01*
X053740Y007528D01*
X053740Y020324D02*
X053742Y020374D01*
X053748Y020424D01*
X053758Y020473D01*
X053772Y020521D01*
X053789Y020568D01*
X053810Y020613D01*
X053835Y020657D01*
X053863Y020698D01*
X053895Y020737D01*
X053929Y020774D01*
X053966Y020808D01*
X054006Y020838D01*
X054048Y020865D01*
X054092Y020889D01*
X054138Y020910D01*
X054185Y020926D01*
X054233Y020939D01*
X054283Y020948D01*
X054332Y020953D01*
X054383Y020954D01*
X054433Y020951D01*
X054482Y020944D01*
X054531Y020933D01*
X054579Y020918D01*
X054625Y020900D01*
X054670Y020878D01*
X054713Y020852D01*
X054754Y020823D01*
X054793Y020791D01*
X054829Y020756D01*
X054861Y020718D01*
X054891Y020678D01*
X054918Y020635D01*
X054941Y020591D01*
X054960Y020545D01*
X054976Y020497D01*
X054988Y020448D01*
X054996Y020399D01*
X055000Y020349D01*
X055000Y020299D01*
X054996Y020249D01*
X054988Y020200D01*
X054976Y020151D01*
X054960Y020103D01*
X054941Y020057D01*
X054918Y020013D01*
X054891Y019970D01*
X054861Y019930D01*
X054829Y019892D01*
X054793Y019857D01*
X054754Y019825D01*
X054713Y019796D01*
X054670Y019770D01*
X054625Y019748D01*
X054579Y019730D01*
X054531Y019715D01*
X054482Y019704D01*
X054433Y019697D01*
X054383Y019694D01*
X054332Y019695D01*
X054283Y019700D01*
X054233Y019709D01*
X054185Y019722D01*
X054138Y019738D01*
X054092Y019759D01*
X054048Y019783D01*
X054006Y019810D01*
X053966Y019840D01*
X053929Y019874D01*
X053895Y019911D01*
X053863Y019950D01*
X053835Y019991D01*
X053810Y020035D01*
X053789Y020080D01*
X053772Y020127D01*
X053758Y020175D01*
X053748Y020224D01*
X053742Y020274D01*
X053740Y020324D01*
M02*
