G75*
%MOIN*%
%OFA0B0*%
%FSLAX24Y24*%
%IPPOS*%
%LPD*%
%AMOC8*
5,1,8,0,0,1.08239X$1,22.5*
%
%ADD10C,0.0040*%
%ADD11C,0.0100*%
%ADD12C,0.0060*%
%ADD13C,0.0050*%
%ADD14C,0.0080*%
%ADD15C,0.0256*%
D10*
X006134Y001152D02*
X006211Y001075D01*
X006364Y001075D01*
X006441Y001152D01*
X006441Y001305D01*
X006288Y001305D01*
X006441Y001459D02*
X006364Y001535D01*
X006211Y001535D01*
X006134Y001459D01*
X006134Y001152D01*
X006594Y001075D02*
X006594Y001535D01*
X006901Y001075D01*
X006901Y001535D01*
X007055Y001535D02*
X007285Y001535D01*
X007362Y001459D01*
X007362Y001152D01*
X007285Y001075D01*
X007055Y001075D01*
X007055Y001535D01*
X009284Y002100D02*
X009284Y002330D01*
X009360Y002407D01*
X009514Y002407D01*
X009591Y002330D01*
X009591Y002100D01*
X009744Y002100D02*
X009284Y002100D01*
X009591Y002253D02*
X009744Y002407D01*
X009744Y002560D02*
X009744Y002867D01*
X009744Y002714D02*
X009284Y002714D01*
X009437Y002560D01*
X009437Y003021D02*
X009514Y003098D01*
X009514Y003328D01*
X009667Y003328D02*
X009360Y003328D01*
X009284Y003251D01*
X009284Y003098D01*
X009360Y003021D01*
X009437Y003021D01*
X009667Y003021D02*
X009744Y003098D01*
X009744Y003251D01*
X009667Y003328D01*
X010735Y004169D02*
X010812Y004093D01*
X010966Y004093D01*
X011042Y004169D01*
X011042Y004553D01*
X011196Y004553D02*
X011196Y004323D01*
X011349Y004400D01*
X011426Y004400D01*
X011503Y004323D01*
X011503Y004169D01*
X011426Y004093D01*
X011273Y004093D01*
X011196Y004169D01*
X011196Y004553D02*
X011503Y004553D01*
X012284Y004416D02*
X012284Y004262D01*
X012360Y004185D01*
X012360Y004032D02*
X012514Y004032D01*
X012591Y003955D01*
X012591Y003725D01*
X012744Y003725D02*
X012284Y003725D01*
X012284Y003955D01*
X012360Y004032D01*
X012591Y003878D02*
X012744Y004032D01*
X012744Y004185D02*
X012437Y004492D01*
X012360Y004492D01*
X012284Y004416D01*
X012360Y004646D02*
X012284Y004723D01*
X012284Y004876D01*
X012360Y004953D01*
X012667Y004646D01*
X012744Y004723D01*
X012744Y004876D01*
X012667Y004953D01*
X012360Y004953D01*
X012284Y005100D02*
X012284Y005330D01*
X012360Y005407D01*
X012514Y005407D01*
X012591Y005330D01*
X012591Y005100D01*
X012744Y005100D02*
X012284Y005100D01*
X012591Y005253D02*
X012744Y005407D01*
X012744Y005560D02*
X012437Y005867D01*
X012360Y005867D01*
X012284Y005791D01*
X012284Y005637D01*
X012360Y005560D01*
X012744Y005560D02*
X012744Y005867D01*
X012744Y006021D02*
X012437Y006328D01*
X012360Y006328D01*
X012284Y006251D01*
X012284Y006098D01*
X012360Y006021D01*
X012744Y006021D02*
X012744Y006328D01*
X011762Y006684D02*
X011455Y006377D01*
X011455Y006300D01*
X011301Y006300D02*
X010994Y006300D01*
X011301Y006607D01*
X011301Y006684D01*
X011225Y006760D01*
X011071Y006760D01*
X010994Y006684D01*
X010841Y006684D02*
X010764Y006760D01*
X010611Y006760D01*
X010534Y006684D01*
X010534Y006377D01*
X010611Y006300D01*
X010764Y006300D01*
X010841Y006377D01*
X011455Y006760D02*
X011762Y006760D01*
X011762Y006684D01*
X012313Y007050D02*
X012620Y007050D01*
X012774Y007050D02*
X013081Y007050D01*
X012927Y007050D02*
X012927Y007510D01*
X012774Y007357D01*
X012313Y007510D02*
X012313Y007050D01*
X011319Y007927D02*
X011319Y008080D01*
X011242Y008157D01*
X011319Y008310D02*
X011319Y008617D01*
X011319Y008464D02*
X010859Y008464D01*
X011012Y008310D01*
X010935Y008157D02*
X010859Y008080D01*
X010859Y007927D01*
X010935Y007850D01*
X011242Y007850D01*
X011319Y007927D01*
X009776Y008450D02*
X009469Y008450D01*
X009623Y008450D02*
X009623Y008910D01*
X009469Y008757D01*
X009316Y008910D02*
X009316Y008527D01*
X009239Y008450D01*
X009086Y008450D01*
X009009Y008527D01*
X009009Y008910D01*
X009784Y008877D02*
X009861Y008800D01*
X010014Y008800D01*
X010091Y008877D01*
X010244Y008877D02*
X010321Y008800D01*
X010475Y008800D01*
X010551Y008877D01*
X010551Y009030D01*
X010475Y009107D01*
X010398Y009107D01*
X010244Y009030D01*
X010244Y009260D01*
X010551Y009260D01*
X010859Y009078D02*
X010859Y008771D01*
X011089Y008771D01*
X011012Y008924D01*
X011012Y009001D01*
X011089Y009078D01*
X011242Y009078D01*
X011319Y009001D01*
X011319Y008848D01*
X011242Y008771D01*
X010091Y009184D02*
X010014Y009260D01*
X009861Y009260D01*
X009784Y009184D01*
X009784Y008877D01*
X005956Y010136D02*
X005496Y010443D01*
X005649Y010596D02*
X005496Y010750D01*
X005956Y010750D01*
X005956Y010903D02*
X005956Y010596D01*
X005956Y010443D02*
X005496Y010136D01*
X008659Y011850D02*
X008659Y012310D01*
X008889Y012310D01*
X008966Y012234D01*
X008966Y012080D01*
X008889Y012003D01*
X008659Y012003D01*
X008813Y012003D02*
X008966Y011850D01*
X009119Y011927D02*
X009196Y011850D01*
X009350Y011850D01*
X009426Y011927D01*
X009426Y012003D01*
X009350Y012080D01*
X009273Y012080D01*
X009350Y012080D02*
X009426Y012157D01*
X009426Y012234D01*
X009350Y012310D01*
X009196Y012310D01*
X009119Y012234D01*
X009909Y012177D02*
X009986Y012100D01*
X010139Y012100D01*
X010216Y012177D01*
X010369Y012177D02*
X010369Y012330D01*
X010600Y012330D01*
X010676Y012253D01*
X010676Y012177D01*
X010600Y012100D01*
X010446Y012100D01*
X010369Y012177D01*
X010369Y012330D02*
X010523Y012484D01*
X010676Y012560D01*
X010216Y012484D02*
X010139Y012560D01*
X009986Y012560D01*
X009909Y012484D01*
X009909Y012177D01*
X008344Y012228D02*
X007884Y012228D01*
X007884Y012075D02*
X007884Y012382D01*
X007884Y012535D02*
X008191Y012535D01*
X008344Y012689D01*
X008191Y012842D01*
X007884Y012842D01*
X007960Y012996D02*
X007884Y013073D01*
X007884Y013226D01*
X007960Y013303D01*
X008037Y013456D02*
X007884Y013610D01*
X008344Y013610D01*
X008344Y013763D02*
X008344Y013456D01*
X008267Y013303D02*
X008344Y013226D01*
X008344Y013073D01*
X008267Y012996D01*
X008114Y013073D02*
X008114Y013226D01*
X008191Y013303D01*
X008267Y013303D01*
X008114Y013073D02*
X008037Y012996D01*
X007960Y012996D01*
X007426Y012434D02*
X007350Y012510D01*
X007196Y012510D01*
X007119Y012434D01*
X006966Y012434D02*
X006889Y012510D01*
X006736Y012510D01*
X006659Y012434D01*
X006659Y012127D01*
X006736Y012050D01*
X006889Y012050D01*
X006966Y012127D01*
X007119Y012127D02*
X007196Y012050D01*
X007350Y012050D01*
X007426Y012127D01*
X007426Y012203D01*
X007350Y012280D01*
X007273Y012280D01*
X007350Y012280D02*
X007426Y012357D01*
X007426Y012434D01*
X010784Y013675D02*
X010784Y014135D01*
X011014Y014135D01*
X011091Y014059D01*
X011091Y013905D01*
X011014Y013828D01*
X010784Y013828D01*
X010938Y013828D02*
X011091Y013675D01*
X011244Y013675D02*
X011551Y013675D01*
X011398Y013675D02*
X011398Y014135D01*
X011244Y013982D01*
X011705Y013982D02*
X011858Y014135D01*
X011858Y013675D01*
X011705Y013675D02*
X012012Y013675D01*
X011963Y012535D02*
X011963Y012152D01*
X012040Y012075D01*
X012193Y012075D01*
X012270Y012152D01*
X012270Y012535D01*
X012424Y012459D02*
X012500Y012535D01*
X012654Y012535D01*
X012731Y012459D01*
X012731Y012382D01*
X012424Y012075D01*
X012731Y012075D01*
X013460Y012393D02*
X013767Y012393D01*
X013614Y012240D02*
X013614Y012547D01*
X014234Y011492D02*
X014310Y011492D01*
X014617Y011185D01*
X014694Y011185D01*
X014617Y011032D02*
X014694Y010955D01*
X014694Y010802D01*
X014617Y010725D01*
X014310Y010725D01*
X014234Y010802D01*
X014234Y010955D01*
X014310Y011032D01*
X014234Y011185D02*
X014234Y011492D01*
X017109Y011927D02*
X017185Y011850D01*
X017492Y011850D01*
X017569Y011927D01*
X017569Y012080D01*
X017492Y012157D01*
X017569Y012310D02*
X017569Y012617D01*
X017569Y012464D02*
X017109Y012464D01*
X017262Y012310D01*
X017185Y012157D02*
X017109Y012080D01*
X017109Y011927D01*
X017960Y011228D02*
X018267Y011228D01*
X018114Y011075D02*
X018114Y011382D01*
X019159Y011927D02*
X019235Y011850D01*
X019542Y011850D01*
X019619Y011927D01*
X019619Y012080D01*
X019542Y012157D01*
X019619Y012310D02*
X019312Y012617D01*
X019235Y012617D01*
X019159Y012541D01*
X019159Y012387D01*
X019235Y012310D01*
X019235Y012157D02*
X019159Y012080D01*
X019159Y011927D01*
X019619Y012310D02*
X019619Y012617D01*
X023659Y012610D02*
X023659Y012227D01*
X023736Y012150D01*
X023889Y012150D01*
X023966Y012227D01*
X023966Y012610D01*
X024119Y012534D02*
X024196Y012610D01*
X024350Y012610D01*
X024426Y012534D01*
X024426Y012457D01*
X024350Y012380D01*
X024426Y012303D01*
X024426Y012227D01*
X024350Y012150D01*
X024196Y012150D01*
X024119Y012227D01*
X024273Y012380D02*
X024350Y012380D01*
X026784Y012434D02*
X026784Y012127D01*
X026861Y012050D01*
X027014Y012050D01*
X027091Y012127D01*
X027244Y012050D02*
X027551Y012050D01*
X027398Y012050D02*
X027398Y012510D01*
X027244Y012357D01*
X027091Y012434D02*
X027014Y012510D01*
X026861Y012510D01*
X026784Y012434D01*
X027705Y012357D02*
X027858Y012510D01*
X027858Y012050D01*
X027705Y012050D02*
X028012Y012050D01*
X028119Y011260D02*
X028119Y011030D01*
X028273Y011107D01*
X028350Y011107D01*
X028426Y011030D01*
X028426Y010877D01*
X028350Y010800D01*
X028196Y010800D01*
X028119Y010877D01*
X027966Y010800D02*
X027813Y010953D01*
X027889Y010953D02*
X027659Y010953D01*
X027659Y010800D02*
X027659Y011260D01*
X027889Y011260D01*
X027966Y011184D01*
X027966Y011030D01*
X027889Y010953D01*
X028119Y011260D02*
X028426Y011260D01*
X031034Y010559D02*
X031034Y010252D01*
X031111Y010175D01*
X031264Y010175D01*
X031341Y010252D01*
X031494Y010175D02*
X031801Y010175D01*
X031648Y010175D02*
X031648Y010635D01*
X031494Y010482D01*
X031341Y010559D02*
X031264Y010635D01*
X031111Y010635D01*
X031034Y010559D01*
X031955Y010405D02*
X032262Y010405D01*
X032185Y010175D02*
X032185Y010635D01*
X031955Y010405D01*
X027551Y010010D02*
X027398Y009934D01*
X027244Y009780D01*
X027475Y009780D01*
X027551Y009703D01*
X027551Y009627D01*
X027475Y009550D01*
X027321Y009550D01*
X027244Y009627D01*
X027244Y009780D01*
X027091Y009780D02*
X027014Y009703D01*
X026784Y009703D01*
X026784Y009550D02*
X026784Y010010D01*
X027014Y010010D01*
X027091Y009934D01*
X027091Y009780D01*
X026938Y009703D02*
X027091Y009550D01*
X023994Y008626D02*
X023994Y008473D01*
X023917Y008396D01*
X023764Y008396D01*
X023764Y008626D01*
X023841Y008703D01*
X023917Y008703D01*
X023994Y008626D01*
X023764Y008396D02*
X023610Y008549D01*
X023534Y008703D01*
X023534Y008089D02*
X023994Y008089D01*
X023994Y008242D02*
X023994Y007935D01*
X023917Y007782D02*
X023994Y007705D01*
X023994Y007552D01*
X023917Y007475D01*
X023610Y007475D01*
X023534Y007552D01*
X023534Y007705D01*
X023610Y007782D01*
X023687Y007935D02*
X023534Y008089D01*
X021244Y009100D02*
X020784Y009100D01*
X020784Y009330D01*
X020860Y009407D01*
X021014Y009407D01*
X021091Y009330D01*
X021091Y009100D01*
X021091Y009253D02*
X021244Y009407D01*
X021244Y009560D02*
X020937Y009867D01*
X020860Y009867D01*
X020784Y009791D01*
X020784Y009637D01*
X020860Y009560D01*
X020619Y009560D02*
X020619Y009867D01*
X020619Y009714D02*
X020159Y009714D01*
X020312Y009560D01*
X020235Y009407D02*
X020389Y009407D01*
X020466Y009330D01*
X020466Y009100D01*
X020619Y009100D02*
X020159Y009100D01*
X020159Y009330D01*
X020235Y009407D01*
X020466Y009253D02*
X020619Y009407D01*
X021244Y009560D02*
X021244Y009867D01*
X018926Y009905D02*
X018619Y009905D01*
X018850Y010135D01*
X018850Y009675D01*
X018466Y009752D02*
X018389Y009675D01*
X018236Y009675D01*
X018159Y009752D01*
X018159Y010059D01*
X018236Y010135D01*
X018389Y010135D01*
X018466Y010059D01*
X014744Y009203D02*
X014744Y008896D01*
X014437Y009203D01*
X014360Y009203D01*
X014284Y009126D01*
X014284Y008973D01*
X014360Y008896D01*
X014284Y008589D02*
X014744Y008589D01*
X014744Y008742D02*
X014744Y008435D01*
X014667Y008282D02*
X014744Y008205D01*
X014744Y008052D01*
X014667Y007975D01*
X014360Y007975D01*
X014284Y008052D01*
X014284Y008205D01*
X014360Y008282D01*
X014437Y008435D02*
X014284Y008589D01*
X017284Y006184D02*
X017284Y005877D01*
X017361Y005800D01*
X017514Y005800D01*
X017591Y005877D01*
X017744Y005800D02*
X018051Y006107D01*
X018051Y006184D01*
X017975Y006260D01*
X017821Y006260D01*
X017744Y006184D01*
X017591Y006184D02*
X017514Y006260D01*
X017361Y006260D01*
X017284Y006184D01*
X017744Y005800D02*
X018051Y005800D01*
X018205Y005877D02*
X018282Y005800D01*
X018435Y005800D01*
X018512Y005877D01*
X018512Y005953D01*
X018435Y006030D01*
X018358Y006030D01*
X018435Y006030D02*
X018512Y006107D01*
X018512Y006184D01*
X018435Y006260D01*
X018282Y006260D01*
X018205Y006184D01*
X019110Y005203D02*
X019034Y005126D01*
X019034Y004973D01*
X019110Y004896D01*
X019110Y004742D02*
X019034Y004666D01*
X019034Y004512D01*
X019110Y004435D01*
X019110Y004282D02*
X019034Y004205D01*
X019034Y004052D01*
X019110Y003975D01*
X019417Y003975D01*
X019494Y004052D01*
X019494Y004205D01*
X019417Y004282D01*
X019494Y004435D02*
X019187Y004742D01*
X019110Y004742D01*
X019494Y004742D02*
X019494Y004435D01*
X019494Y004896D02*
X019187Y005203D01*
X019110Y005203D01*
X019494Y005203D02*
X019494Y004896D01*
X017920Y003797D02*
X017690Y003567D01*
X017997Y003567D01*
X017920Y003337D02*
X017920Y003797D01*
X017536Y003797D02*
X017536Y003414D01*
X017460Y003337D01*
X017306Y003337D01*
X017230Y003414D01*
X017230Y003797D01*
X014744Y003725D02*
X014284Y003725D01*
X014284Y003955D01*
X014360Y004032D01*
X014514Y004032D01*
X014591Y003955D01*
X014591Y003725D01*
X014591Y003878D02*
X014744Y004032D01*
X014744Y004185D02*
X014437Y004492D01*
X014360Y004492D01*
X014284Y004416D01*
X014284Y004262D01*
X014360Y004185D01*
X014744Y004185D02*
X014744Y004492D01*
X014744Y004646D02*
X014744Y004953D01*
X014744Y004799D02*
X014284Y004799D01*
X014437Y004646D01*
X012744Y004492D02*
X012744Y004185D01*
X012667Y004646D02*
X012360Y004646D01*
X010735Y004553D02*
X010735Y004169D01*
X009369Y005177D02*
X009292Y005100D01*
X008985Y005100D01*
X008909Y005177D01*
X008909Y005330D01*
X008985Y005407D01*
X008985Y005560D02*
X008909Y005637D01*
X008909Y005791D01*
X008985Y005867D01*
X009062Y005867D01*
X009369Y005560D01*
X009369Y005867D01*
X009292Y006021D02*
X009369Y006098D01*
X009369Y006251D01*
X009292Y006328D01*
X009216Y006328D01*
X009139Y006251D01*
X009139Y006021D01*
X009292Y006021D01*
X009139Y006021D02*
X008985Y006174D01*
X008909Y006328D01*
X009292Y005407D02*
X009369Y005330D01*
X009369Y005177D01*
X008119Y005126D02*
X008119Y004973D01*
X008042Y004896D01*
X007966Y004896D01*
X007889Y004973D01*
X007889Y005126D01*
X007966Y005203D01*
X008042Y005203D01*
X008119Y005126D01*
X007889Y005126D02*
X007812Y005203D01*
X007735Y005203D01*
X007659Y005126D01*
X007659Y004973D01*
X007735Y004896D01*
X007812Y004896D01*
X007889Y004973D01*
X008119Y004742D02*
X008119Y004435D01*
X008119Y004282D02*
X007966Y004128D01*
X007966Y004205D02*
X007966Y003975D01*
X008119Y003975D02*
X007659Y003975D01*
X007659Y004205D01*
X007735Y004282D01*
X007889Y004282D01*
X007966Y004205D01*
X007812Y004435D02*
X007659Y004589D01*
X008119Y004589D01*
X007308Y003410D02*
X007308Y002950D01*
X007155Y002950D02*
X007462Y002950D01*
X007155Y003257D02*
X007308Y003410D01*
X007001Y003334D02*
X007001Y003180D01*
X006925Y003103D01*
X006694Y003103D01*
X006694Y002950D02*
X006694Y003410D01*
X006925Y003410D01*
X007001Y003334D01*
X006541Y003410D02*
X006234Y003410D01*
X006388Y003410D02*
X006388Y002950D01*
X011734Y001810D02*
X011734Y001350D01*
X012041Y001350D01*
X012194Y001350D02*
X012425Y001350D01*
X012501Y001427D01*
X012501Y001734D01*
X012425Y001810D01*
X012194Y001810D01*
X012194Y001350D01*
X012655Y001350D02*
X012962Y001350D01*
X012808Y001350D02*
X012808Y001810D01*
X012655Y001657D01*
X023634Y001535D02*
X023634Y001075D01*
X023634Y001228D02*
X023864Y001228D01*
X023941Y001305D01*
X023941Y001459D01*
X023864Y001535D01*
X023634Y001535D01*
X023788Y001228D02*
X023941Y001075D01*
X024094Y001152D02*
X024171Y001075D01*
X024325Y001075D01*
X024401Y001152D01*
X024401Y001228D01*
X024325Y001305D01*
X024171Y001305D01*
X024094Y001382D01*
X024094Y001459D01*
X024171Y001535D01*
X024325Y001535D01*
X024401Y001459D01*
X024555Y001535D02*
X024862Y001535D01*
X024708Y001535D02*
X024708Y001075D01*
X024755Y003170D02*
X024755Y003630D01*
X024525Y003400D01*
X024832Y003400D01*
X024371Y003400D02*
X024371Y003554D01*
X024295Y003630D01*
X024064Y003630D01*
X024064Y003170D01*
X024064Y003323D02*
X024295Y003323D01*
X024371Y003400D01*
X023911Y003630D02*
X023758Y003630D01*
X023834Y003630D02*
X023834Y003247D01*
X023758Y003170D01*
X023681Y003170D01*
X023604Y003247D01*
X030134Y001459D02*
X030134Y001152D01*
X030211Y001075D01*
X030364Y001075D01*
X030441Y001152D01*
X030441Y001305D01*
X030288Y001305D01*
X030441Y001459D02*
X030364Y001535D01*
X030211Y001535D01*
X030134Y001459D01*
X030594Y001535D02*
X030594Y001075D01*
X030901Y001075D02*
X030901Y001535D01*
X031055Y001535D02*
X031285Y001535D01*
X031362Y001459D01*
X031362Y001152D01*
X031285Y001075D01*
X031055Y001075D01*
X031055Y001535D01*
X030594Y001535D02*
X030901Y001075D01*
X031759Y001535D02*
X032066Y001535D01*
X032219Y001535D02*
X032526Y001075D01*
X032219Y001075D02*
X032526Y001535D01*
X033009Y001535D02*
X033239Y001535D01*
X033316Y001459D01*
X033316Y001305D01*
X033239Y001228D01*
X033009Y001228D01*
X033009Y001075D02*
X033009Y001535D01*
X033163Y001228D02*
X033316Y001075D01*
X033469Y001075D02*
X033776Y001535D01*
X033469Y001535D02*
X033776Y001075D01*
X031913Y001075D02*
X031913Y001535D01*
X031957Y003170D02*
X031650Y003170D01*
X031803Y003170D02*
X031803Y003630D01*
X031650Y003477D01*
X031496Y003554D02*
X031496Y003400D01*
X031420Y003323D01*
X031189Y003323D01*
X031189Y003170D02*
X031189Y003630D01*
X031420Y003630D01*
X031496Y003554D01*
X031036Y003630D02*
X030883Y003630D01*
X030959Y003630D02*
X030959Y003247D01*
X030883Y003170D01*
X030806Y003170D01*
X030729Y003247D01*
X034409Y004302D02*
X034486Y004225D01*
X034639Y004225D01*
X034716Y004302D01*
X034869Y004225D02*
X035176Y004225D01*
X035023Y004225D02*
X035023Y004685D01*
X034869Y004532D01*
X034716Y004609D02*
X034639Y004685D01*
X034486Y004685D01*
X034409Y004609D01*
X034409Y004302D01*
X035330Y004302D02*
X035407Y004225D01*
X035560Y004225D01*
X035637Y004302D01*
X035637Y004609D01*
X035560Y004685D01*
X035407Y004685D01*
X035330Y004609D01*
X035330Y004532D01*
X035407Y004455D01*
X035637Y004455D01*
X036034Y004302D02*
X036111Y004225D01*
X036264Y004225D01*
X036341Y004302D01*
X036494Y004225D02*
X036801Y004225D01*
X036648Y004225D02*
X036648Y004685D01*
X036494Y004532D01*
X036341Y004609D02*
X036264Y004685D01*
X036111Y004685D01*
X036034Y004609D01*
X036034Y004302D01*
X036955Y004302D02*
X036955Y004378D01*
X037032Y004455D01*
X037185Y004455D01*
X037262Y004378D01*
X037262Y004302D01*
X037185Y004225D01*
X037032Y004225D01*
X036955Y004302D01*
X037032Y004455D02*
X036955Y004532D01*
X036955Y004609D01*
X037032Y004685D01*
X037185Y004685D01*
X037262Y004609D01*
X037262Y004532D01*
X037185Y004455D01*
X037659Y004377D02*
X037736Y004300D01*
X037889Y004300D01*
X037966Y004377D01*
X038119Y004300D02*
X038426Y004300D01*
X038273Y004300D02*
X038273Y004760D01*
X038119Y004607D01*
X037966Y004684D02*
X037889Y004760D01*
X037736Y004760D01*
X037659Y004684D01*
X037659Y004377D01*
X038580Y004377D02*
X038580Y004300D01*
X038580Y004377D02*
X038887Y004684D01*
X038887Y004760D01*
X038580Y004760D01*
X038617Y005518D02*
X038694Y005518D01*
X038770Y005595D01*
X038770Y005979D01*
X038694Y005979D02*
X038847Y005979D01*
X039000Y005979D02*
X039231Y005979D01*
X039307Y005902D01*
X039307Y005749D01*
X039231Y005672D01*
X039000Y005672D01*
X039000Y005518D02*
X039000Y005979D01*
X039461Y005902D02*
X039538Y005979D01*
X039691Y005979D01*
X039768Y005902D01*
X039768Y005825D01*
X039691Y005749D01*
X039768Y005672D01*
X039768Y005595D01*
X039691Y005518D01*
X039538Y005518D01*
X039461Y005595D01*
X039614Y005749D02*
X039691Y005749D01*
X038617Y005518D02*
X038540Y005595D01*
X040134Y006603D02*
X040288Y006450D01*
X040441Y006603D01*
X040441Y006910D01*
X040594Y006910D02*
X040825Y006910D01*
X040901Y006834D01*
X040901Y006527D01*
X040825Y006450D01*
X040594Y006450D01*
X040594Y006910D01*
X040134Y006910D02*
X040134Y006603D01*
X041055Y006450D02*
X041285Y006450D01*
X041362Y006527D01*
X041362Y006834D01*
X041285Y006910D01*
X041055Y006910D01*
X041055Y006450D01*
X041055Y007450D02*
X041285Y007450D01*
X041362Y007527D01*
X041362Y007834D01*
X041285Y007910D01*
X041055Y007910D01*
X041055Y007450D01*
X040901Y007450D02*
X040901Y007910D01*
X040594Y007910D02*
X040901Y007450D01*
X040594Y007450D02*
X040594Y007910D01*
X040441Y007834D02*
X040364Y007910D01*
X040211Y007910D01*
X040134Y007834D01*
X040134Y007527D01*
X040211Y007450D01*
X040364Y007450D01*
X040441Y007527D01*
X040441Y007680D01*
X040288Y007680D01*
X040364Y008450D02*
X040211Y008450D01*
X040134Y008527D01*
X040211Y008680D02*
X040364Y008680D01*
X040441Y008603D01*
X040441Y008527D01*
X040364Y008450D01*
X040594Y008450D02*
X040825Y008450D01*
X040901Y008527D01*
X040901Y008834D01*
X040825Y008910D01*
X040594Y008910D01*
X040594Y008450D01*
X040211Y008680D02*
X040134Y008757D01*
X040134Y008834D01*
X040211Y008910D01*
X040364Y008910D01*
X040441Y008834D01*
X041055Y008910D02*
X041362Y008450D01*
X041362Y008910D01*
X041055Y008910D02*
X041055Y008450D01*
X041132Y009450D02*
X041055Y009527D01*
X041132Y009450D02*
X041285Y009450D01*
X041362Y009527D01*
X041362Y009603D01*
X041285Y009680D01*
X041208Y009680D01*
X041285Y009680D02*
X041362Y009757D01*
X041362Y009834D01*
X041285Y009910D01*
X041132Y009910D01*
X041055Y009834D01*
X040901Y009834D02*
X040901Y009680D01*
X040825Y009603D01*
X040594Y009603D01*
X040594Y009450D02*
X040594Y009910D01*
X040825Y009910D01*
X040901Y009834D01*
X040441Y009834D02*
X040364Y009910D01*
X040211Y009910D01*
X040134Y009834D01*
X040134Y009527D01*
X040211Y009450D01*
X040364Y009450D01*
X040441Y009527D01*
X040441Y009680D01*
X040288Y009680D01*
X040211Y010450D02*
X040364Y010450D01*
X040441Y010527D01*
X040441Y010680D01*
X040288Y010680D01*
X040441Y010834D02*
X040364Y010910D01*
X040211Y010910D01*
X040134Y010834D01*
X040134Y010527D01*
X040211Y010450D01*
X040594Y010450D02*
X040594Y010910D01*
X040825Y010910D01*
X040901Y010834D01*
X040901Y010680D01*
X040825Y010603D01*
X040594Y010603D01*
X041055Y010450D02*
X041362Y010757D01*
X041362Y010834D01*
X041285Y010910D01*
X041132Y010910D01*
X041055Y010834D01*
X041055Y010450D02*
X041362Y010450D01*
X041362Y011450D02*
X041055Y011450D01*
X041055Y011910D01*
X041362Y011910D01*
X041515Y011910D02*
X041515Y011450D01*
X041822Y011450D01*
X041208Y011680D02*
X041055Y011680D01*
X040901Y011603D02*
X040901Y011527D01*
X040825Y011450D01*
X040671Y011450D01*
X040594Y011527D01*
X040441Y011450D02*
X040441Y011910D01*
X040594Y011834D02*
X040594Y011757D01*
X040671Y011680D01*
X040825Y011680D01*
X040901Y011603D01*
X040901Y011834D02*
X040825Y011910D01*
X040671Y011910D01*
X040594Y011834D01*
X040441Y011450D02*
X040134Y011910D01*
X040134Y011450D01*
X040134Y012450D02*
X040134Y012910D01*
X040288Y012757D01*
X040441Y012910D01*
X040441Y012450D01*
X040594Y012527D02*
X040671Y012450D01*
X040825Y012450D01*
X040901Y012527D01*
X040901Y012834D01*
X040825Y012910D01*
X040671Y012910D01*
X040594Y012834D01*
X040594Y012527D01*
X041055Y012527D02*
X041132Y012450D01*
X041285Y012450D01*
X041362Y012527D01*
X041362Y012603D01*
X041285Y012680D01*
X041132Y012680D01*
X041055Y012757D01*
X041055Y012834D01*
X041132Y012910D01*
X041285Y012910D01*
X041362Y012834D01*
X041515Y012910D02*
X041669Y012910D01*
X041592Y012910D02*
X041592Y012450D01*
X041515Y012450D02*
X041669Y012450D01*
X041592Y013450D02*
X041438Y013450D01*
X041362Y013527D01*
X041362Y013834D01*
X041438Y013910D01*
X041592Y013910D01*
X041669Y013834D01*
X041669Y013527D01*
X041592Y013450D01*
X041208Y013527D02*
X041132Y013450D01*
X040978Y013450D01*
X040901Y013527D01*
X040748Y013450D02*
X040594Y013450D01*
X040671Y013450D02*
X040671Y013910D01*
X040594Y013910D02*
X040748Y013910D01*
X040901Y013834D02*
X040901Y013757D01*
X040978Y013680D01*
X041132Y013680D01*
X041208Y013603D01*
X041208Y013527D01*
X041208Y013834D02*
X041132Y013910D01*
X040978Y013910D01*
X040901Y013834D01*
X040441Y013910D02*
X040441Y013450D01*
X040134Y013450D02*
X040134Y013910D01*
X040288Y013757D01*
X040441Y013910D01*
X040364Y014450D02*
X040211Y014450D01*
X040134Y014527D01*
X040211Y014680D02*
X040364Y014680D01*
X040441Y014603D01*
X040441Y014527D01*
X040364Y014450D01*
X040594Y014527D02*
X040671Y014450D01*
X040825Y014450D01*
X040901Y014527D01*
X041055Y014450D02*
X041362Y014450D01*
X041515Y014450D02*
X041515Y014910D01*
X041592Y014680D02*
X041822Y014450D01*
X041515Y014603D02*
X041822Y014910D01*
X041055Y014910D02*
X041055Y014450D01*
X040901Y014834D02*
X040825Y014910D01*
X040671Y014910D01*
X040594Y014834D01*
X040594Y014527D01*
X040441Y014834D02*
X040364Y014910D01*
X040211Y014910D01*
X040134Y014834D01*
X040134Y014757D01*
X040211Y014680D01*
X040134Y015450D02*
X040134Y015910D01*
X040441Y015450D01*
X040441Y015910D01*
X040594Y015910D02*
X040825Y015910D01*
X040901Y015834D01*
X040901Y015680D01*
X040825Y015603D01*
X040594Y015603D01*
X040594Y015450D02*
X040594Y015910D01*
X040748Y015603D02*
X040901Y015450D01*
X041055Y015527D02*
X041055Y015834D01*
X041132Y015910D01*
X041285Y015910D01*
X041362Y015834D01*
X041362Y015527D01*
X041285Y015450D01*
X041132Y015450D01*
X041055Y015527D01*
X041208Y015603D02*
X041362Y015450D01*
X041362Y016450D02*
X041055Y016450D01*
X041208Y016450D02*
X041208Y016910D01*
X041055Y016757D01*
X040901Y016834D02*
X040901Y016680D01*
X040825Y016603D01*
X040594Y016603D01*
X040594Y016450D02*
X040594Y016910D01*
X040825Y016910D01*
X040901Y016834D01*
X040441Y016834D02*
X040364Y016910D01*
X040211Y016910D01*
X040134Y016834D01*
X040134Y016527D01*
X040211Y016450D01*
X040364Y016450D01*
X040441Y016527D01*
X040441Y016680D01*
X040288Y016680D01*
X040211Y017450D02*
X040364Y017450D01*
X040441Y017527D01*
X040441Y017680D01*
X040288Y017680D01*
X040441Y017834D02*
X040364Y017910D01*
X040211Y017910D01*
X040134Y017834D01*
X040134Y017527D01*
X040211Y017450D01*
X040594Y017450D02*
X040594Y017910D01*
X040825Y017910D01*
X040901Y017834D01*
X040901Y017680D01*
X040825Y017603D01*
X040594Y017603D01*
X041055Y017527D02*
X041362Y017834D01*
X041362Y017527D01*
X041285Y017450D01*
X041132Y017450D01*
X041055Y017527D01*
X041055Y017834D01*
X041132Y017910D01*
X041285Y017910D01*
X041362Y017834D01*
X036581Y016984D02*
X036581Y016907D01*
X036504Y016830D01*
X036350Y016830D01*
X036274Y016907D01*
X036274Y016984D01*
X036350Y017060D01*
X036504Y017060D01*
X036581Y016984D01*
X036504Y016830D02*
X036581Y016753D01*
X036581Y016677D01*
X036504Y016600D01*
X036350Y016600D01*
X036274Y016677D01*
X036274Y016753D01*
X036350Y016830D01*
X036120Y016830D02*
X036043Y016753D01*
X035813Y016753D01*
X035813Y016600D02*
X035813Y017060D01*
X036043Y017060D01*
X036120Y016984D01*
X036120Y016830D01*
X035967Y016753D02*
X036120Y016600D01*
X032137Y015934D02*
X032137Y015857D01*
X032060Y015780D01*
X032137Y015703D01*
X032137Y015627D01*
X032060Y015550D01*
X031907Y015550D01*
X031830Y015627D01*
X031676Y015550D02*
X031369Y015550D01*
X031523Y015550D02*
X031523Y016010D01*
X031369Y015857D01*
X031216Y015934D02*
X031139Y016010D01*
X030986Y016010D01*
X030909Y015934D01*
X030909Y015627D01*
X030986Y015550D01*
X031139Y015550D01*
X031216Y015627D01*
X031830Y015934D02*
X031907Y016010D01*
X032060Y016010D01*
X032137Y015934D01*
X032060Y015780D02*
X031983Y015780D01*
X027887Y013934D02*
X027580Y013627D01*
X027657Y013550D01*
X027810Y013550D01*
X027887Y013627D01*
X027887Y013934D01*
X027810Y014010D01*
X027657Y014010D01*
X027580Y013934D01*
X027580Y013627D01*
X027426Y013550D02*
X027119Y013550D01*
X027273Y013550D02*
X027273Y014010D01*
X027119Y013857D01*
X026966Y013934D02*
X026889Y014010D01*
X026736Y014010D01*
X026659Y013934D01*
X026659Y013627D01*
X026736Y013550D01*
X026889Y013550D01*
X026966Y013627D01*
X025469Y014777D02*
X025392Y014700D01*
X025085Y014700D01*
X025009Y014777D01*
X025009Y014930D01*
X025085Y015007D01*
X025392Y015007D01*
X025469Y014930D01*
X025469Y014777D01*
X025316Y014853D02*
X025469Y015007D01*
X025469Y015160D02*
X025469Y015467D01*
X025469Y015314D02*
X025009Y015314D01*
X025162Y015160D01*
X023551Y015252D02*
X023475Y015175D01*
X023321Y015175D01*
X023244Y015252D01*
X023244Y015328D01*
X023321Y015405D01*
X023475Y015405D01*
X023551Y015328D01*
X023551Y015252D01*
X023475Y015405D02*
X023551Y015482D01*
X023551Y015559D01*
X023475Y015635D01*
X023321Y015635D01*
X023244Y015559D01*
X023244Y015482D01*
X023321Y015405D01*
X023091Y015252D02*
X023014Y015175D01*
X022861Y015175D01*
X022784Y015252D01*
X022784Y015559D01*
X022861Y015635D01*
X023014Y015635D01*
X023091Y015559D01*
X022301Y015559D02*
X022301Y015635D01*
X021994Y015635D01*
X021841Y015559D02*
X021764Y015635D01*
X021534Y015635D01*
X021534Y015175D01*
X021534Y015328D02*
X021764Y015328D01*
X021841Y015405D01*
X021841Y015559D01*
X021688Y015328D02*
X021841Y015175D01*
X021994Y015175D02*
X021994Y015252D01*
X022301Y015559D01*
X019051Y014780D02*
X018744Y014780D01*
X018975Y015010D01*
X018975Y014550D01*
X018591Y014550D02*
X018438Y014703D01*
X018514Y014703D02*
X018284Y014703D01*
X018284Y014550D02*
X018284Y015010D01*
X018514Y015010D01*
X018591Y014934D01*
X018591Y014780D01*
X018514Y014703D01*
X018591Y016300D02*
X018438Y016453D01*
X018514Y016453D02*
X018284Y016453D01*
X018284Y016300D02*
X018284Y016760D01*
X018514Y016760D01*
X018591Y016684D01*
X018591Y016530D01*
X018514Y016453D01*
X018744Y016377D02*
X018821Y016300D01*
X018975Y016300D01*
X019051Y016377D01*
X019051Y016684D01*
X018975Y016760D01*
X018821Y016760D01*
X018744Y016684D01*
X018744Y016607D01*
X018821Y016530D01*
X019051Y016530D01*
X019159Y018225D02*
X019159Y018455D01*
X019235Y018532D01*
X019389Y018532D01*
X019466Y018455D01*
X019466Y018225D01*
X019619Y018225D02*
X019159Y018225D01*
X019466Y018378D02*
X019619Y018532D01*
X019619Y018685D02*
X019619Y018992D01*
X019619Y018839D02*
X019159Y018839D01*
X019312Y018685D01*
X019235Y019146D02*
X019159Y019223D01*
X019159Y019376D01*
X019235Y019453D01*
X019312Y019453D01*
X019389Y019376D01*
X019466Y019453D01*
X019542Y019453D01*
X019619Y019376D01*
X019619Y019223D01*
X019542Y019146D01*
X019389Y019299D02*
X019389Y019376D01*
X016994Y019453D02*
X016994Y019146D01*
X016687Y019453D01*
X016610Y019453D01*
X016534Y019376D01*
X016534Y019223D01*
X016610Y019146D01*
X016534Y018839D02*
X016994Y018839D01*
X016994Y018992D02*
X016994Y018685D01*
X016994Y018532D02*
X016841Y018378D01*
X016841Y018455D02*
X016841Y018225D01*
X016994Y018225D02*
X016534Y018225D01*
X016534Y018455D01*
X016610Y018532D01*
X016764Y018532D01*
X016841Y018455D01*
X016687Y018685D02*
X016534Y018839D01*
X014994Y018742D02*
X014994Y018435D01*
X014994Y018282D02*
X014841Y018128D01*
X014841Y018205D02*
X014841Y017975D01*
X014994Y017975D02*
X014534Y017975D01*
X014534Y018205D01*
X014610Y018282D01*
X014764Y018282D01*
X014841Y018205D01*
X014687Y018435D02*
X014534Y018589D01*
X014994Y018589D01*
X014917Y018896D02*
X014764Y018896D01*
X014764Y019126D01*
X014841Y019203D01*
X014917Y019203D01*
X014994Y019126D01*
X014994Y018973D01*
X014917Y018896D01*
X014764Y018896D02*
X014610Y019049D01*
X014534Y019203D01*
X014610Y019475D02*
X014917Y019475D01*
X014994Y019552D01*
X014994Y019705D01*
X014917Y019782D01*
X014994Y019935D02*
X014687Y020242D01*
X014610Y020242D01*
X014534Y020166D01*
X014534Y020012D01*
X014610Y019935D01*
X014610Y019782D02*
X014534Y019705D01*
X014534Y019552D01*
X014610Y019475D01*
X014994Y019935D02*
X014994Y020242D01*
X014764Y020396D02*
X014764Y020703D01*
X014994Y020626D02*
X014534Y020626D01*
X014764Y020396D01*
X013026Y019709D02*
X012950Y019785D01*
X012796Y019785D01*
X012719Y019709D01*
X012566Y019709D02*
X012489Y019785D01*
X012336Y019785D01*
X012259Y019709D01*
X012259Y019632D01*
X012336Y019555D01*
X012489Y019555D01*
X012566Y019478D01*
X012566Y019402D01*
X012489Y019325D01*
X012336Y019325D01*
X012259Y019402D01*
X012719Y019325D02*
X013026Y019632D01*
X013026Y019709D01*
X013026Y019325D02*
X012719Y019325D01*
X010994Y019225D02*
X010534Y019225D01*
X010534Y019455D01*
X010610Y019532D01*
X010764Y019532D01*
X010841Y019455D01*
X010841Y019225D01*
X010841Y019378D02*
X010994Y019532D01*
X010994Y019685D02*
X010994Y019992D01*
X010994Y019839D02*
X010534Y019839D01*
X010687Y019685D01*
X010764Y020146D02*
X010687Y020299D01*
X010687Y020376D01*
X010764Y020453D01*
X010917Y020453D01*
X010994Y020376D01*
X010994Y020223D01*
X010917Y020146D01*
X010764Y020146D02*
X010534Y020146D01*
X010534Y020453D01*
X010784Y020752D02*
X010861Y020675D01*
X011014Y020675D01*
X011091Y020752D01*
X011244Y020675D02*
X011551Y020982D01*
X011551Y021059D01*
X011475Y021135D01*
X011321Y021135D01*
X011244Y021059D01*
X011091Y021059D02*
X011014Y021135D01*
X010861Y021135D01*
X010784Y021059D01*
X010784Y020752D01*
X011244Y020675D02*
X011551Y020675D01*
X011705Y020675D02*
X012012Y020675D01*
X011858Y020675D02*
X011858Y021135D01*
X011705Y020982D01*
X011719Y022075D02*
X011719Y022535D01*
X011950Y022535D01*
X012026Y022459D01*
X012026Y022305D01*
X011950Y022228D01*
X011719Y022228D01*
X011873Y022228D02*
X012026Y022075D01*
X012180Y022152D02*
X012257Y022075D01*
X012410Y022075D01*
X012487Y022152D01*
X012487Y022459D01*
X012410Y022535D01*
X012257Y022535D01*
X012180Y022459D01*
X012180Y022152D01*
X012640Y022152D02*
X012717Y022075D01*
X012870Y022075D01*
X012947Y022152D01*
X012947Y022305D01*
X012794Y022305D01*
X012947Y022459D02*
X012870Y022535D01*
X012717Y022535D01*
X012640Y022459D01*
X012640Y022152D01*
X013101Y022228D02*
X013331Y022228D01*
X013408Y022305D01*
X013408Y022459D01*
X013331Y022535D01*
X013101Y022535D01*
X013101Y022075D01*
X013254Y022228D02*
X013408Y022075D01*
X013561Y022075D02*
X013561Y022382D01*
X013714Y022535D01*
X013868Y022382D01*
X013868Y022075D01*
X014021Y022075D02*
X014021Y022535D01*
X014175Y022382D01*
X014328Y022535D01*
X014328Y022075D01*
X013868Y022305D02*
X013561Y022305D01*
X011566Y022305D02*
X011489Y022228D01*
X011259Y022228D01*
X011259Y022075D02*
X011259Y022535D01*
X011489Y022535D01*
X011566Y022459D01*
X011566Y022305D01*
X009783Y022535D02*
X009476Y022535D01*
X009629Y022535D02*
X009629Y022075D01*
X009322Y022075D02*
X009015Y022075D01*
X009015Y022535D01*
X009322Y022535D01*
X009169Y022305D02*
X009015Y022305D01*
X008862Y022228D02*
X008862Y022152D01*
X008785Y022075D01*
X008632Y022075D01*
X008555Y022152D01*
X008632Y022305D02*
X008785Y022305D01*
X008862Y022228D01*
X008862Y022459D02*
X008785Y022535D01*
X008632Y022535D01*
X008555Y022459D01*
X008555Y022382D01*
X008632Y022305D01*
X008401Y022075D02*
X008094Y022075D01*
X008094Y022535D01*
X008401Y022535D01*
X008248Y022305D02*
X008094Y022305D01*
X007941Y022305D02*
X007941Y022459D01*
X007864Y022535D01*
X007634Y022535D01*
X007634Y022075D01*
X007634Y022228D02*
X007864Y022228D01*
X007941Y022305D01*
X007788Y022228D02*
X007941Y022075D01*
X008336Y019785D02*
X008259Y019709D01*
X008259Y019632D01*
X008336Y019555D01*
X008489Y019555D01*
X008566Y019478D01*
X008566Y019402D01*
X008489Y019325D01*
X008336Y019325D01*
X008259Y019402D01*
X008566Y019709D02*
X008489Y019785D01*
X008336Y019785D01*
X008719Y019632D02*
X008873Y019785D01*
X008873Y019325D01*
X009026Y019325D02*
X008719Y019325D01*
X010014Y018328D02*
X010014Y018021D01*
X009784Y018251D01*
X010244Y018251D01*
X010244Y017867D02*
X010244Y017560D01*
X010244Y017407D02*
X010091Y017253D01*
X010091Y017330D02*
X010091Y017100D01*
X010244Y017100D02*
X009784Y017100D01*
X009784Y017330D01*
X009860Y017407D01*
X010014Y017407D01*
X010091Y017330D01*
X009937Y017560D02*
X009784Y017714D01*
X010244Y017714D01*
X010176Y015685D02*
X009869Y015685D01*
X009869Y015225D01*
X010176Y015225D01*
X010330Y015225D02*
X010560Y015225D01*
X010637Y015302D01*
X010637Y015609D01*
X010560Y015685D01*
X010330Y015685D01*
X010330Y015225D01*
X010023Y015455D02*
X009869Y015455D01*
X009716Y015225D02*
X009409Y015225D01*
X009409Y015685D01*
X010790Y015532D02*
X010944Y015685D01*
X010944Y015225D01*
X011097Y015225D02*
X010790Y015225D01*
X005387Y016877D02*
X005310Y016800D01*
X005157Y016800D01*
X005080Y016877D01*
X005387Y017184D01*
X005387Y016877D01*
X005387Y017184D02*
X005310Y017260D01*
X005157Y017260D01*
X005080Y017184D01*
X005080Y016877D01*
X004926Y016800D02*
X004619Y016800D01*
X004926Y017107D01*
X004926Y017184D01*
X004850Y017260D01*
X004696Y017260D01*
X004619Y017184D01*
X004466Y017184D02*
X004389Y017260D01*
X004236Y017260D01*
X004159Y017184D01*
X004159Y016877D01*
X004236Y016800D01*
X004389Y016800D01*
X004466Y016877D01*
X004466Y019050D02*
X004313Y019203D01*
X004389Y019203D02*
X004159Y019203D01*
X004159Y019050D02*
X004159Y019510D01*
X004389Y019510D01*
X004466Y019434D01*
X004466Y019280D01*
X004389Y019203D01*
X004619Y019050D02*
X004926Y019050D01*
X004773Y019050D02*
X004773Y019510D01*
X004619Y019357D01*
X005080Y019434D02*
X005157Y019510D01*
X005310Y019510D01*
X005387Y019434D01*
X005080Y019127D01*
X005157Y019050D01*
X005310Y019050D01*
X005387Y019127D01*
X005387Y019434D01*
X005080Y019434D02*
X005080Y019127D01*
X016159Y022100D02*
X016466Y022100D01*
X016619Y022100D02*
X016926Y022100D01*
X017080Y022100D02*
X017310Y022100D01*
X017387Y022177D01*
X017387Y022484D01*
X017310Y022560D01*
X017080Y022560D01*
X017080Y022100D01*
X016773Y022330D02*
X016619Y022330D01*
X016619Y022560D02*
X016619Y022100D01*
X016159Y022100D02*
X016159Y022560D01*
X016619Y022560D02*
X016926Y022560D01*
X017540Y022484D02*
X017617Y022560D01*
X017770Y022560D01*
X017847Y022484D01*
X017847Y022407D01*
X017540Y022100D01*
X017847Y022100D01*
X018534Y022100D02*
X018841Y022100D01*
X018994Y022100D02*
X019301Y022100D01*
X019455Y022100D02*
X019685Y022100D01*
X019762Y022177D01*
X019762Y022484D01*
X019685Y022560D01*
X019455Y022560D01*
X019455Y022100D01*
X019148Y022330D02*
X018994Y022330D01*
X018994Y022560D02*
X018994Y022100D01*
X018534Y022100D02*
X018534Y022560D01*
X018994Y022560D02*
X019301Y022560D01*
X019915Y022484D02*
X019992Y022560D01*
X020145Y022560D01*
X020222Y022484D01*
X020222Y022407D01*
X020145Y022330D01*
X020222Y022253D01*
X020222Y022177D01*
X020145Y022100D01*
X019992Y022100D01*
X019915Y022177D01*
X020069Y022330D02*
X020145Y022330D01*
X021759Y022152D02*
X021836Y022075D01*
X021989Y022075D01*
X022066Y022152D01*
X022066Y022535D01*
X022219Y022459D02*
X022219Y022382D01*
X022296Y022305D01*
X022450Y022305D01*
X022526Y022228D01*
X022526Y022152D01*
X022450Y022075D01*
X022296Y022075D01*
X022219Y022152D01*
X021759Y022152D02*
X021759Y022535D01*
X022219Y022459D02*
X022296Y022535D01*
X022450Y022535D01*
X022526Y022459D01*
X022680Y022535D02*
X022680Y022075D01*
X022987Y022075D01*
X023140Y022075D02*
X023140Y022535D01*
X023370Y022535D01*
X023447Y022459D01*
X023447Y022305D01*
X023370Y022228D01*
X023140Y022228D01*
X023294Y022228D02*
X023447Y022075D01*
X022833Y022305D02*
X022680Y022305D01*
X022680Y022535D02*
X022987Y022535D01*
X025509Y022535D02*
X025509Y022305D01*
X025663Y022382D01*
X025739Y022382D01*
X025816Y022305D01*
X025816Y022152D01*
X025739Y022075D01*
X025586Y022075D01*
X025509Y022152D01*
X025969Y022228D02*
X026123Y022075D01*
X026276Y022228D01*
X026276Y022535D01*
X025969Y022535D02*
X025969Y022228D01*
X025816Y022535D02*
X025509Y022535D01*
X026884Y022459D02*
X026884Y022152D01*
X026961Y022075D01*
X027114Y022075D01*
X027191Y022152D01*
X027191Y022305D01*
X027038Y022305D01*
X027191Y022459D02*
X027114Y022535D01*
X026961Y022535D01*
X026884Y022459D01*
X027634Y022459D02*
X027711Y022535D01*
X027864Y022535D01*
X027941Y022459D01*
X027941Y022382D01*
X027864Y022305D01*
X027941Y022228D01*
X027941Y022152D01*
X027864Y022075D01*
X027711Y022075D01*
X027634Y022152D01*
X027788Y022305D02*
X027864Y022305D01*
X028094Y022228D02*
X028248Y022075D01*
X028401Y022228D01*
X028401Y022535D01*
X028094Y022535D02*
X028094Y022228D01*
X028509Y021834D02*
X028509Y021757D01*
X028586Y021680D01*
X028739Y021680D01*
X028816Y021603D01*
X028816Y021527D01*
X028739Y021450D01*
X028586Y021450D01*
X028509Y021527D01*
X028509Y021834D02*
X028586Y021910D01*
X028739Y021910D01*
X028816Y021834D01*
X028969Y021834D02*
X028969Y021527D01*
X029046Y021450D01*
X029200Y021450D01*
X029276Y021527D01*
X029430Y021603D02*
X029737Y021910D01*
X029796Y022075D02*
X029950Y022075D01*
X030026Y022152D01*
X030026Y022459D01*
X029950Y022535D01*
X029796Y022535D01*
X029719Y022459D01*
X029719Y022152D01*
X029796Y022075D01*
X029566Y022075D02*
X029566Y022535D01*
X029413Y022382D01*
X029259Y022535D01*
X029259Y022075D01*
X029200Y021910D02*
X029046Y021910D01*
X028969Y021834D01*
X029200Y021910D02*
X029276Y021834D01*
X029430Y021910D02*
X029430Y021450D01*
X029507Y021680D02*
X029737Y021450D01*
X030259Y021450D02*
X030259Y021910D01*
X030413Y021757D01*
X030566Y021910D01*
X030566Y021450D01*
X030719Y021450D02*
X030873Y021450D01*
X030796Y021450D02*
X030796Y021910D01*
X030719Y021910D02*
X030873Y021910D01*
X031026Y021834D02*
X031026Y021757D01*
X031103Y021680D01*
X031257Y021680D01*
X031333Y021603D01*
X031333Y021527D01*
X031257Y021450D01*
X031103Y021450D01*
X031026Y021527D01*
X031026Y021834D02*
X031103Y021910D01*
X031257Y021910D01*
X031333Y021834D01*
X031487Y021834D02*
X031487Y021527D01*
X031563Y021450D01*
X031717Y021450D01*
X031794Y021527D01*
X031794Y021834D01*
X031717Y021910D01*
X031563Y021910D01*
X031487Y021834D01*
X031711Y022075D02*
X031634Y022152D01*
X031711Y022075D02*
X031864Y022075D01*
X031941Y022152D01*
X031941Y022228D01*
X031864Y022305D01*
X031711Y022305D01*
X031634Y022382D01*
X031634Y022459D01*
X031711Y022535D01*
X031864Y022535D01*
X031941Y022459D01*
X032094Y022459D02*
X032094Y022382D01*
X032171Y022305D01*
X032325Y022305D01*
X032401Y022228D01*
X032401Y022152D01*
X032325Y022075D01*
X032171Y022075D01*
X032094Y022152D01*
X032884Y022152D02*
X032961Y022075D01*
X033114Y022075D01*
X033191Y022152D01*
X033191Y022305D01*
X033038Y022305D01*
X033191Y022459D02*
X033114Y022535D01*
X032961Y022535D01*
X032884Y022459D01*
X032884Y022152D01*
X032401Y022459D02*
X032325Y022535D01*
X032171Y022535D01*
X032094Y022459D01*
X030794Y022535D02*
X030640Y022535D01*
X030717Y022535D02*
X030717Y022075D01*
X030640Y022075D02*
X030794Y022075D01*
X030487Y022152D02*
X030487Y022228D01*
X030410Y022305D01*
X030257Y022305D01*
X030180Y022382D01*
X030180Y022459D01*
X030257Y022535D01*
X030410Y022535D01*
X030487Y022459D01*
X030487Y022152D02*
X030410Y022075D01*
X030257Y022075D01*
X030180Y022152D01*
X027082Y019679D02*
X027005Y019755D01*
X026852Y019755D01*
X026775Y019679D01*
X026621Y019679D02*
X026545Y019755D01*
X026314Y019755D01*
X026314Y019295D01*
X026314Y019448D02*
X026545Y019448D01*
X026621Y019525D01*
X026621Y019679D01*
X026775Y019295D02*
X027082Y019602D01*
X027082Y019679D01*
X027082Y019295D02*
X026775Y019295D01*
X026084Y019372D02*
X026084Y019755D01*
X026008Y019755D02*
X026161Y019755D01*
X026084Y019372D02*
X026008Y019295D01*
X025931Y019295D01*
X025854Y019372D01*
X024994Y019677D02*
X024994Y019830D01*
X024917Y019907D01*
X024994Y020060D02*
X024687Y020367D01*
X024610Y020367D01*
X024534Y020291D01*
X024534Y020137D01*
X024610Y020060D01*
X024610Y019907D02*
X024534Y019830D01*
X024534Y019677D01*
X024610Y019600D01*
X024917Y019600D01*
X024994Y019677D01*
X024994Y020060D02*
X024994Y020367D01*
X024917Y020521D02*
X024994Y020598D01*
X024994Y020751D01*
X024917Y020828D01*
X024764Y020828D01*
X024687Y020751D01*
X024687Y020674D01*
X024764Y020521D01*
X024534Y020521D01*
X024534Y020828D01*
X023026Y019709D02*
X022950Y019785D01*
X022796Y019785D01*
X022719Y019709D01*
X022566Y019709D02*
X022489Y019785D01*
X022336Y019785D01*
X022259Y019709D01*
X022259Y019632D01*
X022336Y019555D01*
X022489Y019555D01*
X022566Y019478D01*
X022566Y019402D01*
X022489Y019325D01*
X022336Y019325D01*
X022259Y019402D01*
X022719Y019402D02*
X022796Y019325D01*
X022950Y019325D01*
X023026Y019402D01*
X023026Y019478D01*
X022950Y019555D01*
X022873Y019555D01*
X022950Y019555D02*
X023026Y019632D01*
X023026Y019709D01*
X024534Y019203D02*
X024534Y018896D01*
X024534Y019203D02*
X024610Y019203D01*
X024917Y018896D01*
X024994Y018896D01*
X024994Y018742D02*
X024994Y018435D01*
X024994Y018282D02*
X024841Y018128D01*
X024841Y018205D02*
X024841Y017975D01*
X024994Y017975D02*
X024534Y017975D01*
X024534Y018205D01*
X024610Y018282D01*
X024764Y018282D01*
X024841Y018205D01*
X024687Y018435D02*
X024534Y018589D01*
X024994Y018589D01*
X026861Y016260D02*
X026784Y016184D01*
X026784Y015877D01*
X026861Y015800D01*
X027014Y015800D01*
X027091Y015877D01*
X027244Y015877D02*
X027321Y015800D01*
X027475Y015800D01*
X027551Y015877D01*
X027551Y016184D01*
X027475Y016260D01*
X027321Y016260D01*
X027244Y016184D01*
X027244Y016107D01*
X027321Y016030D01*
X027551Y016030D01*
X027091Y016184D02*
X027014Y016260D01*
X026861Y016260D01*
X035239Y007297D02*
X035239Y006990D01*
X035392Y007143D02*
X035085Y007143D01*
D11*
X021428Y013505D02*
X021430Y013525D01*
X021435Y013545D01*
X021445Y013563D01*
X021457Y013580D01*
X021472Y013594D01*
X021490Y013604D01*
X021509Y013612D01*
X021529Y013616D01*
X021549Y013616D01*
X021569Y013612D01*
X021588Y013604D01*
X021606Y013594D01*
X021621Y013580D01*
X021633Y013563D01*
X021643Y013545D01*
X021648Y013525D01*
X021650Y013505D01*
X021648Y013485D01*
X021643Y013465D01*
X021633Y013447D01*
X021621Y013430D01*
X021606Y013416D01*
X021588Y013406D01*
X021569Y013398D01*
X021549Y013394D01*
X021529Y013394D01*
X021509Y013398D01*
X021490Y013406D01*
X021472Y013416D01*
X021457Y013430D01*
X021445Y013447D01*
X021435Y013465D01*
X021430Y013485D01*
X021428Y013505D01*
X042114Y023430D02*
X046114Y019430D01*
X044614Y019430D01*
X046114Y019430D02*
X046114Y020930D01*
D12*
X002914Y002399D02*
X002916Y002450D01*
X002922Y002501D01*
X002932Y002551D01*
X002945Y002601D01*
X002963Y002649D01*
X002983Y002696D01*
X003008Y002741D01*
X003036Y002784D01*
X003067Y002825D01*
X003101Y002863D01*
X003138Y002898D01*
X003177Y002931D01*
X003219Y002961D01*
X003263Y002987D01*
X003309Y003009D01*
X003357Y003029D01*
X003406Y003044D01*
X003456Y003056D01*
X003506Y003064D01*
X003557Y003068D01*
X003609Y003068D01*
X003660Y003064D01*
X003710Y003056D01*
X003760Y003044D01*
X003809Y003029D01*
X003857Y003009D01*
X003903Y002987D01*
X003947Y002961D01*
X003989Y002931D01*
X004028Y002898D01*
X004065Y002863D01*
X004099Y002825D01*
X004130Y002784D01*
X004158Y002741D01*
X004183Y002696D01*
X004203Y002649D01*
X004221Y002601D01*
X004234Y002551D01*
X004244Y002501D01*
X004250Y002450D01*
X004252Y002399D01*
X004250Y002348D01*
X004244Y002297D01*
X004234Y002247D01*
X004221Y002197D01*
X004203Y002149D01*
X004183Y002102D01*
X004158Y002057D01*
X004130Y002014D01*
X004099Y001973D01*
X004065Y001935D01*
X004028Y001900D01*
X003989Y001867D01*
X003947Y001837D01*
X003903Y001811D01*
X003857Y001789D01*
X003809Y001769D01*
X003760Y001754D01*
X003710Y001742D01*
X003660Y001734D01*
X003609Y001730D01*
X003557Y001730D01*
X003506Y001734D01*
X003456Y001742D01*
X003406Y001754D01*
X003357Y001769D01*
X003309Y001789D01*
X003263Y001811D01*
X003219Y001837D01*
X003177Y001867D01*
X003138Y001900D01*
X003101Y001935D01*
X003067Y001973D01*
X003036Y002014D01*
X003008Y002057D01*
X002983Y002102D01*
X002963Y002149D01*
X002945Y002197D01*
X002932Y002247D01*
X002922Y002297D01*
X002916Y002348D01*
X002914Y002399D01*
X008554Y009611D02*
X008591Y009611D01*
X008554Y009611D02*
X008554Y010249D01*
X008591Y010249D01*
X008909Y010249D02*
X009320Y010249D01*
X009637Y010249D02*
X009674Y010249D01*
X009674Y009611D01*
X009637Y009611D01*
X009320Y009611D02*
X009283Y009611D01*
X008946Y009611D02*
X008909Y009611D01*
X011604Y010870D02*
X011604Y011090D01*
X011604Y010870D02*
X011924Y010870D01*
X011604Y011770D02*
X011604Y011990D01*
X011924Y011990D01*
X002914Y022084D02*
X002916Y022135D01*
X002922Y022186D01*
X002932Y022236D01*
X002945Y022286D01*
X002963Y022334D01*
X002983Y022381D01*
X003008Y022426D01*
X003036Y022469D01*
X003067Y022510D01*
X003101Y022548D01*
X003138Y022583D01*
X003177Y022616D01*
X003219Y022646D01*
X003263Y022672D01*
X003309Y022694D01*
X003357Y022714D01*
X003406Y022729D01*
X003456Y022741D01*
X003506Y022749D01*
X003557Y022753D01*
X003609Y022753D01*
X003660Y022749D01*
X003710Y022741D01*
X003760Y022729D01*
X003809Y022714D01*
X003857Y022694D01*
X003903Y022672D01*
X003947Y022646D01*
X003989Y022616D01*
X004028Y022583D01*
X004065Y022548D01*
X004099Y022510D01*
X004130Y022469D01*
X004158Y022426D01*
X004183Y022381D01*
X004203Y022334D01*
X004221Y022286D01*
X004234Y022236D01*
X004244Y022186D01*
X004250Y022135D01*
X004252Y022084D01*
X004250Y022033D01*
X004244Y021982D01*
X004234Y021932D01*
X004221Y021882D01*
X004203Y021834D01*
X004183Y021787D01*
X004158Y021742D01*
X004130Y021699D01*
X004099Y021658D01*
X004065Y021620D01*
X004028Y021585D01*
X003989Y021552D01*
X003947Y021522D01*
X003903Y021496D01*
X003857Y021474D01*
X003809Y021454D01*
X003760Y021439D01*
X003710Y021427D01*
X003660Y021419D01*
X003609Y021415D01*
X003557Y021415D01*
X003506Y021419D01*
X003456Y021427D01*
X003406Y021439D01*
X003357Y021454D01*
X003309Y021474D01*
X003263Y021496D01*
X003219Y021522D01*
X003177Y021552D01*
X003138Y021585D01*
X003101Y021620D01*
X003067Y021658D01*
X003036Y021699D01*
X003008Y021742D01*
X002983Y021787D01*
X002963Y021834D01*
X002945Y021882D01*
X002932Y021932D01*
X002922Y021982D01*
X002916Y022033D01*
X002914Y022084D01*
X034410Y022084D02*
X034412Y022135D01*
X034418Y022186D01*
X034428Y022236D01*
X034441Y022286D01*
X034459Y022334D01*
X034479Y022381D01*
X034504Y022426D01*
X034532Y022469D01*
X034563Y022510D01*
X034597Y022548D01*
X034634Y022583D01*
X034673Y022616D01*
X034715Y022646D01*
X034759Y022672D01*
X034805Y022694D01*
X034853Y022714D01*
X034902Y022729D01*
X034952Y022741D01*
X035002Y022749D01*
X035053Y022753D01*
X035105Y022753D01*
X035156Y022749D01*
X035206Y022741D01*
X035256Y022729D01*
X035305Y022714D01*
X035353Y022694D01*
X035399Y022672D01*
X035443Y022646D01*
X035485Y022616D01*
X035524Y022583D01*
X035561Y022548D01*
X035595Y022510D01*
X035626Y022469D01*
X035654Y022426D01*
X035679Y022381D01*
X035699Y022334D01*
X035717Y022286D01*
X035730Y022236D01*
X035740Y022186D01*
X035746Y022135D01*
X035748Y022084D01*
X035746Y022033D01*
X035740Y021982D01*
X035730Y021932D01*
X035717Y021882D01*
X035699Y021834D01*
X035679Y021787D01*
X035654Y021742D01*
X035626Y021699D01*
X035595Y021658D01*
X035561Y021620D01*
X035524Y021585D01*
X035485Y021552D01*
X035443Y021522D01*
X035399Y021496D01*
X035353Y021474D01*
X035305Y021454D01*
X035256Y021439D01*
X035206Y021427D01*
X035156Y021419D01*
X035105Y021415D01*
X035053Y021415D01*
X035002Y021419D01*
X034952Y021427D01*
X034902Y021439D01*
X034853Y021454D01*
X034805Y021474D01*
X034759Y021496D01*
X034715Y021522D01*
X034673Y021552D01*
X034634Y021585D01*
X034597Y021620D01*
X034563Y021658D01*
X034532Y021699D01*
X034504Y021742D01*
X034479Y021787D01*
X034459Y021834D01*
X034441Y021882D01*
X034428Y021932D01*
X034418Y021982D01*
X034412Y022033D01*
X034410Y022084D01*
X038347Y002399D02*
X038349Y002450D01*
X038355Y002501D01*
X038365Y002551D01*
X038378Y002601D01*
X038396Y002649D01*
X038416Y002696D01*
X038441Y002741D01*
X038469Y002784D01*
X038500Y002825D01*
X038534Y002863D01*
X038571Y002898D01*
X038610Y002931D01*
X038652Y002961D01*
X038696Y002987D01*
X038742Y003009D01*
X038790Y003029D01*
X038839Y003044D01*
X038889Y003056D01*
X038939Y003064D01*
X038990Y003068D01*
X039042Y003068D01*
X039093Y003064D01*
X039143Y003056D01*
X039193Y003044D01*
X039242Y003029D01*
X039290Y003009D01*
X039336Y002987D01*
X039380Y002961D01*
X039422Y002931D01*
X039461Y002898D01*
X039498Y002863D01*
X039532Y002825D01*
X039563Y002784D01*
X039591Y002741D01*
X039616Y002696D01*
X039636Y002649D01*
X039654Y002601D01*
X039667Y002551D01*
X039677Y002501D01*
X039683Y002450D01*
X039685Y002399D01*
X039683Y002348D01*
X039677Y002297D01*
X039667Y002247D01*
X039654Y002197D01*
X039636Y002149D01*
X039616Y002102D01*
X039591Y002057D01*
X039563Y002014D01*
X039532Y001973D01*
X039498Y001935D01*
X039461Y001900D01*
X039422Y001867D01*
X039380Y001837D01*
X039336Y001811D01*
X039290Y001789D01*
X039242Y001769D01*
X039193Y001754D01*
X039143Y001742D01*
X039093Y001734D01*
X039042Y001730D01*
X038990Y001730D01*
X038939Y001734D01*
X038889Y001742D01*
X038839Y001754D01*
X038790Y001769D01*
X038742Y001789D01*
X038696Y001811D01*
X038652Y001837D01*
X038610Y001867D01*
X038571Y001900D01*
X038534Y001935D01*
X038500Y001973D01*
X038469Y002014D01*
X038441Y002057D01*
X038416Y002102D01*
X038396Y002149D01*
X038378Y002197D01*
X038365Y002247D01*
X038355Y002297D01*
X038349Y002348D01*
X038347Y002399D01*
D13*
X035554Y005550D02*
X034924Y005550D01*
X034924Y006810D01*
X035554Y006810D01*
X035554Y005550D01*
X036279Y005879D02*
X036279Y006981D01*
X036949Y006981D01*
X036949Y005879D01*
X036279Y005879D01*
X037364Y005958D02*
X037364Y006902D01*
X037864Y006902D01*
X037864Y005958D01*
X037364Y005958D01*
X027586Y010180D02*
X027586Y010680D01*
X026642Y010680D01*
X026642Y010180D01*
X027586Y010180D01*
X027586Y010680D02*
X026642Y010680D01*
X026642Y011180D01*
X027586Y011180D01*
X027586Y010680D01*
X028561Y010489D02*
X028561Y015371D01*
X029024Y015371D01*
X030205Y015371D02*
X030667Y015371D01*
X030667Y010489D01*
X030205Y010489D01*
X031114Y010958D02*
X031614Y010958D01*
X031614Y011902D01*
X031114Y011902D01*
X031114Y010958D01*
X029024Y010489D02*
X028561Y010489D01*
X027586Y011430D02*
X026642Y011430D01*
X026642Y011930D01*
X027586Y011930D01*
X027586Y011430D01*
X025964Y013880D02*
X025966Y013904D01*
X025972Y013928D01*
X025981Y013950D01*
X025994Y013970D01*
X026010Y013988D01*
X026029Y014003D01*
X026050Y014016D01*
X026072Y014024D01*
X026096Y014029D01*
X026120Y014030D01*
X026144Y014027D01*
X026167Y014020D01*
X026189Y014010D01*
X026209Y013996D01*
X026226Y013979D01*
X026241Y013960D01*
X026252Y013939D01*
X026260Y013916D01*
X026264Y013892D01*
X026264Y013868D01*
X026260Y013844D01*
X026252Y013821D01*
X026241Y013800D01*
X026226Y013781D01*
X026209Y013764D01*
X026189Y013750D01*
X026167Y013740D01*
X026144Y013733D01*
X026120Y013730D01*
X026096Y013731D01*
X026072Y013736D01*
X026050Y013744D01*
X026029Y013757D01*
X026010Y013772D01*
X025994Y013790D01*
X025981Y013810D01*
X025972Y013832D01*
X025966Y013856D01*
X025964Y013880D01*
X025720Y014180D02*
X025720Y015680D01*
X026508Y015680D01*
X026508Y014180D01*
X025720Y014180D01*
X026642Y014180D02*
X026642Y014680D01*
X027586Y014680D01*
X027586Y014180D01*
X026642Y014180D01*
X026642Y015180D02*
X026642Y015680D01*
X027586Y015680D01*
X027586Y015180D01*
X026642Y015180D01*
X023586Y015680D02*
X022642Y015680D01*
X022642Y016180D01*
X023586Y016180D01*
X023586Y015680D01*
X022586Y015680D02*
X022586Y016180D01*
X021642Y016180D01*
X021642Y015680D01*
X022586Y015680D01*
X019086Y015680D02*
X019086Y015180D01*
X018142Y015180D01*
X018142Y015680D01*
X019086Y015680D01*
X018142Y015680D01*
X018142Y016180D01*
X019086Y016180D01*
X019086Y015680D01*
X021925Y018249D02*
X021925Y020611D01*
X023303Y020611D01*
X023303Y018249D01*
X021925Y018249D01*
X022364Y018680D02*
X022364Y020180D01*
X022864Y020180D01*
X022864Y018680D01*
X022364Y018680D01*
X023864Y018458D02*
X023864Y019402D01*
X024364Y019402D01*
X024364Y018458D01*
X023864Y018458D01*
X023864Y019458D02*
X024364Y019458D01*
X024364Y020402D01*
X023864Y020402D01*
X023864Y019458D01*
X018864Y019402D02*
X018864Y018458D01*
X018364Y018458D01*
X018364Y019402D01*
X018864Y019402D01*
X017864Y019402D02*
X017864Y018458D01*
X017364Y018458D01*
X017364Y019402D01*
X017864Y019402D01*
X014364Y019402D02*
X014364Y018458D01*
X013864Y018458D01*
X013864Y019402D01*
X014364Y019402D01*
X014364Y019458D02*
X013864Y019458D01*
X013864Y020402D01*
X014364Y020402D01*
X014364Y019458D01*
X012864Y020180D02*
X012864Y018680D01*
X012364Y018680D01*
X012364Y020180D01*
X012864Y020180D01*
X013303Y020611D02*
X011925Y020611D01*
X011925Y018249D01*
X013303Y018249D01*
X013303Y020611D01*
X010586Y020680D02*
X009642Y020680D01*
X009642Y021180D01*
X010586Y021180D01*
X010586Y020680D01*
X010364Y020402D02*
X009864Y020402D01*
X009864Y019458D01*
X010364Y019458D01*
X010364Y020402D01*
X009303Y020611D02*
X007925Y020611D01*
X007925Y018249D01*
X009303Y018249D01*
X009303Y020611D01*
X008864Y020180D02*
X008364Y020180D01*
X008364Y018680D01*
X008864Y018680D01*
X008864Y020180D01*
X009864Y019402D02*
X010364Y019402D01*
X010364Y018458D01*
X009864Y018458D01*
X009864Y019402D01*
X005086Y018680D02*
X005086Y018180D01*
X004142Y018180D01*
X004142Y018680D01*
X005086Y018680D01*
X005086Y017930D02*
X004142Y017930D01*
X004142Y017430D01*
X005086Y017430D01*
X005086Y017930D01*
X010892Y014680D02*
X011836Y014680D01*
X011836Y014180D01*
X010892Y014180D01*
X010892Y014680D01*
X006345Y014603D02*
X004810Y014603D01*
X006345Y014603D02*
X006345Y009879D01*
X004810Y009879D01*
X003156Y009879D02*
X001660Y009879D01*
X000125Y009879D01*
X000125Y014603D01*
X001660Y014603D01*
X003156Y014603D01*
X001660Y014603D02*
X001660Y009879D01*
X006864Y010958D02*
X006864Y011902D01*
X007364Y011902D01*
X007364Y010958D01*
X006864Y010958D01*
X007838Y011076D02*
X008390Y011076D01*
X008390Y011784D01*
X007838Y011784D01*
X007838Y011076D01*
X008563Y011095D02*
X008563Y011765D01*
X009665Y011765D01*
X009665Y011095D01*
X008563Y011095D01*
X010029Y010879D02*
X010029Y011981D01*
X010699Y011981D01*
X010699Y010879D01*
X010029Y010879D01*
X009864Y010402D02*
X010364Y010402D01*
X010364Y009458D01*
X009864Y009458D01*
X009864Y010402D01*
X011529Y008981D02*
X012199Y008981D01*
X012199Y007879D01*
X011529Y007879D01*
X011529Y008981D01*
X012313Y008265D02*
X013415Y008265D01*
X013415Y007595D01*
X012313Y007595D01*
X012313Y008265D01*
X013614Y007958D02*
X014114Y007958D01*
X014114Y008902D01*
X013614Y008902D01*
X013614Y007958D01*
X011586Y006180D02*
X010642Y006180D01*
X010642Y005680D01*
X011586Y005680D01*
X011586Y006180D01*
X012864Y005902D02*
X013364Y005902D01*
X013364Y004958D01*
X012864Y004958D01*
X012864Y005902D01*
X012864Y004902D02*
X013364Y004902D01*
X013864Y004902D01*
X013864Y003958D01*
X013364Y003958D01*
X013364Y004902D01*
X013364Y003958D01*
X012864Y003958D01*
X012864Y004902D01*
X009364Y004902D02*
X009364Y003958D01*
X008864Y003958D01*
X008864Y004902D01*
X009364Y004902D01*
X008864Y004902D02*
X008364Y004902D01*
X008364Y003958D01*
X008864Y003958D01*
X008864Y004902D01*
X009864Y002902D02*
X010364Y002902D01*
X010364Y001958D01*
X009864Y001958D01*
X009864Y002902D01*
X011331Y002461D02*
X011331Y002402D01*
X011724Y002040D02*
X012901Y002040D01*
X012901Y002131D01*
X012901Y002729D02*
X012901Y002812D01*
X011736Y002812D01*
X017358Y003997D02*
X017358Y004863D01*
X017870Y004863D01*
X017870Y004174D01*
X017614Y004174D01*
X017614Y004046D01*
X017358Y003997D02*
X017870Y003997D01*
X017870Y004174D01*
X018364Y003958D02*
X018364Y004902D01*
X018864Y004902D01*
X018864Y003958D01*
X018364Y003958D01*
X018086Y005180D02*
X017142Y005180D01*
X017142Y005680D01*
X018086Y005680D01*
X018086Y005180D01*
X022864Y007458D02*
X022864Y008402D01*
X023364Y008402D01*
X023364Y007458D01*
X022864Y007458D01*
X021364Y007958D02*
X020864Y007958D01*
X020864Y008902D01*
X021364Y008902D01*
X021364Y007958D01*
X020864Y007958D02*
X020364Y007958D01*
X020364Y008902D01*
X020864Y008902D01*
X020864Y007958D01*
X019086Y010180D02*
X018142Y010180D01*
X018142Y010680D01*
X019086Y010680D01*
X019086Y010180D01*
X018429Y011675D02*
X017799Y011675D01*
X017799Y012935D01*
X018429Y012935D01*
X018429Y011675D01*
X018614Y011708D02*
X019114Y011708D01*
X019114Y012652D01*
X018614Y012652D01*
X018614Y011708D01*
X013929Y012060D02*
X013929Y010800D01*
X013299Y010800D01*
X013299Y012060D01*
X013929Y012060D01*
X031114Y013958D02*
X031114Y014902D01*
X031614Y014902D01*
X031614Y013958D01*
X031114Y013958D01*
X036892Y016555D02*
X036892Y017055D01*
X037836Y017055D01*
X037836Y016555D01*
X036892Y016555D01*
D14*
X038516Y016491D02*
X038766Y016241D01*
X038516Y015991D01*
X038516Y015491D01*
X038766Y015241D01*
X038516Y014991D01*
X038516Y014491D01*
X038766Y014241D01*
X038516Y013991D01*
X038516Y013491D01*
X038766Y013241D01*
X038516Y012991D01*
X038516Y012491D01*
X038766Y012241D01*
X038516Y011991D01*
X038516Y011491D01*
X038766Y011241D01*
X038516Y010991D01*
X038516Y010491D01*
X038766Y010241D01*
X038516Y009991D01*
X038516Y009491D01*
X038766Y009241D01*
X038516Y008991D01*
X038516Y008491D01*
X038766Y008241D01*
X038516Y007991D01*
X038516Y007491D01*
X038766Y007241D01*
X038516Y006991D01*
X038516Y006491D01*
X038766Y006241D01*
X039266Y006241D01*
X039516Y006491D01*
X039516Y006991D01*
X039266Y007241D01*
X039516Y007491D01*
X039516Y007991D01*
X039266Y008241D01*
X039516Y008491D01*
X039516Y008991D01*
X039266Y009241D01*
X039516Y009491D01*
X039516Y009991D01*
X039266Y010241D01*
X039516Y010491D01*
X039516Y010991D01*
X039266Y011241D01*
X039516Y011491D01*
X039516Y011991D01*
X039266Y012241D01*
X039516Y012491D01*
X039516Y012991D01*
X039266Y013241D01*
X039516Y013491D01*
X039516Y013991D01*
X039266Y014241D01*
X039516Y014491D01*
X039516Y014991D01*
X039266Y015241D01*
X039516Y015491D01*
X039516Y015991D01*
X039266Y016241D01*
X039516Y016491D01*
X039516Y016991D01*
X039266Y017241D01*
X039516Y017491D01*
X039516Y017991D01*
X039266Y018241D01*
X038766Y018241D01*
X038516Y017991D01*
X038516Y017491D01*
X038766Y017241D01*
X038516Y016991D01*
X038516Y016491D01*
X033614Y020180D02*
X033364Y019930D01*
X032864Y019930D01*
X032614Y020180D01*
X032364Y019930D01*
X031864Y019930D01*
X031614Y020180D01*
X031364Y019930D01*
X030864Y019930D01*
X030614Y020180D01*
X030364Y019930D01*
X029864Y019930D01*
X029614Y020180D01*
X029364Y019930D01*
X028864Y019930D01*
X028614Y020180D01*
X028364Y019930D01*
X027864Y019930D01*
X027614Y020180D01*
X027364Y019930D01*
X026864Y019930D01*
X026614Y020180D01*
X026364Y019930D01*
X025864Y019930D01*
X025614Y020180D01*
X025614Y020680D01*
X025864Y020930D01*
X026364Y020930D01*
X026614Y020680D01*
X026864Y020930D01*
X027364Y020930D01*
X027614Y020680D01*
X027864Y020930D01*
X028364Y020930D01*
X028614Y020680D01*
X028864Y020930D01*
X029364Y020930D01*
X029614Y020680D01*
X029864Y020930D01*
X030364Y020930D01*
X030614Y020680D01*
X030864Y020930D01*
X031364Y020930D01*
X031614Y020680D01*
X031864Y020930D01*
X032364Y020930D01*
X032614Y020680D01*
X032864Y020930D01*
X033364Y020930D01*
X033614Y020680D01*
X033614Y020180D01*
X025004Y013662D02*
X025004Y010198D01*
X024846Y010040D01*
X021382Y010040D01*
X021224Y010198D01*
X021224Y013662D01*
X021382Y013820D01*
X024846Y013820D01*
X025004Y013662D01*
X010181Y014249D02*
X010181Y014430D01*
X010059Y014338D01*
X010181Y014430D02*
X010181Y014611D01*
X010059Y014516D02*
X010175Y014440D01*
X017433Y020363D02*
X017614Y020363D01*
X017522Y020485D01*
X017614Y020363D02*
X017795Y020363D01*
X017700Y020485D02*
X017624Y020369D01*
X018433Y020363D02*
X018614Y020363D01*
X018522Y020485D01*
X018614Y020363D02*
X018795Y020363D01*
X018700Y020485D02*
X018624Y020369D01*
X011724Y005040D02*
X010504Y005040D01*
X010504Y003830D01*
X011724Y003830D01*
X011724Y005040D01*
X023614Y002680D02*
X023614Y002180D01*
X023864Y001930D01*
X024364Y001930D01*
X024614Y002180D01*
X024864Y001930D01*
X025364Y001930D01*
X025614Y002180D01*
X025864Y001930D01*
X026364Y001930D01*
X026614Y002180D01*
X026864Y001930D01*
X027364Y001930D01*
X027614Y002180D01*
X027864Y001930D01*
X028364Y001930D01*
X028614Y002180D01*
X028614Y002680D01*
X028364Y002930D01*
X027864Y002930D01*
X027614Y002680D01*
X027364Y002930D01*
X026864Y002930D01*
X026614Y002680D01*
X026364Y002930D01*
X025864Y002930D01*
X025614Y002680D01*
X025364Y002930D01*
X024864Y002930D01*
X024614Y002680D01*
X024364Y002930D01*
X023864Y002930D01*
X023614Y002680D01*
X030614Y002680D02*
X030614Y002180D01*
X030864Y001930D01*
X031364Y001930D01*
X031614Y002180D01*
X031864Y001930D01*
X032364Y001930D01*
X032614Y002180D01*
X032864Y001930D01*
X033364Y001930D01*
X033614Y002180D01*
X033614Y002680D01*
X033364Y002930D01*
X032864Y002930D01*
X032614Y002680D01*
X032364Y002930D01*
X031864Y002930D01*
X031614Y002680D01*
X031364Y002930D01*
X030864Y002930D01*
X030614Y002680D01*
D15*
X010760Y004784D03*
M02*
