G75*
%MOIN*%
%OFA0B0*%
%FSLAX24Y24*%
%IPPOS*%
%LPD*%
%AMOC8*
5,1,8,0,0,1.08239X$1,22.5*
%
%ADD10C,0.1340*%
%ADD11C,0.0740*%
%ADD12C,0.1380*%
%ADD13C,0.0907*%
%ADD14C,0.0820*%
%ADD15C,0.2380*%
%ADD16C,0.0674*%
%ADD17R,0.0820X0.0820*%
%ADD18C,0.0436*%
%ADD19C,0.0350*%
%ADD20C,0.0440*%
%ADD21C,0.0300*%
D10*
X054370Y007528D03*
X054370Y020324D03*
D11*
X005826Y012733D03*
X005046Y012733D03*
X005046Y011749D03*
X005826Y011749D03*
D12*
X003976Y009871D03*
X003976Y014611D03*
D13*
X008614Y018150D03*
X012614Y018150D03*
X012614Y020710D03*
X008614Y020710D03*
X022614Y020710D03*
X022614Y018150D03*
D14*
X027114Y020430D03*
X028114Y020430D03*
X029114Y020430D03*
X030114Y020430D03*
X031114Y020430D03*
X032114Y020430D03*
X033114Y020430D03*
X039016Y017741D03*
X039016Y016741D03*
X039016Y015741D03*
X039016Y014741D03*
X039016Y013741D03*
X039016Y012741D03*
X039016Y011741D03*
X039016Y010741D03*
X039016Y009741D03*
X039016Y008741D03*
X039016Y007741D03*
X039016Y006741D03*
X033114Y002430D03*
X032114Y002430D03*
X031114Y002430D03*
X028114Y002430D03*
X027114Y002430D03*
X026114Y002430D03*
X025114Y002430D03*
X024114Y002430D03*
D15*
X003583Y002399D03*
X039016Y002399D03*
X035079Y022084D03*
X003583Y022084D03*
D16*
X006614Y002430D03*
D17*
X026114Y020430D03*
D18*
X025614Y022930D03*
X026614Y022930D03*
X027614Y022930D03*
X028614Y022930D03*
X029614Y022930D03*
X030614Y022930D03*
X031614Y022930D03*
X032614Y022930D03*
X024614Y022930D03*
X023614Y022930D03*
X022614Y022930D03*
X021614Y022930D03*
X020614Y022930D03*
X019614Y022930D03*
X018614Y022930D03*
X017614Y022930D03*
X016614Y022930D03*
X015614Y022930D03*
X014614Y022930D03*
X013614Y022930D03*
X012614Y022930D03*
X011614Y022930D03*
X010614Y022930D03*
X009614Y022930D03*
X008614Y022930D03*
X007614Y022930D03*
X006614Y022930D03*
X005614Y022930D03*
X002614Y018930D03*
X002614Y017930D03*
X002614Y016930D03*
X002614Y015930D03*
X002614Y014930D03*
X002614Y013930D03*
X002614Y012930D03*
X002614Y011930D03*
X002614Y010930D03*
X002614Y009930D03*
X002614Y008930D03*
X002614Y007930D03*
X002614Y006930D03*
X002614Y005930D03*
X002614Y004930D03*
D19*
X009114Y003430D03*
X009614Y003430D03*
X010114Y003430D03*
X009614Y002930D03*
X013114Y003430D03*
X013614Y003430D03*
X018114Y003430D03*
X018614Y005430D03*
X010114Y005930D03*
X008614Y008930D03*
X010864Y009930D03*
X010864Y010430D03*
X012114Y010430D03*
X012614Y010430D03*
X013364Y010180D03*
X013864Y010180D03*
X013614Y009430D03*
X014114Y009430D03*
X012114Y009430D03*
X011614Y009430D03*
X007864Y010430D03*
X007364Y010430D03*
X006864Y010430D03*
X009614Y012305D03*
X009864Y013180D03*
X012239Y014430D03*
X014989Y014555D03*
X015989Y015555D03*
X018114Y016680D03*
X018239Y017305D03*
X018614Y017930D03*
X017614Y017930D03*
X023864Y015930D03*
X027864Y015555D03*
X027864Y014930D03*
X027864Y014430D03*
X031989Y014430D03*
X031989Y013930D03*
X031989Y013180D03*
X031989Y012555D03*
X031989Y011930D03*
X031989Y011430D03*
X028114Y011680D03*
X023114Y010930D03*
X022739Y010930D03*
X019864Y012180D03*
X018114Y013430D03*
X017614Y010430D03*
X005364Y017305D03*
X005364Y017680D03*
X005364Y018055D03*
X005364Y018430D03*
X005364Y018805D03*
X024989Y019055D03*
X035989Y005305D03*
X036489Y005305D03*
X036989Y005305D03*
X037489Y005305D03*
D20*
X020864Y005680D03*
X018864Y007680D03*
X014989Y011680D03*
X015614Y013680D03*
D21*
X016239Y013680D03*
X016614Y014055D03*
X015489Y014430D03*
X015864Y014680D03*
X018864Y013680D03*
X019864Y014055D03*
X019489Y014305D03*
X020239Y013805D03*
X022114Y013305D03*
X022739Y012930D03*
X023364Y012180D03*
X024614Y013180D03*
X022489Y015055D03*
X021114Y014930D03*
X020864Y015305D03*
X020614Y015680D03*
X019614Y015555D03*
X021114Y016430D03*
X020864Y016680D03*
X020614Y016930D03*
X020239Y016805D03*
X023114Y016430D03*
X023364Y016680D03*
X023614Y016930D03*
X024614Y016180D03*
X024989Y016180D03*
X025364Y016180D03*
X025739Y016180D03*
X025864Y017430D03*
X026239Y017430D03*
X026864Y017680D03*
X027239Y017680D03*
X024864Y018055D03*
X023614Y018055D03*
X013614Y017555D03*
X012614Y016930D03*
X011739Y013055D03*
X011614Y012305D03*
X016114Y013055D03*
X019364Y012805D03*
X021614Y011430D03*
X021739Y010555D03*
X022239Y008680D03*
X021239Y007680D03*
X020614Y007680D03*
X022739Y007180D03*
X022989Y006805D03*
X023614Y006430D03*
X022864Y005680D03*
X022614Y005430D03*
X024114Y004430D03*
X025739Y005805D03*
X026864Y005805D03*
X027239Y006305D03*
X025989Y006555D03*
X025614Y007055D03*
X024989Y007305D03*
X026739Y007305D03*
X028364Y007180D03*
X028614Y007555D03*
X028614Y008055D03*
X028239Y008680D03*
X026989Y008680D03*
X025864Y008680D03*
X029114Y005930D03*
X029489Y005930D03*
X027614Y004555D03*
X027114Y004430D03*
X033864Y009555D03*
X036489Y013055D03*
X038114Y014055D03*
X037614Y014430D03*
X037114Y014805D03*
X035864Y015555D03*
X014114Y006805D03*
X012114Y006930D03*
X010989Y006930D03*
X014114Y005805D03*
X012614Y003930D03*
X011114Y003430D03*
M02*
