G75*
%MOIN*%
%OFA0B0*%
%FSLAX24Y24*%
%IPPOS*%
%LPD*%
%AMOC8*
5,1,8,0,0,1.08239X$1,22.5*
%
%ADD10C,0.0660*%
%ADD11C,0.1300*%
%ADD12C,0.0827*%
%ADD13C,0.0740*%
%ADD14C,0.2300*%
%ADD15C,0.0594*%
%ADD16R,0.0740X0.0740*%
%ADD17C,0.0060*%
%ADD18C,0.0356*%
%ADD19C,0.0160*%
%ADD20C,0.0270*%
%ADD21C,0.0360*%
%ADD22C,0.0320*%
%ADD23C,0.0220*%
%ADD24C,0.0240*%
%ADD25C,0.0100*%
D10*
X005046Y011749D03*
X005826Y011749D03*
X005826Y012733D03*
X005046Y012733D03*
D11*
X003976Y014611D03*
X003976Y009871D03*
D12*
X008614Y018150D03*
X012614Y018150D03*
X012614Y020710D03*
X008614Y020710D03*
X022614Y020710D03*
X022614Y018150D03*
D13*
X027114Y020430D03*
X028114Y020430D03*
X029114Y020430D03*
X030114Y020430D03*
X031114Y020430D03*
X032114Y020430D03*
X033114Y020430D03*
X039016Y017741D03*
X039016Y016741D03*
X039016Y015741D03*
X039016Y014741D03*
X039016Y013741D03*
X039016Y012741D03*
X039016Y011741D03*
X039016Y010741D03*
X039016Y009741D03*
X039016Y008741D03*
X039016Y007741D03*
X039016Y006741D03*
X033114Y002430D03*
X032114Y002430D03*
X031114Y002430D03*
X028114Y002430D03*
X027114Y002430D03*
X026114Y002430D03*
X025114Y002430D03*
X024114Y002430D03*
D14*
X039016Y002399D03*
X003583Y002399D03*
X003583Y022084D03*
X035079Y022084D03*
D15*
X006614Y002430D03*
D16*
X026114Y020430D03*
D17*
X033114Y021930D02*
X033114Y023622D01*
X002795Y023622D01*
X002697Y023616D01*
X002508Y023565D01*
X002338Y023467D01*
X002199Y023328D01*
X002101Y023158D01*
X002050Y022969D01*
X002044Y022871D01*
X002044Y004430D01*
X004614Y004430D01*
X005239Y005055D01*
X005239Y010305D01*
X004239Y011305D01*
X004239Y013055D01*
X005239Y014055D01*
X005239Y015305D01*
X004489Y016055D01*
X004489Y020055D01*
X006114Y021930D01*
X033114Y021930D01*
X033114Y021958D02*
X004856Y021958D01*
X004851Y021900D02*
X006088Y021900D01*
X006037Y021841D02*
X004839Y021841D01*
X004850Y021896D02*
X004863Y022021D01*
X004863Y022054D01*
X003613Y022054D01*
X003613Y022114D01*
X004863Y022114D01*
X004863Y022146D01*
X004850Y022272D01*
X004826Y022395D01*
X004789Y022515D01*
X004741Y022631D01*
X004682Y022742D01*
X004612Y022847D01*
X004532Y022944D01*
X004443Y023033D01*
X004346Y023113D01*
X004241Y023183D01*
X004130Y023242D01*
X004014Y023290D01*
X003894Y023327D01*
X003771Y023351D01*
X003645Y023364D01*
X003613Y023364D01*
X003613Y022114D01*
X003553Y022114D01*
X003553Y023364D01*
X003520Y023364D01*
X003395Y023351D01*
X003271Y023327D01*
X003151Y023290D01*
X003035Y023242D01*
X002924Y023183D01*
X002819Y023113D01*
X002722Y023033D01*
X002633Y022944D01*
X002553Y022847D01*
X002483Y022742D01*
X002424Y022631D01*
X002376Y022515D01*
X002339Y022395D01*
X002315Y022272D01*
X002303Y022146D01*
X002303Y022114D01*
X003553Y022114D01*
X003553Y022054D01*
X003613Y022054D01*
X003613Y020804D01*
X003645Y020804D01*
X003771Y020816D01*
X003894Y020840D01*
X004014Y020877D01*
X004130Y020925D01*
X004241Y020984D01*
X004346Y021054D01*
X004443Y021134D01*
X004532Y021223D01*
X004612Y021320D01*
X004682Y021425D01*
X004741Y021536D01*
X004789Y021652D01*
X004826Y021772D01*
X004850Y021896D01*
X004828Y021783D02*
X005986Y021783D01*
X005936Y021724D02*
X004811Y021724D01*
X004793Y021666D02*
X005885Y021666D01*
X005834Y021607D02*
X004771Y021607D01*
X004746Y021549D02*
X005783Y021549D01*
X005733Y021490D02*
X004717Y021490D01*
X004685Y021432D02*
X005682Y021432D01*
X005631Y021373D02*
X004647Y021373D01*
X004607Y021315D02*
X005581Y021315D01*
X005530Y021256D02*
X004559Y021256D01*
X004507Y021198D02*
X005479Y021198D01*
X005429Y021139D02*
X004448Y021139D01*
X004378Y021081D02*
X005378Y021081D01*
X005327Y021022D02*
X004298Y021022D01*
X004203Y020964D02*
X005276Y020964D01*
X005226Y020905D02*
X004082Y020905D01*
X003914Y020847D02*
X005175Y020847D01*
X005124Y020788D02*
X002044Y020788D01*
X002044Y020730D02*
X005074Y020730D01*
X005023Y020671D02*
X002044Y020671D01*
X002044Y020613D02*
X004972Y020613D01*
X004922Y020554D02*
X002044Y020554D01*
X002044Y020496D02*
X004871Y020496D01*
X004820Y020437D02*
X002044Y020437D01*
X002044Y020379D02*
X004769Y020379D01*
X004719Y020320D02*
X002044Y020320D01*
X002044Y020262D02*
X004668Y020262D01*
X004617Y020203D02*
X002044Y020203D01*
X002044Y020145D02*
X004567Y020145D01*
X004516Y020086D02*
X002044Y020086D01*
X002044Y020028D02*
X004489Y020028D01*
X004489Y019969D02*
X002044Y019969D01*
X002044Y019911D02*
X004489Y019911D01*
X004489Y019852D02*
X002044Y019852D01*
X002044Y019794D02*
X004489Y019794D01*
X004489Y019735D02*
X002044Y019735D01*
X002044Y019677D02*
X004489Y019677D01*
X004489Y019618D02*
X002044Y019618D01*
X002044Y019560D02*
X004489Y019560D01*
X004489Y019501D02*
X002044Y019501D01*
X002044Y019443D02*
X004489Y019443D01*
X004489Y019384D02*
X002044Y019384D01*
X002044Y019326D02*
X004489Y019326D01*
X004489Y019267D02*
X002044Y019267D01*
X002044Y019209D02*
X004489Y019209D01*
X004489Y019150D02*
X002044Y019150D01*
X002044Y019092D02*
X004489Y019092D01*
X004489Y019033D02*
X002044Y019033D01*
X002044Y018975D02*
X004489Y018975D01*
X004489Y018916D02*
X002044Y018916D01*
X002044Y018858D02*
X004489Y018858D01*
X004489Y018799D02*
X002044Y018799D01*
X002044Y018741D02*
X004489Y018741D01*
X004489Y018682D02*
X002044Y018682D01*
X002044Y018624D02*
X004489Y018624D01*
X004489Y018565D02*
X002044Y018565D01*
X002044Y018507D02*
X004489Y018507D01*
X004489Y018448D02*
X002044Y018448D01*
X002044Y018390D02*
X004489Y018390D01*
X004489Y018331D02*
X002044Y018331D01*
X002044Y018273D02*
X004489Y018273D01*
X004489Y018214D02*
X002044Y018214D01*
X002044Y018156D02*
X004489Y018156D01*
X004489Y018097D02*
X002044Y018097D01*
X002044Y018039D02*
X004489Y018039D01*
X004489Y017980D02*
X002044Y017980D01*
X002044Y017922D02*
X004489Y017922D01*
X004489Y017863D02*
X002044Y017863D01*
X002044Y017805D02*
X004489Y017805D01*
X004489Y017746D02*
X002044Y017746D01*
X002044Y017688D02*
X004489Y017688D01*
X004489Y017629D02*
X002044Y017629D01*
X002044Y017571D02*
X004489Y017571D01*
X004489Y017512D02*
X002044Y017512D01*
X002044Y017454D02*
X004489Y017454D01*
X004489Y017395D02*
X002044Y017395D01*
X002044Y017337D02*
X004489Y017337D01*
X004489Y017278D02*
X002044Y017278D01*
X002044Y017220D02*
X004489Y017220D01*
X004489Y017161D02*
X002044Y017161D01*
X002044Y017103D02*
X004489Y017103D01*
X004489Y017044D02*
X002044Y017044D01*
X002044Y016986D02*
X004489Y016986D01*
X004489Y016927D02*
X002044Y016927D01*
X002044Y016869D02*
X004489Y016869D01*
X004489Y016810D02*
X002044Y016810D01*
X002044Y016752D02*
X004489Y016752D01*
X004489Y016693D02*
X002044Y016693D01*
X002044Y016635D02*
X004489Y016635D01*
X004489Y016576D02*
X002044Y016576D01*
X002044Y016518D02*
X004489Y016518D01*
X004489Y016459D02*
X002044Y016459D01*
X002044Y016401D02*
X004489Y016401D01*
X004489Y016342D02*
X002044Y016342D01*
X002044Y016284D02*
X004489Y016284D01*
X004489Y016225D02*
X002044Y016225D01*
X002044Y016167D02*
X004489Y016167D01*
X004489Y016108D02*
X002044Y016108D01*
X002044Y016050D02*
X004494Y016050D01*
X004553Y015991D02*
X002044Y015991D01*
X002044Y015933D02*
X004611Y015933D01*
X004670Y015874D02*
X002044Y015874D01*
X002044Y015816D02*
X004728Y015816D01*
X004787Y015757D02*
X002044Y015757D01*
X002044Y015699D02*
X004845Y015699D01*
X004904Y015640D02*
X002044Y015640D01*
X002044Y015582D02*
X004962Y015582D01*
X005021Y015523D02*
X002044Y015523D01*
X002044Y015465D02*
X005079Y015465D01*
X005138Y015406D02*
X002044Y015406D01*
X002044Y015348D02*
X003716Y015348D01*
X003725Y015351D02*
X003631Y015312D01*
X003542Y015261D01*
X003461Y015199D01*
X003389Y015126D01*
X003326Y015045D01*
X003275Y014957D01*
X003236Y014862D01*
X003210Y014764D01*
X003196Y014662D01*
X003196Y014641D01*
X003946Y014641D01*
X003946Y014581D01*
X003196Y014581D01*
X003196Y014560D01*
X003210Y014459D01*
X003236Y014360D01*
X003275Y014265D01*
X003326Y014177D01*
X003389Y014096D01*
X003461Y014023D01*
X003542Y013961D01*
X003631Y013910D01*
X003725Y013871D01*
X003824Y013844D01*
X003925Y013831D01*
X003946Y013831D01*
X003946Y014581D01*
X004006Y014581D01*
X004006Y013831D01*
X004027Y013831D01*
X004129Y013844D01*
X004228Y013871D01*
X004322Y013910D01*
X004411Y013961D01*
X004492Y014023D01*
X004564Y014096D01*
X004626Y014177D01*
X004677Y014265D01*
X004716Y014360D01*
X004743Y014459D01*
X004756Y014560D01*
X004756Y014581D01*
X004006Y014581D01*
X004006Y014641D01*
X003946Y014641D01*
X003946Y015391D01*
X003925Y015391D01*
X003824Y015378D01*
X003725Y015351D01*
X003591Y015289D02*
X002044Y015289D01*
X002044Y015231D02*
X003502Y015231D01*
X003434Y015172D02*
X002044Y015172D01*
X002044Y015114D02*
X003379Y015114D01*
X003334Y015055D02*
X002044Y015055D01*
X002044Y014997D02*
X003298Y014997D01*
X003267Y014938D02*
X002044Y014938D01*
X002044Y014880D02*
X003243Y014880D01*
X003225Y014821D02*
X002044Y014821D01*
X002044Y014763D02*
X003209Y014763D01*
X003202Y014704D02*
X002044Y014704D01*
X002044Y014646D02*
X003196Y014646D01*
X003200Y014529D02*
X002044Y014529D01*
X002044Y014587D02*
X003946Y014587D01*
X003946Y014529D02*
X004006Y014529D01*
X004006Y014587D02*
X005239Y014587D01*
X005239Y014529D02*
X004752Y014529D01*
X004744Y014470D02*
X005239Y014470D01*
X005239Y014412D02*
X004730Y014412D01*
X004714Y014353D02*
X005239Y014353D01*
X005239Y014295D02*
X004689Y014295D01*
X004660Y014236D02*
X005239Y014236D01*
X005239Y014178D02*
X004627Y014178D01*
X004582Y014119D02*
X005239Y014119D01*
X005239Y014061D02*
X004529Y014061D01*
X004464Y014002D02*
X005186Y014002D01*
X005128Y013944D02*
X004380Y013944D01*
X004262Y013885D02*
X005069Y013885D01*
X005011Y013827D02*
X002044Y013827D01*
X002044Y013885D02*
X003691Y013885D01*
X003572Y013944D02*
X002044Y013944D01*
X002044Y014002D02*
X003489Y014002D01*
X003424Y014061D02*
X002044Y014061D01*
X002044Y014119D02*
X003371Y014119D01*
X003326Y014178D02*
X002044Y014178D01*
X002044Y014236D02*
X003292Y014236D01*
X003263Y014295D02*
X002044Y014295D01*
X002044Y014353D02*
X003239Y014353D01*
X003222Y014412D02*
X002044Y014412D01*
X002044Y014470D02*
X003208Y014470D01*
X003946Y014470D02*
X004006Y014470D01*
X004006Y014412D02*
X003946Y014412D01*
X003946Y014353D02*
X004006Y014353D01*
X004006Y014295D02*
X003946Y014295D01*
X003946Y014236D02*
X004006Y014236D01*
X004006Y014178D02*
X003946Y014178D01*
X003946Y014119D02*
X004006Y014119D01*
X004006Y014061D02*
X003946Y014061D01*
X003946Y014002D02*
X004006Y014002D01*
X004006Y013944D02*
X003946Y013944D01*
X003946Y013885D02*
X004006Y013885D01*
X004601Y013417D02*
X002044Y013417D01*
X002044Y013359D02*
X004543Y013359D01*
X004484Y013300D02*
X002044Y013300D01*
X002044Y013242D02*
X004426Y013242D01*
X004367Y013183D02*
X002044Y013183D01*
X002044Y013125D02*
X004309Y013125D01*
X004250Y013066D02*
X002044Y013066D01*
X002044Y013008D02*
X004239Y013008D01*
X004239Y012949D02*
X002044Y012949D01*
X002044Y012891D02*
X004239Y012891D01*
X004239Y012832D02*
X002044Y012832D01*
X002044Y012774D02*
X004239Y012774D01*
X004239Y012715D02*
X002044Y012715D01*
X002044Y012657D02*
X004239Y012657D01*
X004239Y012598D02*
X002044Y012598D01*
X002044Y012540D02*
X004239Y012540D01*
X004239Y012481D02*
X002044Y012481D01*
X002044Y012423D02*
X004239Y012423D01*
X004239Y012364D02*
X002044Y012364D01*
X002044Y012306D02*
X004239Y012306D01*
X004239Y012247D02*
X002044Y012247D01*
X002044Y012189D02*
X004239Y012189D01*
X004239Y012130D02*
X002044Y012130D01*
X002044Y012072D02*
X004239Y012072D01*
X004239Y012013D02*
X002044Y012013D01*
X002044Y011955D02*
X004239Y011955D01*
X004239Y011896D02*
X002044Y011896D01*
X002044Y011838D02*
X004239Y011838D01*
X004239Y011779D02*
X002044Y011779D01*
X002044Y011721D02*
X004239Y011721D01*
X004239Y011662D02*
X002044Y011662D01*
X002044Y011604D02*
X004239Y011604D01*
X004239Y011545D02*
X002044Y011545D01*
X002044Y011487D02*
X004239Y011487D01*
X004239Y011428D02*
X002044Y011428D01*
X002044Y011370D02*
X004239Y011370D01*
X004239Y011311D02*
X002044Y011311D01*
X002044Y011253D02*
X004292Y011253D01*
X004350Y011194D02*
X002044Y011194D01*
X002044Y011136D02*
X004409Y011136D01*
X004467Y011077D02*
X002044Y011077D01*
X002044Y011019D02*
X004526Y011019D01*
X004584Y010960D02*
X002044Y010960D01*
X002044Y010902D02*
X004643Y010902D01*
X004701Y010843D02*
X002044Y010843D01*
X002044Y010785D02*
X004760Y010785D01*
X004818Y010726D02*
X002044Y010726D01*
X002044Y010668D02*
X004877Y010668D01*
X004935Y010609D02*
X004233Y010609D01*
X004228Y010611D02*
X004129Y010638D01*
X004027Y010651D01*
X004006Y010651D01*
X004006Y009901D01*
X003946Y009901D01*
X003946Y009841D01*
X003196Y009841D01*
X003196Y009820D01*
X003210Y009719D01*
X003236Y009620D01*
X003275Y009525D01*
X003326Y009437D01*
X003389Y009356D01*
X003461Y009283D01*
X003542Y009221D01*
X003631Y009170D01*
X003725Y009131D01*
X003824Y009104D01*
X003925Y009091D01*
X003946Y009091D01*
X003946Y009841D01*
X004006Y009841D01*
X004006Y009091D01*
X004027Y009091D01*
X004129Y009104D01*
X004228Y009131D01*
X004322Y009170D01*
X004411Y009221D01*
X004492Y009283D01*
X004564Y009356D01*
X004626Y009437D01*
X004677Y009525D01*
X004716Y009620D01*
X004743Y009719D01*
X004756Y009820D01*
X004756Y009841D01*
X004006Y009841D01*
X004006Y009901D01*
X004756Y009901D01*
X004756Y009922D01*
X004743Y010024D01*
X005239Y010024D01*
X005239Y009966D02*
X004751Y009966D01*
X004743Y010024D02*
X004716Y010122D01*
X004677Y010217D01*
X004626Y010305D01*
X004564Y010386D01*
X004492Y010459D01*
X004411Y010521D01*
X004322Y010572D01*
X004228Y010611D01*
X004359Y010551D02*
X004994Y010551D01*
X005052Y010492D02*
X004448Y010492D01*
X004517Y010434D02*
X005111Y010434D01*
X005169Y010375D02*
X004573Y010375D01*
X004618Y010317D02*
X005228Y010317D01*
X005239Y010258D02*
X004653Y010258D01*
X004684Y010200D02*
X005239Y010200D01*
X005239Y010141D02*
X004709Y010141D01*
X004727Y010083D02*
X005239Y010083D01*
X005239Y009907D02*
X004756Y009907D01*
X004752Y009790D02*
X005239Y009790D01*
X005239Y009732D02*
X004745Y009732D01*
X004731Y009673D02*
X005239Y009673D01*
X005239Y009615D02*
X004714Y009615D01*
X004690Y009556D02*
X005239Y009556D01*
X005239Y009498D02*
X004661Y009498D01*
X004628Y009439D02*
X005239Y009439D01*
X005239Y009381D02*
X004583Y009381D01*
X004530Y009322D02*
X005239Y009322D01*
X005239Y009264D02*
X004466Y009264D01*
X004383Y009205D02*
X005239Y009205D01*
X005239Y009147D02*
X004265Y009147D01*
X004006Y009147D02*
X003946Y009147D01*
X003946Y009205D02*
X004006Y009205D01*
X004006Y009264D02*
X003946Y009264D01*
X003946Y009322D02*
X004006Y009322D01*
X004006Y009381D02*
X003946Y009381D01*
X003946Y009439D02*
X004006Y009439D01*
X004006Y009498D02*
X003946Y009498D01*
X003946Y009556D02*
X004006Y009556D01*
X004006Y009615D02*
X003946Y009615D01*
X003946Y009673D02*
X004006Y009673D01*
X004006Y009732D02*
X003946Y009732D01*
X003946Y009790D02*
X004006Y009790D01*
X004006Y009849D02*
X005239Y009849D01*
X004006Y009907D02*
X003946Y009907D01*
X003946Y009901D02*
X003946Y010651D01*
X003925Y010651D01*
X003824Y010638D01*
X003725Y010611D01*
X003631Y010572D01*
X003542Y010521D01*
X003461Y010459D01*
X003389Y010386D01*
X003326Y010305D01*
X003275Y010217D01*
X003236Y010122D01*
X003210Y010024D01*
X002044Y010024D01*
X002044Y009966D02*
X003202Y009966D01*
X003196Y009922D02*
X003196Y009901D01*
X003946Y009901D01*
X003946Y009849D02*
X002044Y009849D01*
X002044Y009907D02*
X003196Y009907D01*
X003196Y009922D02*
X003210Y010024D01*
X003225Y010083D02*
X002044Y010083D01*
X002044Y010141D02*
X003244Y010141D01*
X003268Y010200D02*
X002044Y010200D01*
X002044Y010258D02*
X003299Y010258D01*
X003335Y010317D02*
X002044Y010317D01*
X002044Y010375D02*
X003380Y010375D01*
X003436Y010434D02*
X002044Y010434D01*
X002044Y010492D02*
X003504Y010492D01*
X003593Y010551D02*
X002044Y010551D01*
X002044Y010609D02*
X003720Y010609D01*
X003946Y010609D02*
X004006Y010609D01*
X004006Y010551D02*
X003946Y010551D01*
X003946Y010492D02*
X004006Y010492D01*
X004006Y010434D02*
X003946Y010434D01*
X003946Y010375D02*
X004006Y010375D01*
X004006Y010317D02*
X003946Y010317D01*
X003946Y010258D02*
X004006Y010258D01*
X004006Y010200D02*
X003946Y010200D01*
X003946Y010141D02*
X004006Y010141D01*
X004006Y010083D02*
X003946Y010083D01*
X003946Y010024D02*
X004006Y010024D01*
X004006Y009966D02*
X003946Y009966D01*
X003200Y009790D02*
X002044Y009790D01*
X002044Y009732D02*
X003208Y009732D01*
X003222Y009673D02*
X002044Y009673D01*
X002044Y009615D02*
X003238Y009615D01*
X003262Y009556D02*
X002044Y009556D01*
X002044Y009498D02*
X003291Y009498D01*
X003325Y009439D02*
X002044Y009439D01*
X002044Y009381D02*
X003369Y009381D01*
X003422Y009322D02*
X002044Y009322D01*
X002044Y009264D02*
X003487Y009264D01*
X003570Y009205D02*
X002044Y009205D01*
X002044Y009147D02*
X003687Y009147D01*
X005239Y009088D02*
X002044Y009088D01*
X002044Y009030D02*
X005239Y009030D01*
X005239Y008971D02*
X002044Y008971D01*
X002044Y008913D02*
X005239Y008913D01*
X005239Y008854D02*
X002044Y008854D01*
X002044Y008796D02*
X005239Y008796D01*
X005239Y008737D02*
X002044Y008737D01*
X002044Y008679D02*
X005239Y008679D01*
X005239Y008620D02*
X002044Y008620D01*
X002044Y008562D02*
X005239Y008562D01*
X005239Y008503D02*
X002044Y008503D01*
X002044Y008445D02*
X005239Y008445D01*
X005239Y008386D02*
X002044Y008386D01*
X002044Y008328D02*
X005239Y008328D01*
X005239Y008269D02*
X002044Y008269D01*
X002044Y008211D02*
X005239Y008211D01*
X005239Y008152D02*
X002044Y008152D01*
X002044Y008094D02*
X005239Y008094D01*
X005239Y008035D02*
X002044Y008035D01*
X002044Y007977D02*
X005239Y007977D01*
X005239Y007918D02*
X002044Y007918D01*
X002044Y007860D02*
X005239Y007860D01*
X005239Y007801D02*
X002044Y007801D01*
X002044Y007743D02*
X005239Y007743D01*
X005239Y007684D02*
X002044Y007684D01*
X002044Y007626D02*
X005239Y007626D01*
X005239Y007567D02*
X002044Y007567D01*
X002044Y007509D02*
X005239Y007509D01*
X005239Y007450D02*
X002044Y007450D01*
X002044Y007392D02*
X005239Y007392D01*
X005239Y007333D02*
X002044Y007333D01*
X002044Y007275D02*
X005239Y007275D01*
X005239Y007216D02*
X002044Y007216D01*
X002044Y007158D02*
X005239Y007158D01*
X005239Y007099D02*
X002044Y007099D01*
X002044Y007041D02*
X005239Y007041D01*
X005239Y006982D02*
X002044Y006982D01*
X002044Y006924D02*
X005239Y006924D01*
X005239Y006865D02*
X002044Y006865D01*
X002044Y006807D02*
X005239Y006807D01*
X005239Y006748D02*
X002044Y006748D01*
X002044Y006690D02*
X005239Y006690D01*
X005239Y006631D02*
X002044Y006631D01*
X002044Y006573D02*
X005239Y006573D01*
X005239Y006514D02*
X002044Y006514D01*
X002044Y006456D02*
X005239Y006456D01*
X005239Y006397D02*
X002044Y006397D01*
X002044Y006339D02*
X005239Y006339D01*
X005239Y006280D02*
X002044Y006280D01*
X002044Y006222D02*
X005239Y006222D01*
X005239Y006163D02*
X002044Y006163D01*
X002044Y006105D02*
X005239Y006105D01*
X005239Y006046D02*
X002044Y006046D01*
X002044Y005988D02*
X005239Y005988D01*
X005239Y005929D02*
X002044Y005929D01*
X002044Y005871D02*
X005239Y005871D01*
X005239Y005812D02*
X002044Y005812D01*
X002044Y005754D02*
X005239Y005754D01*
X005239Y005695D02*
X002044Y005695D01*
X002044Y005637D02*
X005239Y005637D01*
X005239Y005578D02*
X002044Y005578D01*
X002044Y005520D02*
X005239Y005520D01*
X005239Y005461D02*
X002044Y005461D01*
X002044Y005403D02*
X005239Y005403D01*
X005239Y005344D02*
X002044Y005344D01*
X002044Y005286D02*
X005239Y005286D01*
X005239Y005227D02*
X002044Y005227D01*
X002044Y005169D02*
X005239Y005169D01*
X005239Y005110D02*
X002044Y005110D01*
X002044Y005052D02*
X005236Y005052D01*
X005177Y004993D02*
X002044Y004993D01*
X002044Y004935D02*
X005119Y004935D01*
X005060Y004876D02*
X002044Y004876D01*
X002044Y004818D02*
X005002Y004818D01*
X004943Y004759D02*
X002044Y004759D01*
X002044Y004701D02*
X004885Y004701D01*
X004826Y004642D02*
X002044Y004642D01*
X002044Y004584D02*
X004768Y004584D01*
X004709Y004525D02*
X002044Y004525D01*
X002044Y004467D02*
X004651Y004467D01*
X004660Y013476D02*
X002044Y013476D01*
X002044Y013534D02*
X004718Y013534D01*
X004777Y013593D02*
X002044Y013593D01*
X002044Y013651D02*
X004835Y013651D01*
X004894Y013710D02*
X002044Y013710D01*
X002044Y013768D02*
X004952Y013768D01*
X004756Y014641D02*
X004006Y014641D01*
X004006Y015391D01*
X004027Y015391D01*
X004129Y015378D01*
X004228Y015351D01*
X004322Y015312D01*
X004411Y015261D01*
X004492Y015199D01*
X004564Y015126D01*
X004626Y015045D01*
X004677Y014957D01*
X004716Y014862D01*
X004743Y014764D01*
X004756Y014662D01*
X004756Y014641D01*
X004756Y014646D02*
X005239Y014646D01*
X005239Y014704D02*
X004751Y014704D01*
X004743Y014763D02*
X005239Y014763D01*
X005239Y014821D02*
X004727Y014821D01*
X004709Y014880D02*
X005239Y014880D01*
X005239Y014938D02*
X004685Y014938D01*
X004654Y014997D02*
X005239Y014997D01*
X005239Y015055D02*
X004619Y015055D01*
X004574Y015114D02*
X005239Y015114D01*
X005239Y015172D02*
X004518Y015172D01*
X004450Y015231D02*
X005239Y015231D01*
X005239Y015289D02*
X004362Y015289D01*
X004236Y015348D02*
X005196Y015348D01*
X004006Y015348D02*
X003946Y015348D01*
X003946Y015289D02*
X004006Y015289D01*
X004006Y015231D02*
X003946Y015231D01*
X003946Y015172D02*
X004006Y015172D01*
X004006Y015114D02*
X003946Y015114D01*
X003946Y015055D02*
X004006Y015055D01*
X004006Y014997D02*
X003946Y014997D01*
X003946Y014938D02*
X004006Y014938D01*
X004006Y014880D02*
X003946Y014880D01*
X003946Y014821D02*
X004006Y014821D01*
X004006Y014763D02*
X003946Y014763D01*
X003946Y014704D02*
X004006Y014704D01*
X004006Y014646D02*
X003946Y014646D01*
X003553Y020804D02*
X003553Y022054D01*
X002303Y022054D01*
X002303Y022021D01*
X002315Y021896D01*
X002339Y021772D01*
X002376Y021652D01*
X002424Y021536D01*
X002483Y021425D01*
X002553Y021320D01*
X002633Y021223D01*
X002722Y021134D01*
X002819Y021054D01*
X002924Y020984D01*
X003035Y020925D01*
X003151Y020877D01*
X003271Y020840D01*
X003395Y020816D01*
X003520Y020804D01*
X003553Y020804D01*
X003553Y020847D02*
X003613Y020847D01*
X003613Y020905D02*
X003553Y020905D01*
X003553Y020964D02*
X003613Y020964D01*
X003613Y021022D02*
X003553Y021022D01*
X003553Y021081D02*
X003613Y021081D01*
X003613Y021139D02*
X003553Y021139D01*
X003553Y021198D02*
X003613Y021198D01*
X003613Y021256D02*
X003553Y021256D01*
X003553Y021315D02*
X003613Y021315D01*
X003613Y021373D02*
X003553Y021373D01*
X003553Y021432D02*
X003613Y021432D01*
X003613Y021490D02*
X003553Y021490D01*
X003553Y021549D02*
X003613Y021549D01*
X003613Y021607D02*
X003553Y021607D01*
X003553Y021666D02*
X003613Y021666D01*
X003613Y021724D02*
X003553Y021724D01*
X003553Y021783D02*
X003613Y021783D01*
X003613Y021841D02*
X003553Y021841D01*
X003553Y021900D02*
X003613Y021900D01*
X003613Y021958D02*
X003553Y021958D01*
X003553Y022017D02*
X003613Y022017D01*
X003613Y022075D02*
X033114Y022075D01*
X033114Y022017D02*
X004862Y022017D01*
X004863Y022134D02*
X033114Y022134D01*
X033114Y022192D02*
X004858Y022192D01*
X004852Y022251D02*
X033114Y022251D01*
X033114Y022309D02*
X004843Y022309D01*
X004831Y022368D02*
X033114Y022368D01*
X033114Y022426D02*
X004816Y022426D01*
X004798Y022485D02*
X033114Y022485D01*
X033114Y022543D02*
X004778Y022543D01*
X004753Y022602D02*
X033114Y022602D01*
X033114Y022660D02*
X004726Y022660D01*
X004694Y022719D02*
X033114Y022719D01*
X033114Y022777D02*
X004659Y022777D01*
X004619Y022836D02*
X033114Y022836D01*
X033114Y022894D02*
X004573Y022894D01*
X004524Y022953D02*
X033114Y022953D01*
X033114Y023011D02*
X004465Y023011D01*
X004399Y023070D02*
X033114Y023070D01*
X033114Y023128D02*
X004323Y023128D01*
X004234Y023187D02*
X033114Y023187D01*
X033114Y023245D02*
X004123Y023245D01*
X003970Y023304D02*
X033114Y023304D01*
X033114Y023362D02*
X003660Y023362D01*
X003613Y023362D02*
X003553Y023362D01*
X003505Y023362D02*
X002233Y023362D01*
X002185Y023304D02*
X003195Y023304D01*
X003042Y023245D02*
X002151Y023245D01*
X002118Y023187D02*
X002931Y023187D01*
X002842Y023128D02*
X002093Y023128D01*
X002077Y023070D02*
X002766Y023070D01*
X002700Y023011D02*
X002062Y023011D01*
X002049Y022953D02*
X002641Y022953D01*
X002592Y022894D02*
X002046Y022894D01*
X002044Y022836D02*
X002546Y022836D01*
X002507Y022777D02*
X002044Y022777D01*
X002044Y022719D02*
X002471Y022719D01*
X002439Y022660D02*
X002044Y022660D01*
X002044Y022602D02*
X002412Y022602D01*
X002387Y022543D02*
X002044Y022543D01*
X002044Y022485D02*
X002367Y022485D01*
X002349Y022426D02*
X002044Y022426D01*
X002044Y022368D02*
X002334Y022368D01*
X002322Y022309D02*
X002044Y022309D01*
X002044Y022251D02*
X002313Y022251D01*
X002307Y022192D02*
X002044Y022192D01*
X002044Y022134D02*
X002303Y022134D01*
X002303Y022017D02*
X002044Y022017D01*
X002044Y022075D02*
X003553Y022075D01*
X003553Y022134D02*
X003613Y022134D01*
X003613Y022192D02*
X003553Y022192D01*
X003553Y022251D02*
X003613Y022251D01*
X003613Y022309D02*
X003553Y022309D01*
X003553Y022368D02*
X003613Y022368D01*
X003613Y022426D02*
X003553Y022426D01*
X003553Y022485D02*
X003613Y022485D01*
X003613Y022543D02*
X003553Y022543D01*
X003553Y022602D02*
X003613Y022602D01*
X003613Y022660D02*
X003553Y022660D01*
X003553Y022719D02*
X003613Y022719D01*
X003613Y022777D02*
X003553Y022777D01*
X003553Y022836D02*
X003613Y022836D01*
X003613Y022894D02*
X003553Y022894D01*
X003553Y022953D02*
X003613Y022953D01*
X003613Y023011D02*
X003553Y023011D01*
X003553Y023070D02*
X003613Y023070D01*
X003613Y023128D02*
X003553Y023128D01*
X003553Y023187D02*
X003613Y023187D01*
X003613Y023245D02*
X003553Y023245D01*
X003553Y023304D02*
X003613Y023304D01*
X002624Y023596D02*
X033114Y023596D01*
X033114Y023538D02*
X002460Y023538D01*
X002359Y023479D02*
X033114Y023479D01*
X033114Y023421D02*
X002292Y023421D01*
X002309Y021958D02*
X002044Y021958D01*
X002044Y021900D02*
X002314Y021900D01*
X002326Y021841D02*
X002044Y021841D01*
X002044Y021783D02*
X002337Y021783D01*
X002354Y021724D02*
X002044Y021724D01*
X002044Y021666D02*
X002372Y021666D01*
X002394Y021607D02*
X002044Y021607D01*
X002044Y021549D02*
X002419Y021549D01*
X002448Y021490D02*
X002044Y021490D01*
X002044Y021432D02*
X002480Y021432D01*
X002518Y021373D02*
X002044Y021373D01*
X002044Y021315D02*
X002558Y021315D01*
X002606Y021256D02*
X002044Y021256D01*
X002044Y021198D02*
X002658Y021198D01*
X002717Y021139D02*
X002044Y021139D01*
X002044Y021081D02*
X002787Y021081D01*
X002867Y021022D02*
X002044Y021022D01*
X002044Y020964D02*
X002963Y020964D01*
X003083Y020905D02*
X002044Y020905D01*
X002044Y020847D02*
X003251Y020847D01*
D18*
X002614Y018930D03*
X002614Y017930D03*
X002614Y016930D03*
X002614Y015930D03*
X002614Y014930D03*
X002614Y013930D03*
X002614Y012930D03*
X002614Y011930D03*
X002614Y010930D03*
X002614Y009930D03*
X002614Y008930D03*
X002614Y007930D03*
X002614Y006930D03*
X002614Y005930D03*
X002614Y004930D03*
X005614Y022930D03*
X006614Y022930D03*
X007614Y022930D03*
X008614Y022930D03*
X009614Y022930D03*
X010614Y022930D03*
X011614Y022930D03*
X012614Y022930D03*
X013614Y022930D03*
X014614Y022930D03*
X015614Y022930D03*
X016614Y022930D03*
X017614Y022930D03*
X018614Y022930D03*
X019614Y022930D03*
X020614Y022930D03*
X021614Y022930D03*
X022614Y022930D03*
X023614Y022930D03*
X024614Y022930D03*
X025614Y022930D03*
X026614Y022930D03*
X027614Y022930D03*
X028614Y022930D03*
X029614Y022930D03*
X030614Y022930D03*
X031614Y022930D03*
X032614Y022930D03*
D19*
X002147Y001343D02*
X002239Y001184D01*
X002368Y001055D01*
X002527Y000963D01*
X002527Y000963D01*
X002704Y000916D01*
X002795Y000910D01*
X040984Y000910D01*
X040984Y023572D01*
X033384Y023572D01*
X033384Y021876D01*
X033343Y021777D01*
X033267Y021701D01*
X033168Y021660D01*
X006237Y021660D01*
X004759Y019954D01*
X004759Y016167D01*
X005392Y015534D01*
X005468Y015458D01*
X005509Y015359D01*
X005509Y014001D01*
X005468Y013902D01*
X004824Y013258D01*
X004933Y013303D01*
X005160Y013303D01*
X005369Y013216D01*
X005436Y013149D01*
X005503Y013216D01*
X005713Y013303D01*
X005940Y013303D01*
X006149Y013216D01*
X006309Y013056D01*
X006396Y012847D01*
X006396Y012620D01*
X006309Y012410D01*
X006149Y012250D01*
X006128Y012241D01*
X006149Y012232D01*
X006309Y012072D01*
X006396Y011862D01*
X006396Y011636D01*
X006309Y011426D01*
X006149Y011266D01*
X005940Y011179D01*
X005713Y011179D01*
X005503Y011266D01*
X005394Y011375D01*
X005379Y011360D01*
X005314Y011313D01*
X005242Y011276D01*
X005166Y011251D01*
X005086Y011239D01*
X005056Y011239D01*
X005056Y011739D01*
X005036Y011739D01*
X004536Y011739D01*
X004536Y011709D01*
X004549Y011629D01*
X004574Y011553D01*
X004610Y011482D01*
X004657Y011417D01*
X004714Y011360D01*
X004779Y011313D01*
X004850Y011276D01*
X004927Y011251D01*
X005006Y011239D01*
X005036Y011239D01*
X005036Y011739D01*
X005036Y011759D01*
X004536Y011759D01*
X004536Y011789D01*
X004549Y011868D01*
X004574Y011945D01*
X004610Y012016D01*
X004657Y012081D01*
X004714Y012138D01*
X004779Y012185D01*
X004824Y012208D01*
X004723Y012250D01*
X004563Y012410D01*
X004509Y012541D01*
X004509Y011417D01*
X005392Y010534D01*
X005468Y010458D01*
X005509Y010359D01*
X005509Y005001D01*
X005468Y004902D01*
X004843Y004277D01*
X004767Y004201D01*
X004668Y004160D01*
X002094Y004160D01*
X002094Y001611D01*
X002100Y001520D01*
X002147Y001343D01*
X002137Y001381D02*
X002634Y001381D01*
X002729Y001286D02*
X003046Y001103D01*
X003400Y001009D01*
X003766Y001009D01*
X004119Y001103D01*
X004436Y001286D01*
X004695Y001545D01*
X004878Y001862D01*
X004973Y002216D01*
X004973Y002582D01*
X004878Y002935D01*
X004695Y003252D01*
X004436Y003511D01*
X004119Y003694D01*
X003766Y003789D01*
X003400Y003789D01*
X003046Y003694D01*
X002729Y003511D01*
X002470Y003252D01*
X002287Y002935D01*
X002193Y002582D01*
X002193Y002216D01*
X002287Y001862D01*
X002470Y001545D01*
X002729Y001286D01*
X002839Y001223D02*
X002217Y001223D01*
X002359Y001064D02*
X003192Y001064D01*
X003973Y001064D02*
X038626Y001064D01*
X038479Y001103D02*
X038833Y001009D01*
X039199Y001009D01*
X039552Y001103D01*
X039869Y001286D01*
X040128Y001545D01*
X040311Y001862D01*
X040406Y002216D01*
X040406Y002582D01*
X040311Y002935D01*
X040128Y003252D01*
X039869Y003511D01*
X039552Y003694D01*
X039199Y003789D01*
X038833Y003789D01*
X038479Y003694D01*
X038162Y003511D01*
X037903Y003252D01*
X037720Y002935D01*
X037626Y002582D01*
X037626Y002216D01*
X037720Y001862D01*
X037903Y001545D01*
X038162Y001286D01*
X038479Y001103D01*
X038273Y001223D02*
X004326Y001223D01*
X004531Y001381D02*
X038067Y001381D01*
X037909Y001540D02*
X004689Y001540D01*
X004783Y001698D02*
X037815Y001698D01*
X037724Y001857D02*
X033324Y001857D01*
X033235Y001820D02*
X033460Y001913D01*
X033631Y002084D01*
X033724Y002309D01*
X033724Y002551D01*
X033631Y002776D01*
X033460Y002947D01*
X033235Y003040D01*
X032993Y003040D01*
X032769Y002947D01*
X032614Y002793D01*
X032460Y002947D01*
X032235Y003040D01*
X031993Y003040D01*
X031769Y002947D01*
X031597Y002776D01*
X031577Y002728D01*
X031534Y002788D01*
X031472Y002850D01*
X031402Y002900D01*
X031325Y002940D01*
X031243Y002966D01*
X031157Y002980D01*
X031134Y002980D01*
X031134Y002450D01*
X031094Y002450D01*
X031094Y002410D01*
X030564Y002410D01*
X030564Y002387D01*
X030578Y002301D01*
X030604Y002219D01*
X030644Y002142D01*
X030695Y002072D01*
X030756Y002010D01*
X030826Y001960D01*
X030903Y001920D01*
X030985Y001894D01*
X031071Y001880D01*
X031094Y001880D01*
X031094Y002410D01*
X031134Y002410D01*
X031134Y001880D01*
X031157Y001880D01*
X031243Y001894D01*
X031325Y001920D01*
X031402Y001960D01*
X031472Y002010D01*
X031534Y002072D01*
X031577Y002132D01*
X031597Y002084D01*
X031769Y001913D01*
X031993Y001820D01*
X032235Y001820D01*
X032460Y001913D01*
X032614Y002067D01*
X032769Y001913D01*
X032993Y001820D01*
X033235Y001820D01*
X032905Y001857D02*
X032324Y001857D01*
X032562Y002015D02*
X032666Y002015D01*
X031905Y001857D02*
X028324Y001857D01*
X028235Y001820D02*
X028460Y001913D01*
X028631Y002084D01*
X028724Y002309D01*
X028724Y002551D01*
X028631Y002776D01*
X028460Y002947D01*
X028235Y003040D01*
X027993Y003040D01*
X027769Y002947D01*
X027614Y002793D01*
X027460Y002947D01*
X027235Y003040D01*
X026993Y003040D01*
X026769Y002947D01*
X026597Y002776D01*
X026577Y002728D01*
X026534Y002788D01*
X026472Y002850D01*
X026402Y002900D01*
X026325Y002940D01*
X026243Y002966D01*
X026157Y002980D01*
X026134Y002980D01*
X026134Y002450D01*
X026094Y002450D01*
X026094Y002980D01*
X026071Y002980D01*
X025985Y002966D01*
X025903Y002940D01*
X025826Y002900D01*
X025756Y002850D01*
X025695Y002788D01*
X025651Y002728D01*
X025631Y002776D01*
X025460Y002947D01*
X025235Y003040D01*
X024993Y003040D01*
X024769Y002947D01*
X024614Y002793D01*
X024460Y002947D01*
X024235Y003040D01*
X023993Y003040D01*
X023769Y002947D01*
X023597Y002776D01*
X023504Y002551D01*
X023504Y002309D01*
X023597Y002084D01*
X023769Y001913D01*
X023993Y001820D01*
X024235Y001820D01*
X024460Y001913D01*
X024614Y002067D01*
X024769Y001913D01*
X024993Y001820D01*
X025235Y001820D01*
X025460Y001913D01*
X025631Y002084D01*
X025651Y002132D01*
X025695Y002072D01*
X025756Y002010D01*
X025826Y001960D01*
X025903Y001920D01*
X025985Y001894D01*
X026071Y001880D01*
X026094Y001880D01*
X026094Y002410D01*
X026134Y002410D01*
X026134Y001880D01*
X026157Y001880D01*
X026243Y001894D01*
X026325Y001920D01*
X026402Y001960D01*
X026472Y002010D01*
X026534Y002072D01*
X026577Y002132D01*
X026597Y002084D01*
X026769Y001913D01*
X026993Y001820D01*
X027235Y001820D01*
X027460Y001913D01*
X027614Y002067D01*
X027769Y001913D01*
X027993Y001820D01*
X028235Y001820D01*
X027905Y001857D02*
X027324Y001857D01*
X027562Y002015D02*
X027666Y002015D01*
X026905Y001857D02*
X025324Y001857D01*
X025562Y002015D02*
X025751Y002015D01*
X026094Y002015D02*
X026134Y002015D01*
X026134Y002174D02*
X026094Y002174D01*
X026094Y002332D02*
X026134Y002332D01*
X026134Y002491D02*
X026094Y002491D01*
X026094Y002649D02*
X026134Y002649D01*
X026134Y002808D02*
X026094Y002808D01*
X026094Y002966D02*
X026134Y002966D01*
X026244Y002966D02*
X026814Y002966D01*
X026629Y002808D02*
X026514Y002808D01*
X025984Y002966D02*
X025414Y002966D01*
X025599Y002808D02*
X025714Y002808D01*
X024814Y002966D02*
X024414Y002966D01*
X024599Y002808D02*
X024629Y002808D01*
X023814Y002966D02*
X004860Y002966D01*
X004912Y002808D02*
X006322Y002808D01*
X006303Y002794D02*
X006250Y002741D01*
X006206Y002680D01*
X006172Y002613D01*
X006149Y002542D01*
X006137Y002468D01*
X006137Y002448D01*
X006596Y002448D01*
X006596Y002412D01*
X006137Y002412D01*
X006137Y002392D01*
X006149Y002318D01*
X006172Y002247D01*
X006206Y002180D01*
X006250Y002119D01*
X006303Y002066D01*
X006364Y002022D01*
X006431Y001988D01*
X006502Y001965D01*
X006577Y001953D01*
X006596Y001953D01*
X006596Y002412D01*
X006632Y002412D01*
X006632Y001953D01*
X006652Y001953D01*
X006726Y001965D01*
X006797Y001988D01*
X006864Y002022D01*
X006925Y002066D01*
X006978Y002119D01*
X007022Y002180D01*
X007056Y002247D01*
X007079Y002318D01*
X007091Y002392D01*
X007091Y002412D01*
X006632Y002412D01*
X006632Y002448D01*
X007091Y002448D01*
X007091Y002468D01*
X007079Y002542D01*
X007056Y002613D01*
X007022Y002680D01*
X006978Y002741D01*
X006925Y002794D01*
X006864Y002838D01*
X006797Y002872D01*
X006726Y002895D01*
X006652Y002907D01*
X006632Y002907D01*
X006632Y002448D01*
X006596Y002448D01*
X006596Y002907D01*
X006577Y002907D01*
X006502Y002895D01*
X006431Y002872D01*
X006364Y002838D01*
X006303Y002794D01*
X006190Y002649D02*
X004954Y002649D01*
X004973Y002491D02*
X006141Y002491D01*
X006147Y002332D02*
X004973Y002332D01*
X004961Y002174D02*
X006211Y002174D01*
X006378Y002015D02*
X004919Y002015D01*
X004875Y001857D02*
X023905Y001857D01*
X023666Y002015D02*
X006850Y002015D01*
X006632Y002015D02*
X006596Y002015D01*
X006596Y002174D02*
X006632Y002174D01*
X006632Y002332D02*
X006596Y002332D01*
X006596Y002491D02*
X006632Y002491D01*
X006632Y002649D02*
X006596Y002649D01*
X006596Y002808D02*
X006632Y002808D01*
X006906Y002808D02*
X023629Y002808D01*
X023545Y002649D02*
X007038Y002649D01*
X007087Y002491D02*
X023504Y002491D01*
X023504Y002332D02*
X007081Y002332D01*
X007017Y002174D02*
X023560Y002174D01*
X024324Y001857D02*
X024905Y001857D01*
X024666Y002015D02*
X024562Y002015D01*
X026477Y002015D02*
X026666Y002015D01*
X027599Y002808D02*
X027629Y002808D01*
X027814Y002966D02*
X027414Y002966D01*
X028414Y002966D02*
X030984Y002966D01*
X030985Y002966D02*
X030903Y002940D01*
X030826Y002900D01*
X030756Y002850D01*
X030695Y002788D01*
X030644Y002718D01*
X030604Y002641D01*
X030578Y002559D01*
X030564Y002473D01*
X030564Y002450D01*
X031094Y002450D01*
X031094Y002980D01*
X031071Y002980D01*
X030985Y002966D01*
X031094Y002966D02*
X031134Y002966D01*
X031244Y002966D02*
X031814Y002966D01*
X031629Y002808D02*
X031514Y002808D01*
X031134Y002808D02*
X031094Y002808D01*
X031094Y002649D02*
X031134Y002649D01*
X031134Y002491D02*
X031094Y002491D01*
X031094Y002332D02*
X031134Y002332D01*
X031134Y002174D02*
X031094Y002174D01*
X031094Y002015D02*
X031134Y002015D01*
X031477Y002015D02*
X031666Y002015D01*
X030751Y002015D02*
X028562Y002015D01*
X028668Y002174D02*
X030627Y002174D01*
X030573Y002332D02*
X028724Y002332D01*
X028724Y002491D02*
X030567Y002491D01*
X030608Y002649D02*
X028684Y002649D01*
X028599Y002808D02*
X030714Y002808D01*
X032414Y002966D02*
X032814Y002966D01*
X032629Y002808D02*
X032599Y002808D01*
X033414Y002966D02*
X037738Y002966D01*
X037686Y002808D02*
X033599Y002808D01*
X033684Y002649D02*
X037644Y002649D01*
X037626Y002491D02*
X033724Y002491D01*
X033724Y002332D02*
X037626Y002332D01*
X037637Y002174D02*
X033668Y002174D01*
X033562Y002015D02*
X037679Y002015D01*
X039759Y001223D02*
X040984Y001223D01*
X040984Y001381D02*
X039964Y001381D01*
X040122Y001540D02*
X040984Y001540D01*
X040984Y001698D02*
X040216Y001698D01*
X040308Y001857D02*
X040984Y001857D01*
X040984Y002015D02*
X040352Y002015D01*
X040394Y002174D02*
X040984Y002174D01*
X040984Y002332D02*
X040406Y002332D01*
X040406Y002491D02*
X040984Y002491D01*
X040984Y002649D02*
X040388Y002649D01*
X040345Y002808D02*
X040984Y002808D01*
X040984Y002966D02*
X040293Y002966D01*
X040202Y003125D02*
X040984Y003125D01*
X040984Y003283D02*
X040097Y003283D01*
X039938Y003442D02*
X040984Y003442D01*
X040984Y003600D02*
X039715Y003600D01*
X039311Y003759D02*
X040984Y003759D01*
X040984Y003917D02*
X012964Y003917D01*
X012964Y003860D02*
X012964Y004000D01*
X012911Y004128D01*
X012812Y004227D01*
X012684Y004280D01*
X012544Y004280D01*
X012416Y004227D01*
X012317Y004128D01*
X012264Y004000D01*
X012264Y003990D01*
X011994Y003720D01*
X011319Y003720D01*
X011312Y003727D01*
X011184Y003780D01*
X011044Y003780D01*
X010916Y003727D01*
X010817Y003628D01*
X010764Y003500D01*
X010764Y003360D01*
X010817Y003232D01*
X010916Y003133D01*
X011044Y003080D01*
X011184Y003080D01*
X011312Y003133D01*
X011319Y003140D01*
X012172Y003140D01*
X012278Y003184D01*
X012360Y003266D01*
X012674Y003580D01*
X012684Y003580D01*
X012812Y003633D01*
X012911Y003732D01*
X012964Y003860D01*
X012922Y003759D02*
X038721Y003759D01*
X038317Y003600D02*
X012732Y003600D01*
X012536Y003442D02*
X038093Y003442D01*
X037934Y003283D02*
X012377Y003283D01*
X012032Y003759D02*
X011236Y003759D01*
X010993Y003759D02*
X003878Y003759D01*
X004281Y003600D02*
X010806Y003600D01*
X010764Y003442D02*
X004505Y003442D01*
X004664Y003283D02*
X010796Y003283D01*
X010937Y003125D02*
X004768Y003125D01*
X003288Y003759D02*
X002094Y003759D01*
X002094Y003917D02*
X012191Y003917D01*
X012295Y004076D02*
X002094Y004076D01*
X002094Y003600D02*
X002884Y003600D01*
X002660Y003442D02*
X002094Y003442D01*
X002094Y003283D02*
X002501Y003283D01*
X002397Y003125D02*
X002094Y003125D01*
X002094Y002966D02*
X002305Y002966D01*
X002253Y002808D02*
X002094Y002808D01*
X002094Y002649D02*
X002211Y002649D01*
X002193Y002491D02*
X002094Y002491D01*
X002094Y002332D02*
X002193Y002332D01*
X002204Y002174D02*
X002094Y002174D01*
X002094Y002015D02*
X002246Y002015D01*
X002290Y001857D02*
X002094Y001857D01*
X002094Y001698D02*
X002382Y001698D01*
X002476Y001540D02*
X002099Y001540D01*
X004800Y004234D02*
X012433Y004234D01*
X012795Y004234D02*
X023816Y004234D01*
X023817Y004232D02*
X023916Y004133D01*
X024044Y004080D01*
X024184Y004080D01*
X024312Y004133D01*
X024411Y004232D01*
X024464Y004360D01*
X024464Y004500D01*
X024411Y004628D01*
X024312Y004727D01*
X024184Y004780D01*
X024174Y004780D01*
X023904Y005050D01*
X023904Y006225D01*
X023911Y006232D01*
X023964Y006360D01*
X023964Y006500D01*
X023958Y006515D01*
X025422Y006515D01*
X025528Y006559D01*
X025671Y006702D01*
X025639Y006625D01*
X025639Y006485D01*
X025692Y006357D01*
X025791Y006258D01*
X025919Y006205D01*
X026059Y006205D01*
X026187Y006258D01*
X026286Y006357D01*
X026339Y006485D01*
X026339Y006495D01*
X026799Y006955D01*
X026809Y006955D01*
X026937Y007008D01*
X027036Y007107D01*
X027089Y007235D01*
X027089Y007375D01*
X027036Y007503D01*
X026937Y007602D01*
X026809Y007655D01*
X026669Y007655D01*
X026541Y007602D01*
X026442Y007503D01*
X026389Y007375D01*
X026389Y007365D01*
X025932Y006908D01*
X025964Y006985D01*
X025964Y007125D01*
X025911Y007253D01*
X025812Y007352D01*
X025684Y007405D01*
X025544Y007405D01*
X025416Y007352D01*
X025339Y007275D01*
X025339Y007375D01*
X025286Y007503D01*
X025192Y007597D01*
X025924Y008330D01*
X025934Y008330D01*
X026062Y008383D01*
X026161Y008482D01*
X026214Y008610D01*
X026214Y008750D01*
X026161Y008878D01*
X026062Y008977D01*
X025934Y009030D01*
X025794Y009030D01*
X025666Y008977D01*
X025567Y008878D01*
X025514Y008750D01*
X025514Y008740D01*
X024494Y007720D01*
X023234Y007720D01*
X022529Y008425D01*
X022529Y008475D01*
X022536Y008482D01*
X022589Y008610D01*
X022589Y008750D01*
X022536Y008878D01*
X022437Y008977D01*
X022309Y009030D01*
X022169Y009030D01*
X022041Y008977D01*
X021942Y008878D01*
X021889Y008750D01*
X021889Y008610D01*
X021942Y008482D01*
X021949Y008475D01*
X021949Y008247D01*
X021993Y008141D01*
X022623Y007511D01*
X022541Y007477D01*
X022442Y007378D01*
X022389Y007250D01*
X022389Y007110D01*
X022442Y006982D01*
X022541Y006883D01*
X022639Y006843D01*
X022639Y006735D01*
X022692Y006607D01*
X022791Y006508D01*
X022919Y006455D01*
X023059Y006455D01*
X023187Y006508D01*
X023194Y006515D01*
X023270Y006515D01*
X023264Y006500D01*
X023264Y006360D01*
X023317Y006232D01*
X023324Y006225D01*
X023324Y004872D01*
X023368Y004766D01*
X023764Y004370D01*
X023764Y004360D01*
X023817Y004232D01*
X023741Y004393D02*
X004958Y004393D01*
X005117Y004551D02*
X023583Y004551D01*
X023424Y004710D02*
X005275Y004710D01*
X005434Y004868D02*
X023326Y004868D01*
X023324Y005027D02*
X005509Y005027D01*
X005509Y005185D02*
X022364Y005185D01*
X022317Y005232D02*
X022416Y005133D01*
X022544Y005080D01*
X022684Y005080D01*
X022812Y005133D01*
X022911Y005232D01*
X022955Y005339D01*
X023062Y005383D01*
X023161Y005482D01*
X023214Y005610D01*
X023214Y005750D01*
X023161Y005878D01*
X023062Y005977D01*
X022934Y006030D01*
X022924Y006030D01*
X021529Y007425D01*
X021529Y007475D01*
X021536Y007482D01*
X021589Y007610D01*
X021589Y007750D01*
X021536Y007878D01*
X021437Y007977D01*
X021309Y008030D01*
X021169Y008030D01*
X021041Y007977D01*
X020942Y007878D01*
X020927Y007840D01*
X020911Y007878D01*
X020812Y007977D01*
X020684Y008030D01*
X020544Y008030D01*
X020416Y007977D01*
X020317Y007878D01*
X020264Y007750D01*
X020264Y007610D01*
X020317Y007482D01*
X020324Y007475D01*
X020324Y007372D01*
X020368Y007266D01*
X022264Y005370D01*
X022264Y005360D01*
X022317Y005232D01*
X022271Y005344D02*
X021122Y005344D01*
X021102Y005324D02*
X021220Y005442D01*
X021284Y005596D01*
X021284Y005764D01*
X021220Y005918D01*
X021102Y006036D01*
X021054Y006056D01*
X019240Y007870D01*
X019220Y007918D01*
X019102Y008036D01*
X018948Y008100D01*
X018781Y008100D01*
X018626Y008036D01*
X018508Y007918D01*
X018444Y007764D01*
X018444Y007596D01*
X018508Y007442D01*
X018626Y007324D01*
X018674Y007304D01*
X020488Y005490D01*
X020508Y005442D01*
X020626Y005324D01*
X020781Y005260D01*
X020948Y005260D01*
X021102Y005324D01*
X021245Y005502D02*
X022132Y005502D01*
X021973Y005661D02*
X021284Y005661D01*
X021261Y005819D02*
X021815Y005819D01*
X021656Y005978D02*
X021161Y005978D01*
X020974Y006136D02*
X021498Y006136D01*
X021339Y006295D02*
X020815Y006295D01*
X020657Y006453D02*
X021181Y006453D01*
X021022Y006612D02*
X020498Y006612D01*
X020340Y006770D02*
X020864Y006770D01*
X020705Y006929D02*
X020181Y006929D01*
X020023Y007087D02*
X020547Y007087D01*
X020388Y007246D02*
X019864Y007246D01*
X019706Y007404D02*
X020324Y007404D01*
X020284Y007563D02*
X019547Y007563D01*
X019389Y007721D02*
X020264Y007721D01*
X020319Y007880D02*
X019236Y007880D01*
X019097Y008038D02*
X022096Y008038D01*
X021970Y008197D02*
X005509Y008197D01*
X005509Y008355D02*
X021949Y008355D01*
X021929Y008514D02*
X005509Y008514D01*
X005509Y008672D02*
X021889Y008672D01*
X021923Y008831D02*
X005509Y008831D01*
X005509Y008989D02*
X022070Y008989D01*
X022408Y008989D02*
X025695Y008989D01*
X025548Y008831D02*
X022556Y008831D01*
X022589Y008672D02*
X025446Y008672D01*
X025287Y008514D02*
X022549Y008514D01*
X022599Y008355D02*
X025129Y008355D01*
X024970Y008197D02*
X022758Y008197D01*
X022916Y008038D02*
X024812Y008038D01*
X024653Y007880D02*
X023075Y007880D01*
X023233Y007721D02*
X024495Y007721D01*
X025227Y007563D02*
X026502Y007563D01*
X026401Y007404D02*
X025686Y007404D01*
X025542Y007404D02*
X025327Y007404D01*
X025315Y007721D02*
X027870Y007721D01*
X028028Y007880D02*
X025474Y007880D01*
X025632Y008038D02*
X028187Y008038D01*
X028264Y008115D02*
X026244Y006095D01*
X025944Y006095D01*
X025937Y006102D01*
X025809Y006155D01*
X025669Y006155D01*
X025541Y006102D01*
X025442Y006003D01*
X025389Y005875D01*
X025389Y005735D01*
X025442Y005607D01*
X025541Y005508D01*
X025669Y005455D01*
X025809Y005455D01*
X025937Y005508D01*
X025944Y005515D01*
X026422Y005515D01*
X026528Y005559D01*
X026572Y005602D01*
X026574Y005600D01*
X026574Y004622D01*
X026618Y004516D01*
X026764Y004370D01*
X026764Y004360D01*
X026817Y004232D01*
X026916Y004133D01*
X027044Y004080D01*
X027184Y004080D01*
X027312Y004133D01*
X027411Y004232D01*
X027421Y004256D01*
X027544Y004205D01*
X027684Y004205D01*
X027812Y004258D01*
X027911Y004357D01*
X027964Y004485D01*
X027964Y004625D01*
X027911Y004753D01*
X027812Y004852D01*
X027684Y004905D01*
X027674Y004905D01*
X027529Y005050D01*
X027529Y006100D01*
X027536Y006107D01*
X027589Y006235D01*
X027589Y006375D01*
X027536Y006503D01*
X027504Y006535D01*
X028033Y007064D01*
X028067Y006982D01*
X028074Y006975D01*
X028074Y006622D01*
X028118Y006516D01*
X028764Y005870D01*
X028764Y005860D01*
X028817Y005732D01*
X028916Y005633D01*
X029044Y005580D01*
X029184Y005580D01*
X029302Y005629D01*
X029419Y005580D01*
X029559Y005580D01*
X029687Y005633D01*
X029786Y005732D01*
X029839Y005860D01*
X029839Y006000D01*
X029786Y006128D01*
X029687Y006227D01*
X029559Y006280D01*
X029549Y006280D01*
X028904Y006925D01*
X028904Y007350D01*
X028911Y007357D01*
X028964Y007485D01*
X028964Y007625D01*
X028911Y007753D01*
X028859Y007805D01*
X028911Y007857D01*
X028964Y007985D01*
X028964Y008125D01*
X028911Y008253D01*
X028812Y008352D01*
X028684Y008405D01*
X028544Y008405D01*
X028416Y008352D01*
X028317Y008253D01*
X028264Y008125D01*
X028264Y008115D01*
X028294Y008197D02*
X025791Y008197D01*
X025994Y008355D02*
X026859Y008355D01*
X026919Y008330D02*
X027059Y008330D01*
X027187Y008383D01*
X027194Y008390D01*
X028034Y008390D01*
X028041Y008383D01*
X028169Y008330D01*
X028309Y008330D01*
X028437Y008383D01*
X028536Y008482D01*
X028589Y008610D01*
X028589Y008750D01*
X028536Y008878D01*
X028437Y008977D01*
X028309Y009030D01*
X028169Y009030D01*
X028041Y008977D01*
X028034Y008970D01*
X027194Y008970D01*
X027187Y008977D01*
X027059Y009030D01*
X026919Y009030D01*
X026791Y008977D01*
X026692Y008878D01*
X026639Y008750D01*
X026639Y008610D01*
X026692Y008482D01*
X026791Y008383D01*
X026919Y008330D01*
X027119Y008355D02*
X028109Y008355D01*
X028369Y008355D02*
X028424Y008355D01*
X028549Y008514D02*
X038450Y008514D01*
X038406Y008620D02*
X038498Y008395D01*
X038670Y008224D01*
X038717Y008204D01*
X038657Y008161D01*
X038596Y008099D01*
X038545Y008029D01*
X038506Y007952D01*
X038479Y007870D01*
X038466Y007784D01*
X038466Y007761D01*
X038996Y007761D01*
X038996Y007721D01*
X038466Y007721D01*
X028924Y007721D01*
X028920Y007880D02*
X038482Y007880D01*
X038466Y007721D02*
X038466Y007698D01*
X038479Y007612D01*
X038506Y007530D01*
X038545Y007453D01*
X038596Y007383D01*
X038657Y007322D01*
X038717Y007278D01*
X038670Y007258D01*
X038498Y007087D01*
X038406Y006862D01*
X038406Y006620D01*
X038498Y006395D01*
X038670Y006224D01*
X038894Y006131D01*
X039137Y006131D01*
X039361Y006224D01*
X039533Y006395D01*
X039626Y006620D01*
X039626Y006862D01*
X039533Y007087D01*
X039361Y007258D01*
X039314Y007278D01*
X039374Y007322D01*
X039435Y007383D01*
X039486Y007453D01*
X039525Y007530D01*
X039552Y007612D01*
X039566Y007698D01*
X039566Y007721D01*
X040984Y007721D01*
X040984Y007563D02*
X039536Y007563D01*
X039566Y007721D02*
X039036Y007721D01*
X039036Y007761D01*
X039566Y007761D01*
X039566Y007784D01*
X039552Y007870D01*
X039525Y007952D01*
X039486Y008029D01*
X039435Y008099D01*
X039374Y008161D01*
X039314Y008204D01*
X039361Y008224D01*
X039533Y008395D01*
X039626Y008620D01*
X039626Y008862D01*
X039533Y009087D01*
X039378Y009241D01*
X039533Y009395D01*
X039626Y009620D01*
X039626Y009862D01*
X039533Y010087D01*
X039378Y010241D01*
X039533Y010395D01*
X039626Y010620D01*
X039626Y010862D01*
X039533Y011087D01*
X039378Y011241D01*
X039533Y011395D01*
X039626Y011620D01*
X039626Y011862D01*
X039533Y012087D01*
X039378Y012241D01*
X039533Y012395D01*
X039626Y012620D01*
X039626Y012862D01*
X039533Y013087D01*
X039378Y013241D01*
X039533Y013395D01*
X039626Y013620D01*
X039626Y013862D01*
X039533Y014087D01*
X039378Y014241D01*
X039533Y014395D01*
X039626Y014620D01*
X039626Y014862D01*
X039533Y015087D01*
X039378Y015241D01*
X039533Y015395D01*
X039626Y015620D01*
X039626Y015862D01*
X039533Y016087D01*
X039378Y016241D01*
X039533Y016395D01*
X039626Y016620D01*
X039626Y016862D01*
X039533Y017087D01*
X039378Y017241D01*
X039533Y017395D01*
X039626Y017620D01*
X039626Y017862D01*
X039533Y018087D01*
X039361Y018258D01*
X039137Y018351D01*
X038894Y018351D01*
X038670Y018258D01*
X038498Y018087D01*
X038406Y017862D01*
X038406Y017620D01*
X038498Y017395D01*
X038653Y017241D01*
X038498Y017087D01*
X038406Y016862D01*
X038406Y016620D01*
X038498Y016395D01*
X038653Y016241D01*
X038498Y016087D01*
X038406Y015862D01*
X038406Y015620D01*
X038498Y015395D01*
X038653Y015241D01*
X038498Y015087D01*
X038406Y014862D01*
X038406Y014845D01*
X038359Y014845D01*
X037653Y015551D01*
X037547Y015595D01*
X036806Y015595D01*
X036700Y015551D01*
X036618Y015469D01*
X036368Y015219D01*
X036324Y015113D01*
X036324Y013425D01*
X036243Y013344D01*
X036215Y013276D01*
X036192Y013253D01*
X036154Y013161D01*
X036154Y015350D01*
X036161Y015357D01*
X036214Y015485D01*
X036214Y015625D01*
X036161Y015753D01*
X036062Y015852D01*
X035934Y015905D01*
X035794Y015905D01*
X035666Y015852D01*
X035567Y015753D01*
X035514Y015625D01*
X035514Y015485D01*
X035567Y015357D01*
X035574Y015350D01*
X035574Y011675D01*
X033804Y009905D01*
X033794Y009905D01*
X033666Y009852D01*
X033567Y009753D01*
X033514Y009625D01*
X033514Y009485D01*
X033567Y009357D01*
X033666Y009258D01*
X033794Y009205D01*
X033934Y009205D01*
X034062Y009258D01*
X034161Y009357D01*
X034214Y009485D01*
X034214Y009495D01*
X036028Y011309D01*
X036110Y011391D01*
X036154Y011497D01*
X036154Y012949D01*
X036192Y012857D01*
X036291Y012758D01*
X036419Y012705D01*
X036559Y012705D01*
X036687Y012758D01*
X036786Y012857D01*
X036824Y012949D01*
X036824Y012247D01*
X036868Y012141D01*
X037824Y011185D01*
X037824Y008997D01*
X037868Y008891D01*
X037993Y008766D01*
X038075Y008684D01*
X038181Y008640D01*
X038406Y008640D01*
X038406Y008620D01*
X038539Y008355D02*
X028804Y008355D01*
X028934Y008197D02*
X038707Y008197D01*
X038552Y008038D02*
X028964Y008038D01*
X028964Y007563D02*
X038495Y007563D01*
X038581Y007404D02*
X028930Y007404D01*
X028904Y007246D02*
X038657Y007246D01*
X038499Y007087D02*
X028904Y007087D01*
X028904Y006929D02*
X038433Y006929D01*
X038406Y006770D02*
X029059Y006770D01*
X029218Y006612D02*
X038409Y006612D01*
X038475Y006453D02*
X029376Y006453D01*
X029535Y006295D02*
X038599Y006295D01*
X038882Y006136D02*
X029778Y006136D01*
X029839Y005978D02*
X040984Y005978D01*
X040984Y006136D02*
X039149Y006136D01*
X039432Y006295D02*
X040984Y006295D01*
X040984Y006453D02*
X039557Y006453D01*
X039622Y006612D02*
X040984Y006612D01*
X040984Y006770D02*
X039626Y006770D01*
X039598Y006929D02*
X040984Y006929D01*
X040984Y007087D02*
X039532Y007087D01*
X039374Y007246D02*
X040984Y007246D01*
X040984Y007404D02*
X039451Y007404D01*
X039549Y007880D02*
X040984Y007880D01*
X040984Y008038D02*
X039480Y008038D01*
X039324Y008197D02*
X040984Y008197D01*
X040984Y008355D02*
X039492Y008355D01*
X039582Y008514D02*
X040984Y008514D01*
X040984Y008672D02*
X039626Y008672D01*
X039626Y008831D02*
X040984Y008831D01*
X040984Y008989D02*
X039573Y008989D01*
X039472Y009148D02*
X040984Y009148D01*
X040984Y009306D02*
X039443Y009306D01*
X039561Y009465D02*
X040984Y009465D01*
X040984Y009623D02*
X039626Y009623D01*
X039626Y009782D02*
X040984Y009782D01*
X040984Y009940D02*
X039593Y009940D01*
X039521Y010099D02*
X040984Y010099D01*
X040984Y010257D02*
X039394Y010257D01*
X039541Y010416D02*
X040984Y010416D01*
X040984Y010574D02*
X039607Y010574D01*
X039626Y010733D02*
X040984Y010733D01*
X040984Y010891D02*
X039614Y010891D01*
X039548Y011050D02*
X040984Y011050D01*
X040984Y011208D02*
X039411Y011208D01*
X039504Y011367D02*
X040984Y011367D01*
X040984Y011525D02*
X039586Y011525D01*
X039626Y011684D02*
X040984Y011684D01*
X040984Y011842D02*
X039626Y011842D01*
X039568Y012001D02*
X040984Y012001D01*
X040984Y012159D02*
X039460Y012159D01*
X039455Y012318D02*
X040984Y012318D01*
X040984Y012476D02*
X039566Y012476D01*
X039626Y012635D02*
X040984Y012635D01*
X040984Y012793D02*
X039626Y012793D01*
X039589Y012952D02*
X040984Y012952D01*
X040984Y013110D02*
X039509Y013110D01*
X039406Y013269D02*
X040984Y013269D01*
X040984Y013427D02*
X039546Y013427D01*
X039611Y013586D02*
X040984Y013586D01*
X040984Y013744D02*
X039626Y013744D01*
X039609Y013903D02*
X040984Y013903D01*
X040984Y014061D02*
X039543Y014061D01*
X039400Y014220D02*
X040984Y014220D01*
X040984Y014378D02*
X039515Y014378D01*
X039591Y014537D02*
X040984Y014537D01*
X040984Y014695D02*
X039626Y014695D01*
X039626Y014854D02*
X040984Y014854D01*
X040984Y015012D02*
X039564Y015012D01*
X039449Y015171D02*
X040984Y015171D01*
X040984Y015329D02*
X039466Y015329D01*
X039571Y015488D02*
X040984Y015488D01*
X040984Y015646D02*
X039626Y015646D01*
X039626Y015805D02*
X040984Y015805D01*
X040984Y015963D02*
X039584Y015963D01*
X039498Y016122D02*
X040984Y016122D01*
X040984Y016280D02*
X039417Y016280D01*
X039551Y016439D02*
X040984Y016439D01*
X040984Y016597D02*
X039616Y016597D01*
X039626Y016756D02*
X040984Y016756D01*
X040984Y016914D02*
X039604Y016914D01*
X039539Y017073D02*
X040984Y017073D01*
X040984Y017231D02*
X039388Y017231D01*
X039527Y017390D02*
X040984Y017390D01*
X040984Y017548D02*
X039596Y017548D01*
X039626Y017707D02*
X040984Y017707D01*
X040984Y017865D02*
X039625Y017865D01*
X039559Y018024D02*
X040984Y018024D01*
X040984Y018182D02*
X039437Y018182D01*
X039162Y018341D02*
X040984Y018341D01*
X040984Y018499D02*
X023177Y018499D01*
X023168Y018521D02*
X023267Y018280D01*
X023267Y018133D01*
X023317Y018253D01*
X023416Y018352D01*
X023544Y018405D01*
X023684Y018405D01*
X023812Y018352D01*
X023819Y018345D01*
X024659Y018345D01*
X024666Y018352D01*
X024794Y018405D01*
X024934Y018405D01*
X025062Y018352D01*
X025161Y018253D01*
X025214Y018125D01*
X025214Y017985D01*
X025161Y017857D01*
X025062Y017758D01*
X024934Y017705D01*
X024794Y017705D01*
X024666Y017758D01*
X024659Y017765D01*
X023819Y017765D01*
X023812Y017758D01*
X023684Y017705D01*
X023544Y017705D01*
X023416Y017758D01*
X023317Y017857D01*
X023264Y017985D01*
X023264Y018012D01*
X023168Y017780D01*
X022984Y017597D01*
X022744Y017497D01*
X022484Y017497D01*
X022244Y017597D01*
X022060Y017780D01*
X021961Y018021D01*
X021961Y018280D01*
X022060Y018521D01*
X022235Y018695D01*
X021763Y018695D01*
X020223Y017155D01*
X020309Y017155D01*
X020334Y017145D01*
X020416Y017227D01*
X020544Y017280D01*
X020684Y017280D01*
X020812Y017227D01*
X020819Y017220D01*
X023409Y017220D01*
X023416Y017227D01*
X023544Y017280D01*
X023684Y017280D01*
X023812Y017227D01*
X023911Y017128D01*
X023964Y017000D01*
X023964Y016860D01*
X023911Y016732D01*
X023812Y016633D01*
X023705Y016589D01*
X023661Y016482D01*
X023562Y016383D01*
X023455Y016339D01*
X023411Y016232D01*
X023312Y016133D01*
X023184Y016080D01*
X023044Y016080D01*
X022916Y016133D01*
X022909Y016140D01*
X021319Y016140D01*
X021312Y016133D01*
X021184Y016080D01*
X021044Y016080D01*
X020916Y016133D01*
X020817Y016232D01*
X020773Y016339D01*
X020666Y016383D01*
X020567Y016482D01*
X020523Y016589D01*
X020519Y016590D01*
X020437Y016508D01*
X020309Y016455D01*
X020299Y016455D01*
X019904Y016060D01*
X019904Y015760D01*
X019911Y015753D01*
X019964Y015625D01*
X019964Y015485D01*
X019911Y015357D01*
X019812Y015258D01*
X019684Y015205D01*
X019544Y015205D01*
X019416Y015258D01*
X019317Y015357D01*
X019264Y015485D01*
X019264Y015625D01*
X019317Y015753D01*
X019324Y015760D01*
X019324Y016238D01*
X019368Y016344D01*
X019311Y016320D01*
X018225Y016320D01*
X018189Y016305D01*
X018039Y016305D01*
X017902Y016362D01*
X017796Y016468D01*
X017739Y016605D01*
X017739Y016755D01*
X017796Y016892D01*
X017902Y016998D01*
X017982Y017031D01*
X017921Y017093D01*
X017864Y017230D01*
X017864Y017380D01*
X017921Y017517D01*
X018027Y017623D01*
X018164Y017680D01*
X018314Y017680D01*
X018350Y017665D01*
X018965Y017665D01*
X021160Y019860D01*
X021292Y019915D01*
X025550Y019915D01*
X025541Y019924D01*
X025504Y020012D01*
X025504Y020848D01*
X025541Y020936D01*
X025608Y021003D01*
X025696Y021040D01*
X026532Y021040D01*
X026620Y021003D01*
X026688Y020936D01*
X026724Y020848D01*
X026724Y020818D01*
X026756Y020850D01*
X026826Y020900D01*
X026903Y020940D01*
X026985Y020966D01*
X027071Y020980D01*
X027094Y020980D01*
X027094Y020450D01*
X027134Y020450D01*
X027134Y020980D01*
X027157Y020980D01*
X027243Y020966D01*
X027325Y020940D01*
X027402Y020900D01*
X027472Y020850D01*
X027534Y020788D01*
X027577Y020728D01*
X027597Y020776D01*
X027769Y020947D01*
X027993Y021040D01*
X028235Y021040D01*
X028460Y020947D01*
X028614Y020793D01*
X028769Y020947D01*
X028993Y021040D01*
X029235Y021040D01*
X029460Y020947D01*
X029614Y020793D01*
X029769Y020947D01*
X029993Y021040D01*
X030235Y021040D01*
X030460Y020947D01*
X030614Y020793D01*
X030769Y020947D01*
X030993Y021040D01*
X031235Y021040D01*
X031460Y020947D01*
X031614Y020793D01*
X031769Y020947D01*
X031993Y021040D01*
X032235Y021040D01*
X032460Y020947D01*
X032631Y020776D01*
X032651Y020728D01*
X032695Y020788D01*
X032756Y020850D01*
X032826Y020900D01*
X032903Y020940D01*
X032985Y020966D01*
X033071Y020980D01*
X033094Y020980D01*
X033094Y020450D01*
X033134Y020450D01*
X033134Y020980D01*
X033157Y020980D01*
X033243Y020966D01*
X033325Y020940D01*
X033402Y020900D01*
X033472Y020850D01*
X033534Y020788D01*
X033584Y020718D01*
X033624Y020641D01*
X033651Y020559D01*
X033664Y020473D01*
X033664Y020450D01*
X033134Y020450D01*
X033134Y020410D01*
X033134Y019880D01*
X033157Y019880D01*
X033243Y019894D01*
X033325Y019920D01*
X033402Y019960D01*
X033472Y020010D01*
X033534Y020072D01*
X033584Y020142D01*
X033624Y020219D01*
X033651Y020301D01*
X033664Y020387D01*
X033664Y020410D01*
X033134Y020410D01*
X033094Y020410D01*
X033094Y019880D01*
X033071Y019880D01*
X032985Y019894D01*
X032903Y019920D01*
X032826Y019960D01*
X032756Y020010D01*
X032695Y020072D01*
X032651Y020132D01*
X032631Y020084D01*
X032686Y020084D01*
X032631Y020084D02*
X032460Y019913D01*
X032235Y019820D01*
X031993Y019820D01*
X031769Y019913D01*
X031614Y020067D01*
X031460Y019913D01*
X031235Y019820D01*
X030993Y019820D01*
X030769Y019913D01*
X030614Y020067D01*
X030460Y019913D01*
X030235Y019820D01*
X029993Y019820D01*
X029769Y019913D01*
X029614Y020067D01*
X029460Y019913D01*
X029235Y019820D01*
X028993Y019820D01*
X028769Y019913D01*
X028614Y020067D01*
X028460Y019913D01*
X028235Y019820D01*
X027993Y019820D01*
X027769Y019913D01*
X027597Y020084D01*
X027543Y020084D01*
X027534Y020072D02*
X027577Y020132D01*
X027597Y020084D01*
X027534Y020072D02*
X027472Y020010D01*
X027402Y019960D01*
X027325Y019920D01*
X027243Y019894D01*
X027157Y019880D01*
X027134Y019880D01*
X027134Y020410D01*
X027094Y020410D01*
X027094Y019880D01*
X027071Y019880D01*
X026985Y019894D01*
X026903Y019920D01*
X026826Y019960D01*
X026756Y020010D01*
X026724Y020042D01*
X026724Y020012D01*
X026688Y019924D01*
X026620Y019857D01*
X026532Y019820D01*
X026474Y019820D01*
X026474Y019483D01*
X026419Y019351D01*
X026318Y019250D01*
X026186Y019195D01*
X025337Y019195D01*
X025364Y019130D01*
X025364Y018980D01*
X025307Y018843D01*
X025201Y018737D01*
X025064Y018680D01*
X024914Y018680D01*
X024878Y018695D01*
X022994Y018695D01*
X023168Y018521D01*
X023031Y018658D02*
X040984Y018658D01*
X040984Y018816D02*
X025280Y018816D01*
X025362Y018975D02*
X040984Y018975D01*
X040984Y019133D02*
X025363Y019133D01*
X026360Y019292D02*
X040984Y019292D01*
X040984Y019450D02*
X026460Y019450D01*
X026474Y019609D02*
X040984Y019609D01*
X040984Y019767D02*
X026474Y019767D01*
X026688Y019926D02*
X026893Y019926D01*
X027094Y019926D02*
X027134Y019926D01*
X027134Y020084D02*
X027094Y020084D01*
X027094Y020243D02*
X027134Y020243D01*
X027134Y020401D02*
X027094Y020401D01*
X027094Y020560D02*
X027134Y020560D01*
X027134Y020718D02*
X027094Y020718D01*
X027094Y020877D02*
X027134Y020877D01*
X027435Y020877D02*
X027698Y020877D01*
X027981Y021035D02*
X026544Y021035D01*
X026712Y020877D02*
X026793Y020877D01*
X025684Y021035D02*
X023111Y021035D01*
X023122Y021021D02*
X023067Y021096D01*
X023001Y021162D01*
X022925Y021217D01*
X022842Y021259D01*
X022753Y021288D01*
X022672Y021301D01*
X022672Y020767D01*
X023206Y020767D01*
X023193Y020848D01*
X023164Y020937D01*
X023122Y021021D01*
X023184Y020877D02*
X025516Y020877D01*
X025504Y020718D02*
X022672Y020718D01*
X022672Y020767D02*
X022672Y020652D01*
X023206Y020652D01*
X023193Y020571D01*
X023164Y020482D01*
X023122Y020399D01*
X023067Y020323D01*
X023001Y020257D01*
X022925Y020202D01*
X022842Y020160D01*
X022753Y020131D01*
X022672Y020118D01*
X022672Y020652D01*
X022556Y020652D01*
X022022Y020652D01*
X022035Y020571D01*
X022064Y020482D01*
X022107Y020399D01*
X022161Y020323D01*
X022227Y020257D01*
X022303Y020202D01*
X022386Y020160D01*
X022475Y020131D01*
X022556Y020118D01*
X022556Y020652D01*
X022556Y020767D01*
X022022Y020767D01*
X022035Y020848D01*
X022064Y020937D01*
X022107Y021021D01*
X022161Y021096D01*
X022227Y021162D01*
X022303Y021217D01*
X022386Y021259D01*
X022475Y021288D01*
X022556Y021301D01*
X022556Y020767D01*
X022672Y020767D01*
X022672Y020877D02*
X022556Y020877D01*
X022556Y021035D02*
X022672Y021035D01*
X022672Y021194D02*
X022556Y021194D01*
X022271Y021194D02*
X012957Y021194D01*
X012925Y021217D02*
X012842Y021259D01*
X012753Y021288D01*
X012672Y021301D01*
X012672Y020767D01*
X013206Y020767D01*
X013193Y020848D01*
X013164Y020937D01*
X013122Y021021D01*
X013067Y021096D01*
X013001Y021162D01*
X012925Y021217D01*
X012672Y021194D02*
X012556Y021194D01*
X012556Y021301D02*
X012475Y021288D01*
X012386Y021259D01*
X012303Y021217D01*
X012227Y021162D01*
X012161Y021096D01*
X012107Y021021D01*
X012064Y020937D01*
X012035Y020848D01*
X012022Y020767D01*
X012556Y020767D01*
X012556Y020652D01*
X012022Y020652D01*
X012035Y020571D01*
X012064Y020482D01*
X012107Y020399D01*
X012161Y020323D01*
X012227Y020257D01*
X012303Y020202D01*
X012386Y020160D01*
X012475Y020131D01*
X012556Y020118D01*
X012556Y020652D01*
X012672Y020652D01*
X012672Y020767D01*
X012556Y020767D01*
X012556Y021301D01*
X012556Y021035D02*
X012672Y021035D01*
X012672Y020877D02*
X012556Y020877D01*
X012556Y020718D02*
X009267Y020718D01*
X009267Y020839D02*
X009168Y021080D01*
X008984Y021263D01*
X008744Y021363D01*
X008484Y021363D01*
X008244Y021263D01*
X008060Y021080D01*
X007961Y020839D01*
X007961Y020580D01*
X008060Y020339D01*
X008244Y020156D01*
X008484Y020056D01*
X008744Y020056D01*
X008984Y020156D01*
X009168Y020339D01*
X009267Y020580D01*
X009267Y020839D01*
X009252Y020877D02*
X012044Y020877D01*
X012117Y021035D02*
X009186Y021035D01*
X009054Y021194D02*
X012271Y021194D01*
X012672Y020718D02*
X022556Y020718D01*
X022556Y020560D02*
X022672Y020560D01*
X022672Y020401D02*
X022556Y020401D01*
X022556Y020243D02*
X022672Y020243D01*
X022981Y020243D02*
X025504Y020243D01*
X025504Y020401D02*
X023123Y020401D01*
X023189Y020560D02*
X025504Y020560D01*
X025504Y020084D02*
X008811Y020084D01*
X009071Y020243D02*
X012247Y020243D01*
X012105Y020401D02*
X009193Y020401D01*
X009259Y020560D02*
X012039Y020560D01*
X012556Y020560D02*
X012672Y020560D01*
X012672Y020652D02*
X012672Y020118D01*
X012753Y020131D01*
X012842Y020160D01*
X012925Y020202D01*
X013001Y020257D01*
X013067Y020323D01*
X013122Y020399D01*
X013164Y020482D01*
X013193Y020571D01*
X013206Y020652D01*
X012672Y020652D01*
X012672Y020401D02*
X012556Y020401D01*
X012556Y020243D02*
X012672Y020243D01*
X012981Y020243D02*
X022247Y020243D01*
X022105Y020401D02*
X013123Y020401D01*
X013189Y020560D02*
X022039Y020560D01*
X022044Y020877D02*
X013184Y020877D01*
X013111Y021035D02*
X022117Y021035D01*
X022957Y021194D02*
X034003Y021194D01*
X033966Y021230D02*
X034225Y020971D01*
X034542Y020788D01*
X034896Y020694D01*
X035262Y020694D01*
X035615Y020788D01*
X035932Y020971D01*
X036191Y021230D01*
X036374Y021547D01*
X036469Y021901D01*
X036469Y022267D01*
X036374Y022620D01*
X040984Y022620D01*
X040984Y022462D02*
X036416Y022462D01*
X036374Y022620D02*
X036191Y022937D01*
X035932Y023196D01*
X035615Y023379D01*
X035262Y023474D01*
X034896Y023474D01*
X034542Y023379D01*
X034225Y023196D01*
X033966Y022937D01*
X033783Y022620D01*
X033384Y022620D01*
X033384Y022462D02*
X033741Y022462D01*
X033783Y022620D02*
X033689Y022267D01*
X033689Y021901D01*
X033783Y021547D01*
X033966Y021230D01*
X033896Y021352D02*
X008770Y021352D01*
X008458Y021352D02*
X005970Y021352D01*
X005833Y021194D02*
X008174Y021194D01*
X008042Y021035D02*
X005696Y021035D01*
X005558Y020877D02*
X007976Y020877D01*
X007961Y020718D02*
X005421Y020718D01*
X005284Y020560D02*
X007969Y020560D01*
X008035Y020401D02*
X005146Y020401D01*
X005009Y020243D02*
X008157Y020243D01*
X008417Y020084D02*
X004872Y020084D01*
X004759Y019926D02*
X025540Y019926D01*
X027335Y019926D02*
X027756Y019926D01*
X028472Y019926D02*
X028756Y019926D01*
X029472Y019926D02*
X029756Y019926D01*
X030472Y019926D02*
X030756Y019926D01*
X031472Y019926D02*
X031756Y019926D01*
X032472Y019926D02*
X032893Y019926D01*
X033094Y019926D02*
X033134Y019926D01*
X033134Y020084D02*
X033094Y020084D01*
X033094Y020243D02*
X033134Y020243D01*
X033134Y020401D02*
X033094Y020401D01*
X033094Y020560D02*
X033134Y020560D01*
X033134Y020718D02*
X033094Y020718D01*
X033094Y020877D02*
X033134Y020877D01*
X033435Y020877D02*
X034389Y020877D01*
X034161Y021035D02*
X032247Y021035D01*
X031981Y021035D02*
X031247Y021035D01*
X030981Y021035D02*
X030247Y021035D01*
X029981Y021035D02*
X029247Y021035D01*
X028981Y021035D02*
X028247Y021035D01*
X028530Y020877D02*
X028698Y020877D01*
X029530Y020877D02*
X029698Y020877D01*
X030530Y020877D02*
X030698Y020877D01*
X031530Y020877D02*
X031698Y020877D01*
X032530Y020877D02*
X032793Y020877D01*
X033585Y020718D02*
X034804Y020718D01*
X035353Y020718D02*
X040984Y020718D01*
X040984Y020560D02*
X033650Y020560D01*
X033664Y020401D02*
X040984Y020401D01*
X040984Y020243D02*
X033631Y020243D01*
X033543Y020084D02*
X040984Y020084D01*
X040984Y019926D02*
X033335Y019926D01*
X035768Y020877D02*
X040984Y020877D01*
X040984Y021035D02*
X035996Y021035D01*
X036154Y021194D02*
X040984Y021194D01*
X040984Y021352D02*
X036261Y021352D01*
X036353Y021511D02*
X040984Y021511D01*
X040984Y021669D02*
X036407Y021669D01*
X036449Y021828D02*
X040984Y021828D01*
X040984Y021986D02*
X036469Y021986D01*
X036469Y022145D02*
X040984Y022145D01*
X040984Y022303D02*
X036459Y022303D01*
X036282Y022779D02*
X040984Y022779D01*
X040984Y022937D02*
X036191Y022937D01*
X036032Y023096D02*
X040984Y023096D01*
X040984Y023254D02*
X035831Y023254D01*
X035489Y023413D02*
X040984Y023413D01*
X040984Y023571D02*
X033384Y023571D01*
X033384Y023413D02*
X034668Y023413D01*
X034326Y023254D02*
X033384Y023254D01*
X033384Y023096D02*
X034125Y023096D01*
X033966Y022937D02*
X033384Y022937D01*
X033384Y022779D02*
X033875Y022779D01*
X033698Y022303D02*
X033384Y022303D01*
X033384Y022145D02*
X033689Y022145D01*
X033689Y021986D02*
X033384Y021986D01*
X033364Y021828D02*
X033708Y021828D01*
X033751Y021669D02*
X033190Y021669D01*
X033804Y021511D02*
X006108Y021511D01*
X004759Y019767D02*
X021067Y019767D01*
X020908Y019609D02*
X004759Y019609D01*
X004759Y019450D02*
X020750Y019450D01*
X020591Y019292D02*
X004759Y019292D01*
X004759Y019133D02*
X020433Y019133D01*
X020274Y018975D02*
X004759Y018975D01*
X004759Y018816D02*
X020116Y018816D01*
X019957Y018658D02*
X013031Y018658D01*
X012984Y018704D02*
X012744Y018804D01*
X012484Y018804D01*
X012244Y018704D01*
X012060Y018521D01*
X011961Y018280D01*
X011961Y018021D01*
X012060Y017780D01*
X012244Y017597D01*
X012484Y017497D01*
X012744Y017497D01*
X012984Y017597D01*
X013168Y017780D01*
X013267Y018021D01*
X013267Y018280D01*
X013168Y018521D01*
X012984Y018704D01*
X013177Y018499D02*
X019799Y018499D01*
X019640Y018341D02*
X013243Y018341D01*
X013267Y018182D02*
X019482Y018182D01*
X019323Y018024D02*
X013267Y018024D01*
X013203Y017865D02*
X013448Y017865D01*
X013416Y017852D02*
X013317Y017753D01*
X013287Y017681D01*
X012857Y017250D01*
X012756Y017250D01*
X012684Y017280D01*
X012544Y017280D01*
X012416Y017227D01*
X012317Y017128D01*
X012264Y017000D01*
X012264Y016860D01*
X012317Y016732D01*
X012416Y016633D01*
X012544Y016580D01*
X012684Y016580D01*
X012756Y016610D01*
X013053Y016610D01*
X013170Y016659D01*
X013740Y017228D01*
X013812Y017258D01*
X013911Y017357D01*
X013964Y017485D01*
X013964Y017625D01*
X013911Y017753D01*
X013812Y017852D01*
X013684Y017905D01*
X013544Y017905D01*
X013416Y017852D01*
X013298Y017707D02*
X013094Y017707D01*
X013155Y017548D02*
X012867Y017548D01*
X012996Y017390D02*
X004759Y017390D01*
X004759Y017548D02*
X008361Y017548D01*
X008244Y017597D02*
X008484Y017497D01*
X008744Y017497D01*
X008984Y017597D01*
X009168Y017780D01*
X009267Y018021D01*
X009267Y018280D01*
X009168Y018521D01*
X008984Y018704D01*
X008744Y018804D01*
X008484Y018804D01*
X008244Y018704D01*
X008060Y018521D01*
X007961Y018280D01*
X007961Y018021D01*
X008060Y017780D01*
X008244Y017597D01*
X008134Y017707D02*
X004759Y017707D01*
X004759Y017865D02*
X008025Y017865D01*
X007961Y018024D02*
X004759Y018024D01*
X004759Y018182D02*
X007961Y018182D01*
X007986Y018341D02*
X004759Y018341D01*
X004759Y018499D02*
X008051Y018499D01*
X008197Y018658D02*
X004759Y018658D01*
X004759Y017231D02*
X012426Y017231D01*
X012294Y017073D02*
X004759Y017073D01*
X004759Y016914D02*
X012264Y016914D01*
X012307Y016756D02*
X004759Y016756D01*
X004759Y016597D02*
X012503Y016597D01*
X012725Y016597D02*
X017743Y016597D01*
X017739Y016756D02*
X013267Y016756D01*
X013426Y016914D02*
X017818Y016914D01*
X017941Y017073D02*
X013584Y017073D01*
X013747Y017231D02*
X017864Y017231D01*
X017868Y017390D02*
X013924Y017390D01*
X013964Y017548D02*
X017952Y017548D01*
X019006Y017707D02*
X013930Y017707D01*
X013780Y017865D02*
X019165Y017865D01*
X020458Y017390D02*
X025413Y017390D01*
X025514Y017490D02*
X024554Y016530D01*
X024544Y016530D01*
X024416Y016477D01*
X024317Y016378D01*
X024264Y016250D01*
X024264Y016110D01*
X024317Y015982D01*
X024416Y015883D01*
X024544Y015830D01*
X024684Y015830D01*
X024802Y015879D01*
X024919Y015830D01*
X025059Y015830D01*
X025177Y015879D01*
X025294Y015830D01*
X025434Y015830D01*
X025552Y015879D01*
X025669Y015830D01*
X025809Y015830D01*
X025937Y015883D01*
X026036Y015982D01*
X026089Y016110D01*
X026089Y016120D01*
X027299Y017330D01*
X027309Y017330D01*
X027437Y017383D01*
X027536Y017482D01*
X027589Y017610D01*
X027589Y017750D01*
X027536Y017878D01*
X027437Y017977D01*
X027309Y018030D01*
X027169Y018030D01*
X027052Y017981D01*
X026934Y018030D01*
X026794Y018030D01*
X026666Y017977D01*
X026567Y017878D01*
X026514Y017750D01*
X026514Y017740D01*
X026469Y017695D01*
X026437Y017727D01*
X026309Y017780D01*
X026169Y017780D01*
X026052Y017731D01*
X025934Y017780D01*
X025794Y017780D01*
X025666Y017727D01*
X025567Y017628D01*
X025514Y017500D01*
X025514Y017490D01*
X025534Y017548D02*
X022867Y017548D01*
X023094Y017707D02*
X023541Y017707D01*
X023687Y017707D02*
X024791Y017707D01*
X024937Y017707D02*
X025646Y017707D01*
X025164Y017865D02*
X026562Y017865D01*
X026480Y017707D02*
X026458Y017707D01*
X026779Y018024D02*
X025214Y018024D01*
X025190Y018182D02*
X038594Y018182D01*
X038472Y018024D02*
X027324Y018024D01*
X027154Y018024D02*
X026949Y018024D01*
X027541Y017865D02*
X038407Y017865D01*
X038406Y017707D02*
X027589Y017707D01*
X027563Y017548D02*
X038435Y017548D01*
X038504Y017390D02*
X027444Y017390D01*
X027200Y017231D02*
X038643Y017231D01*
X038493Y017073D02*
X027042Y017073D01*
X026883Y016914D02*
X038427Y016914D01*
X038406Y016756D02*
X026725Y016756D01*
X026566Y016597D02*
X038415Y016597D01*
X038481Y016439D02*
X026408Y016439D01*
X026249Y016280D02*
X038614Y016280D01*
X038533Y016122D02*
X026091Y016122D01*
X026017Y015963D02*
X038447Y015963D01*
X038406Y015805D02*
X036110Y015805D01*
X036205Y015646D02*
X038406Y015646D01*
X038460Y015488D02*
X037717Y015488D01*
X037875Y015329D02*
X038565Y015329D01*
X038582Y015171D02*
X038034Y015171D01*
X038192Y015012D02*
X038468Y015012D01*
X038406Y014854D02*
X038351Y014854D01*
X036636Y015488D02*
X036214Y015488D01*
X036154Y015329D02*
X036478Y015329D01*
X036618Y015469D02*
X036618Y015469D01*
X036348Y015171D02*
X036154Y015171D01*
X036154Y015012D02*
X036324Y015012D01*
X036324Y014854D02*
X036154Y014854D01*
X036154Y014695D02*
X036324Y014695D01*
X036324Y014537D02*
X036154Y014537D01*
X036154Y014378D02*
X036324Y014378D01*
X036324Y014220D02*
X036154Y014220D01*
X036154Y014061D02*
X036324Y014061D01*
X036324Y013903D02*
X036154Y013903D01*
X036154Y013744D02*
X036324Y013744D01*
X036324Y013586D02*
X036154Y013586D01*
X036154Y013427D02*
X036324Y013427D01*
X036208Y013269D02*
X036154Y013269D01*
X035574Y013269D02*
X024956Y013269D01*
X024964Y013250D02*
X024911Y013378D01*
X024812Y013477D01*
X024684Y013530D01*
X024544Y013530D01*
X024416Y013477D01*
X024317Y013378D01*
X024264Y013250D01*
X024264Y013110D01*
X023043Y013110D01*
X023036Y013128D02*
X023029Y013135D01*
X023029Y013363D01*
X022985Y013469D01*
X022779Y013675D01*
X022779Y014850D01*
X022786Y014857D01*
X022839Y014985D01*
X022839Y015125D01*
X022786Y015253D01*
X022687Y015352D01*
X022559Y015405D01*
X022419Y015405D01*
X022291Y015352D01*
X022192Y015253D01*
X022139Y015125D01*
X022139Y014985D01*
X022192Y014857D01*
X022199Y014850D01*
X022199Y013649D01*
X022184Y013655D01*
X022044Y013655D01*
X021916Y013602D01*
X021817Y013503D01*
X021764Y013375D01*
X021764Y013365D01*
X021619Y013220D01*
X020484Y013220D01*
X020249Y013455D01*
X020309Y013455D01*
X020437Y013508D01*
X020536Y013607D01*
X020589Y013735D01*
X020589Y013783D01*
X021221Y014596D01*
X021312Y014633D01*
X021411Y014732D01*
X021464Y014860D01*
X021464Y015000D01*
X021411Y015128D01*
X021312Y015227D01*
X021214Y015267D01*
X021214Y015375D01*
X021161Y015503D01*
X021062Y015602D01*
X020964Y015642D01*
X020964Y015750D01*
X020911Y015878D01*
X020812Y015977D01*
X020684Y016030D01*
X020544Y016030D01*
X020416Y015977D01*
X020317Y015878D01*
X020264Y015750D01*
X020264Y015710D01*
X019391Y014643D01*
X019291Y014602D01*
X019197Y014508D01*
X019153Y014551D01*
X019047Y014595D01*
X017431Y014595D01*
X017325Y014551D01*
X017243Y014469D01*
X016945Y014171D01*
X016911Y014253D01*
X016812Y014352D01*
X016684Y014405D01*
X016549Y014405D01*
X016214Y014740D01*
X016214Y014750D01*
X016161Y014878D01*
X016062Y014977D01*
X015962Y015018D01*
X016165Y015222D01*
X016201Y015237D01*
X016307Y015343D01*
X016364Y015480D01*
X016364Y015630D01*
X016307Y015767D01*
X016201Y015873D01*
X016064Y015930D01*
X015914Y015930D01*
X015777Y015873D01*
X015671Y015767D01*
X015656Y015731D01*
X014813Y014888D01*
X014777Y014873D01*
X014671Y014767D01*
X014614Y014630D01*
X014614Y014480D01*
X014671Y014343D01*
X014777Y014237D01*
X014914Y014180D01*
X015064Y014180D01*
X015192Y014233D01*
X015192Y014232D01*
X015291Y014133D01*
X015419Y014080D01*
X015429Y014080D01*
X015445Y014064D01*
X015376Y014036D01*
X015258Y013918D01*
X015194Y013764D01*
X015194Y013596D01*
X015214Y013548D01*
X015214Y012471D01*
X014799Y012056D01*
X014751Y012036D01*
X014633Y011918D01*
X014569Y011764D01*
X014569Y011596D01*
X014633Y011442D01*
X014751Y011324D01*
X014906Y011260D01*
X015073Y011260D01*
X015227Y011324D01*
X015345Y011442D01*
X015365Y011490D01*
X015953Y012078D01*
X016014Y012225D01*
X016014Y012718D01*
X016044Y012705D01*
X016184Y012705D01*
X016312Y012758D01*
X016335Y012781D01*
X016403Y012809D01*
X017609Y014015D01*
X018758Y014015D01*
X018666Y013977D01*
X018567Y013878D01*
X018514Y013750D01*
X018514Y013610D01*
X018567Y013482D01*
X018666Y013383D01*
X018794Y013330D01*
X018934Y013330D01*
X019062Y013383D01*
X019069Y013390D01*
X019119Y013390D01*
X019354Y013155D01*
X019294Y013155D01*
X019166Y013102D01*
X019067Y013003D01*
X019014Y012875D01*
X019014Y012735D01*
X019067Y012607D01*
X019166Y012508D01*
X019294Y012455D01*
X019434Y012455D01*
X019562Y012508D01*
X019569Y012515D01*
X019619Y012515D01*
X019993Y012141D01*
X020075Y012059D01*
X020181Y012015D01*
X023054Y012015D01*
X023067Y011982D01*
X023166Y011883D01*
X023294Y011830D01*
X023434Y011830D01*
X023562Y011883D01*
X023661Y011982D01*
X023714Y012110D01*
X023714Y012250D01*
X023708Y012265D01*
X024672Y012265D01*
X024778Y012309D01*
X024860Y012391D01*
X024904Y012497D01*
X024904Y012975D01*
X024911Y012982D01*
X024964Y013110D01*
X035574Y013110D01*
X035574Y012952D02*
X024904Y012952D01*
X024904Y012793D02*
X035574Y012793D01*
X035574Y012635D02*
X024904Y012635D01*
X024895Y012476D02*
X035574Y012476D01*
X035574Y012318D02*
X024787Y012318D01*
X024324Y012845D02*
X023083Y012845D01*
X023089Y012860D01*
X023089Y013000D01*
X023036Y013128D01*
X023029Y013269D02*
X024272Y013269D01*
X024264Y013110D02*
X024317Y012982D01*
X024324Y012975D01*
X024324Y012845D01*
X024324Y012952D02*
X023089Y012952D01*
X023002Y013427D02*
X024366Y013427D01*
X024862Y013427D02*
X035574Y013427D01*
X035574Y013586D02*
X022869Y013586D01*
X022779Y013744D02*
X035574Y013744D01*
X035574Y013903D02*
X022779Y013903D01*
X022779Y014061D02*
X035574Y014061D01*
X035574Y014220D02*
X022779Y014220D01*
X022779Y014378D02*
X035574Y014378D01*
X035574Y014537D02*
X022779Y014537D01*
X022779Y014695D02*
X035574Y014695D01*
X035574Y014854D02*
X022783Y014854D01*
X022839Y015012D02*
X035574Y015012D01*
X035574Y015171D02*
X022820Y015171D01*
X022710Y015329D02*
X035574Y015329D01*
X035514Y015488D02*
X021167Y015488D01*
X021214Y015329D02*
X022268Y015329D01*
X022158Y015171D02*
X021369Y015171D01*
X021459Y015012D02*
X022139Y015012D01*
X022196Y014854D02*
X021461Y014854D01*
X021374Y014695D02*
X022199Y014695D01*
X022199Y014537D02*
X021175Y014537D01*
X021052Y014378D02*
X022199Y014378D01*
X022199Y014220D02*
X020929Y014220D01*
X020806Y014061D02*
X022199Y014061D01*
X022199Y013903D02*
X020682Y013903D01*
X020589Y013744D02*
X022199Y013744D01*
X021900Y013586D02*
X020515Y013586D01*
X020277Y013427D02*
X021786Y013427D01*
X021667Y013269D02*
X020436Y013269D01*
X019240Y013269D02*
X016863Y013269D01*
X017021Y013427D02*
X018622Y013427D01*
X018524Y013586D02*
X017180Y013586D01*
X017338Y013744D02*
X018514Y013744D01*
X018592Y013903D02*
X017497Y013903D01*
X016993Y014220D02*
X016925Y014220D01*
X016749Y014378D02*
X017152Y014378D01*
X017310Y014537D02*
X016418Y014537D01*
X016259Y014695D02*
X019433Y014695D01*
X019563Y014854D02*
X016171Y014854D01*
X015977Y015012D02*
X019693Y015012D01*
X019823Y015171D02*
X016114Y015171D01*
X016293Y015329D02*
X019345Y015329D01*
X019264Y015488D02*
X016364Y015488D01*
X016357Y015646D02*
X019273Y015646D01*
X019324Y015805D02*
X016270Y015805D01*
X015708Y015805D02*
X005121Y015805D01*
X004963Y015963D02*
X019324Y015963D01*
X019324Y016122D02*
X004804Y016122D01*
X004759Y016280D02*
X019342Y016280D01*
X019966Y016122D02*
X020944Y016122D01*
X020826Y015963D02*
X024336Y015963D01*
X024264Y016122D02*
X023284Y016122D01*
X023431Y016280D02*
X024277Y016280D01*
X024378Y016439D02*
X023618Y016439D01*
X023725Y016597D02*
X024621Y016597D01*
X024779Y016756D02*
X023921Y016756D01*
X023964Y016914D02*
X024938Y016914D01*
X025096Y017073D02*
X023934Y017073D01*
X023802Y017231D02*
X025255Y017231D01*
X023426Y017231D02*
X020802Y017231D01*
X020426Y017231D02*
X020299Y017231D01*
X020616Y017548D02*
X022361Y017548D01*
X022134Y017707D02*
X020775Y017707D01*
X020933Y017865D02*
X022025Y017865D01*
X021961Y018024D02*
X021092Y018024D01*
X021250Y018182D02*
X021961Y018182D01*
X021986Y018341D02*
X021409Y018341D01*
X021567Y018499D02*
X022051Y018499D01*
X022197Y018658D02*
X021726Y018658D01*
X023243Y018341D02*
X023405Y018341D01*
X023288Y018182D02*
X023267Y018182D01*
X023314Y017865D02*
X023203Y017865D01*
X025074Y018341D02*
X038869Y018341D01*
X035619Y015805D02*
X020941Y015805D01*
X020964Y015646D02*
X035523Y015646D01*
X036154Y012793D02*
X036256Y012793D01*
X036154Y012635D02*
X036824Y012635D01*
X036824Y012793D02*
X036722Y012793D01*
X036824Y012476D02*
X036154Y012476D01*
X036154Y012318D02*
X036824Y012318D01*
X036861Y012159D02*
X036154Y012159D01*
X036154Y012001D02*
X037008Y012001D01*
X037167Y011842D02*
X036154Y011842D01*
X036154Y011684D02*
X037325Y011684D01*
X037484Y011525D02*
X036154Y011525D01*
X036086Y011367D02*
X037642Y011367D01*
X037801Y011208D02*
X035927Y011208D01*
X035769Y011050D02*
X037824Y011050D01*
X037824Y010891D02*
X035610Y010891D01*
X035452Y010733D02*
X037824Y010733D01*
X037824Y010574D02*
X035293Y010574D01*
X035135Y010416D02*
X037824Y010416D01*
X037824Y010257D02*
X034976Y010257D01*
X034818Y010099D02*
X037824Y010099D01*
X037824Y009940D02*
X034659Y009940D01*
X034501Y009782D02*
X037824Y009782D01*
X037824Y009623D02*
X034342Y009623D01*
X034205Y009465D02*
X037824Y009465D01*
X037824Y009306D02*
X034110Y009306D01*
X033618Y009306D02*
X005509Y009306D01*
X005509Y009148D02*
X037824Y009148D01*
X037827Y008989D02*
X028408Y008989D01*
X028556Y008831D02*
X037928Y008831D01*
X038104Y008672D02*
X028589Y008672D01*
X028070Y008989D02*
X027158Y008989D01*
X026820Y008989D02*
X026033Y008989D01*
X026181Y008831D02*
X026673Y008831D01*
X026639Y008672D02*
X026214Y008672D01*
X026174Y008514D02*
X026679Y008514D01*
X026977Y007563D02*
X027711Y007563D01*
X027553Y007404D02*
X027077Y007404D01*
X027089Y007246D02*
X027394Y007246D01*
X027236Y007087D02*
X027016Y007087D01*
X027077Y006929D02*
X026773Y006929D01*
X026919Y006770D02*
X026614Y006770D01*
X026760Y006612D02*
X026456Y006612D01*
X026326Y006453D02*
X026602Y006453D01*
X026443Y006295D02*
X026224Y006295D01*
X026285Y006136D02*
X025855Y006136D01*
X025755Y006295D02*
X023937Y006295D01*
X023964Y006453D02*
X025652Y006453D01*
X025639Y006612D02*
X025581Y006612D01*
X025940Y006929D02*
X025952Y006929D01*
X025964Y007087D02*
X026111Y007087D01*
X026269Y007246D02*
X025914Y007246D01*
X027581Y006612D02*
X028079Y006612D01*
X028074Y006770D02*
X027739Y006770D01*
X027898Y006929D02*
X028074Y006929D01*
X028181Y006453D02*
X027557Y006453D01*
X027589Y006295D02*
X028339Y006295D01*
X028498Y006136D02*
X027548Y006136D01*
X027529Y005978D02*
X028656Y005978D01*
X028781Y005819D02*
X027529Y005819D01*
X027529Y005661D02*
X028889Y005661D01*
X029715Y005661D02*
X040984Y005661D01*
X040984Y005819D02*
X029822Y005819D01*
X027929Y004710D02*
X040984Y004710D01*
X040984Y004868D02*
X027773Y004868D01*
X027553Y005027D02*
X040984Y005027D01*
X040984Y005185D02*
X027529Y005185D01*
X027529Y005344D02*
X040984Y005344D01*
X040984Y005502D02*
X027529Y005502D01*
X026574Y005502D02*
X025922Y005502D01*
X025556Y005502D02*
X023904Y005502D01*
X023904Y005344D02*
X026574Y005344D01*
X026574Y005185D02*
X023904Y005185D01*
X023928Y005027D02*
X026574Y005027D01*
X026574Y004868D02*
X024086Y004868D01*
X024330Y004710D02*
X026574Y004710D01*
X026604Y004551D02*
X024443Y004551D01*
X024464Y004393D02*
X026741Y004393D01*
X026816Y004234D02*
X024412Y004234D01*
X023324Y005185D02*
X022864Y005185D01*
X022966Y005344D02*
X023324Y005344D01*
X023324Y005502D02*
X023169Y005502D01*
X023214Y005661D02*
X023324Y005661D01*
X023324Y005819D02*
X023185Y005819D01*
X023060Y005978D02*
X023324Y005978D01*
X023324Y006136D02*
X022818Y006136D01*
X022660Y006295D02*
X023291Y006295D01*
X023264Y006453D02*
X022501Y006453D01*
X022343Y006612D02*
X022690Y006612D01*
X022639Y006770D02*
X022184Y006770D01*
X022026Y006929D02*
X022496Y006929D01*
X022399Y007087D02*
X021867Y007087D01*
X021709Y007246D02*
X022389Y007246D01*
X022468Y007404D02*
X021550Y007404D01*
X021569Y007563D02*
X022571Y007563D01*
X022413Y007721D02*
X021589Y007721D01*
X021535Y007880D02*
X022254Y007880D01*
X020944Y007880D02*
X020910Y007880D01*
X018891Y007087D02*
X014327Y007087D01*
X014312Y007102D02*
X014184Y007155D01*
X014044Y007155D01*
X013916Y007102D01*
X013817Y007003D01*
X013764Y006875D01*
X013764Y006735D01*
X013817Y006607D01*
X013824Y006600D01*
X013824Y006010D01*
X013817Y006003D01*
X013764Y005875D01*
X013764Y005735D01*
X013817Y005607D01*
X013916Y005508D01*
X014044Y005455D01*
X014184Y005455D01*
X014312Y005508D01*
X014411Y005607D01*
X014464Y005735D01*
X014464Y005875D01*
X014411Y006003D01*
X014404Y006010D01*
X014404Y006600D01*
X014411Y006607D01*
X014464Y006735D01*
X014464Y006875D01*
X014411Y007003D01*
X014312Y007102D01*
X014442Y006929D02*
X019050Y006929D01*
X019208Y006770D02*
X014464Y006770D01*
X014413Y006612D02*
X019367Y006612D01*
X019525Y006453D02*
X014404Y006453D01*
X014404Y006295D02*
X019684Y006295D01*
X019842Y006136D02*
X014404Y006136D01*
X014421Y005978D02*
X020001Y005978D01*
X020159Y005819D02*
X014464Y005819D01*
X014433Y005661D02*
X020318Y005661D01*
X020476Y005502D02*
X014297Y005502D01*
X013931Y005502D02*
X005509Y005502D01*
X005509Y005344D02*
X020607Y005344D01*
X023904Y005661D02*
X025420Y005661D01*
X025389Y005819D02*
X023904Y005819D01*
X023904Y005978D02*
X025432Y005978D01*
X025624Y006136D02*
X023904Y006136D01*
X027964Y004551D02*
X040984Y004551D01*
X040984Y004393D02*
X027926Y004393D01*
X027754Y004234D02*
X040984Y004234D01*
X040984Y004076D02*
X012933Y004076D01*
X011291Y003125D02*
X037830Y003125D01*
X039406Y001064D02*
X040984Y001064D01*
X027474Y004234D02*
X027412Y004234D01*
X018733Y007246D02*
X012267Y007246D01*
X012312Y007227D02*
X012184Y007280D01*
X012044Y007280D01*
X011916Y007227D01*
X011909Y007220D01*
X011194Y007220D01*
X011187Y007227D01*
X011059Y007280D01*
X010919Y007280D01*
X010791Y007227D01*
X010692Y007128D01*
X010639Y007000D01*
X010639Y006860D01*
X010692Y006732D01*
X010791Y006633D01*
X010919Y006580D01*
X011059Y006580D01*
X011187Y006633D01*
X011194Y006640D01*
X011909Y006640D01*
X011916Y006633D01*
X012044Y006580D01*
X012184Y006580D01*
X012312Y006633D01*
X012411Y006732D01*
X012464Y006860D01*
X012464Y007000D01*
X012411Y007128D01*
X012312Y007227D01*
X012428Y007087D02*
X013901Y007087D01*
X013786Y006929D02*
X012464Y006929D01*
X012427Y006770D02*
X013764Y006770D01*
X013815Y006612D02*
X012260Y006612D01*
X011968Y006612D02*
X011135Y006612D01*
X010843Y006612D02*
X005509Y006612D01*
X005509Y006770D02*
X010676Y006770D01*
X010639Y006929D02*
X005509Y006929D01*
X005509Y007087D02*
X010675Y007087D01*
X010836Y007246D02*
X005509Y007246D01*
X005509Y007404D02*
X018546Y007404D01*
X018458Y007563D02*
X005509Y007563D01*
X005509Y007721D02*
X018444Y007721D01*
X018492Y007880D02*
X005509Y007880D01*
X005509Y008038D02*
X018631Y008038D01*
X013824Y006453D02*
X005509Y006453D01*
X005509Y006295D02*
X013824Y006295D01*
X013824Y006136D02*
X005509Y006136D01*
X005509Y005978D02*
X013807Y005978D01*
X013764Y005819D02*
X005509Y005819D01*
X005509Y005661D02*
X013795Y005661D01*
X011961Y007246D02*
X011142Y007246D01*
X005509Y009465D02*
X033523Y009465D01*
X033514Y009623D02*
X005509Y009623D01*
X005509Y009782D02*
X033596Y009782D01*
X033839Y009940D02*
X005509Y009940D01*
X005509Y010099D02*
X033997Y010099D01*
X034156Y010257D02*
X021934Y010257D01*
X021937Y010258D02*
X022036Y010357D01*
X022089Y010485D01*
X022089Y010625D01*
X022036Y010753D01*
X022029Y010760D01*
X022029Y011363D01*
X021985Y011469D01*
X021964Y011490D01*
X021964Y011500D01*
X021911Y011628D01*
X021812Y011727D01*
X021684Y011780D01*
X021544Y011780D01*
X021416Y011727D01*
X021317Y011628D01*
X021264Y011500D01*
X021264Y011360D01*
X021317Y011232D01*
X021416Y011133D01*
X021449Y011120D01*
X021449Y010760D01*
X021442Y010753D01*
X021389Y010625D01*
X021389Y010485D01*
X021442Y010357D01*
X021541Y010258D01*
X021669Y010205D01*
X021809Y010205D01*
X021937Y010258D01*
X022060Y010416D02*
X034314Y010416D01*
X034473Y010574D02*
X022089Y010574D01*
X022044Y010733D02*
X034631Y010733D01*
X034790Y010891D02*
X022029Y010891D01*
X022029Y011050D02*
X034948Y011050D01*
X035107Y011208D02*
X022029Y011208D01*
X022027Y011367D02*
X035265Y011367D01*
X035424Y011525D02*
X021954Y011525D01*
X021856Y011684D02*
X035574Y011684D01*
X035574Y011842D02*
X023463Y011842D01*
X023265Y011842D02*
X015717Y011842D01*
X015875Y012001D02*
X023060Y012001D01*
X023669Y012001D02*
X035574Y012001D01*
X035574Y012159D02*
X023714Y012159D01*
X024964Y013110D02*
X024964Y013250D01*
X021373Y011684D02*
X015558Y011684D01*
X015400Y011525D02*
X021275Y011525D01*
X021264Y011367D02*
X015270Y011367D01*
X014709Y011367D02*
X006250Y011367D01*
X006350Y011525D02*
X014599Y011525D01*
X014569Y011684D02*
X006396Y011684D01*
X006396Y011842D02*
X014602Y011842D01*
X014716Y012001D02*
X011794Y012001D01*
X011812Y012008D02*
X011911Y012107D01*
X011964Y012235D01*
X011964Y012375D01*
X011911Y012503D01*
X011904Y012510D01*
X011904Y012745D01*
X011937Y012758D01*
X012036Y012857D01*
X012089Y012985D01*
X012089Y013125D01*
X012036Y013253D01*
X011937Y013352D01*
X011809Y013405D01*
X011669Y013405D01*
X011541Y013352D01*
X011442Y013253D01*
X011389Y013125D01*
X011389Y013115D01*
X011368Y013094D01*
X011324Y012988D01*
X011324Y012510D01*
X011317Y012503D01*
X011264Y012375D01*
X011264Y012235D01*
X011317Y012107D01*
X011416Y012008D01*
X011544Y011955D01*
X011684Y011955D01*
X011812Y012008D01*
X011932Y012159D02*
X014902Y012159D01*
X015061Y012318D02*
X011964Y012318D01*
X011922Y012476D02*
X015214Y012476D01*
X015214Y012635D02*
X011904Y012635D01*
X011972Y012793D02*
X015214Y012793D01*
X015214Y012952D02*
X012075Y012952D01*
X012089Y013110D02*
X015214Y013110D01*
X015214Y013269D02*
X012021Y013269D01*
X011458Y013269D02*
X010233Y013269D01*
X010239Y013255D02*
X010182Y013392D01*
X010076Y013498D01*
X009939Y013555D01*
X009789Y013555D01*
X009652Y013498D01*
X009546Y013392D01*
X009489Y013255D01*
X009489Y013105D01*
X009504Y013069D01*
X009504Y012704D01*
X009438Y012638D01*
X009402Y012623D01*
X009296Y012517D01*
X009239Y012380D01*
X009239Y012230D01*
X009296Y012093D01*
X009402Y011987D01*
X009539Y011930D01*
X009689Y011930D01*
X009826Y011987D01*
X009932Y012093D01*
X009947Y012129D01*
X010169Y012351D01*
X010224Y012483D01*
X010224Y013069D01*
X010239Y013105D01*
X010239Y013255D01*
X010239Y013110D02*
X011384Y013110D01*
X011324Y012952D02*
X010224Y012952D01*
X010224Y012793D02*
X011324Y012793D01*
X011324Y012635D02*
X010224Y012635D01*
X010221Y012476D02*
X011306Y012476D01*
X011264Y012318D02*
X010136Y012318D01*
X009977Y012159D02*
X011296Y012159D01*
X011435Y012001D02*
X009840Y012001D01*
X009388Y012001D02*
X006339Y012001D01*
X006222Y012159D02*
X009269Y012159D01*
X009239Y012318D02*
X006217Y012318D01*
X006337Y012476D02*
X009279Y012476D01*
X009430Y012635D02*
X006396Y012635D01*
X006396Y012793D02*
X009504Y012793D01*
X009504Y012952D02*
X006353Y012952D01*
X006255Y013110D02*
X009489Y013110D01*
X009495Y013269D02*
X006023Y013269D01*
X005629Y013269D02*
X005243Y013269D01*
X004993Y013427D02*
X009581Y013427D01*
X010147Y013427D02*
X015214Y013427D01*
X015199Y013586D02*
X005151Y013586D01*
X005310Y013744D02*
X015194Y013744D01*
X015252Y013903D02*
X005468Y013903D01*
X005509Y014061D02*
X015436Y014061D01*
X015205Y014220D02*
X015159Y014220D01*
X014819Y014220D02*
X005509Y014220D01*
X005509Y014378D02*
X014656Y014378D01*
X014614Y014537D02*
X005509Y014537D01*
X005509Y014695D02*
X014641Y014695D01*
X014757Y014854D02*
X005509Y014854D01*
X005509Y015012D02*
X014937Y015012D01*
X015095Y015171D02*
X005509Y015171D01*
X005509Y015329D02*
X015254Y015329D01*
X015412Y015488D02*
X005438Y015488D01*
X005280Y015646D02*
X015571Y015646D01*
X017825Y016439D02*
X004759Y016439D01*
X008867Y017548D02*
X012361Y017548D01*
X012134Y017707D02*
X009094Y017707D01*
X009203Y017865D02*
X012025Y017865D01*
X011961Y018024D02*
X009267Y018024D01*
X009267Y018182D02*
X011961Y018182D01*
X011986Y018341D02*
X009243Y018341D01*
X009177Y018499D02*
X012051Y018499D01*
X012197Y018658D02*
X009031Y018658D01*
X012614Y016930D02*
X012989Y016930D01*
X013614Y017555D01*
X019883Y015329D02*
X019952Y015329D01*
X019964Y015488D02*
X020082Y015488D01*
X019955Y015646D02*
X020212Y015646D01*
X020287Y015805D02*
X019904Y015805D01*
X019904Y015963D02*
X020402Y015963D01*
X020124Y016280D02*
X020797Y016280D01*
X020611Y016439D02*
X020283Y016439D01*
X021284Y016122D02*
X022944Y016122D01*
X019226Y014537D02*
X019168Y014537D01*
X019186Y013110D02*
X016704Y013110D01*
X016546Y012952D02*
X019046Y012952D01*
X019014Y012793D02*
X016364Y012793D01*
X016014Y012635D02*
X019056Y012635D01*
X019244Y012476D02*
X016014Y012476D01*
X016014Y012318D02*
X019816Y012318D01*
X019658Y012476D02*
X019484Y012476D01*
X019975Y012159D02*
X015987Y012159D01*
X021341Y011208D02*
X006010Y011208D01*
X005643Y011208D02*
X004718Y011208D01*
X004707Y011367D02*
X004559Y011367D01*
X004588Y011525D02*
X004509Y011525D01*
X004509Y011684D02*
X004540Y011684D01*
X004545Y011842D02*
X004509Y011842D01*
X004509Y012001D02*
X004602Y012001D01*
X004509Y012159D02*
X004743Y012159D01*
X004656Y012318D02*
X004509Y012318D01*
X004509Y012476D02*
X004536Y012476D01*
X004834Y013269D02*
X004849Y013269D01*
X005036Y011684D02*
X005056Y011684D01*
X005056Y011525D02*
X005036Y011525D01*
X005036Y011367D02*
X005056Y011367D01*
X005385Y011367D02*
X005403Y011367D01*
X004876Y011050D02*
X021449Y011050D01*
X021449Y010891D02*
X005035Y010891D01*
X005193Y010733D02*
X021434Y010733D01*
X021389Y010574D02*
X005352Y010574D01*
X005486Y010416D02*
X021418Y010416D01*
X021544Y010257D02*
X005509Y010257D01*
D20*
X006864Y010430D03*
X007364Y010430D03*
X007864Y010430D03*
X008614Y008930D03*
X010864Y009930D03*
X010864Y010430D03*
X012114Y010430D03*
X012614Y010430D03*
X013364Y010180D03*
X013864Y010180D03*
X013614Y009430D03*
X014114Y009430D03*
X012114Y009430D03*
X011614Y009430D03*
X017614Y010430D03*
X019864Y012180D03*
X018114Y013430D03*
X014989Y014555D03*
X015989Y015555D03*
X018114Y016680D03*
X018239Y017305D03*
X018614Y017930D03*
X017614Y017930D03*
X023864Y015930D03*
X027864Y015555D03*
X027864Y014930D03*
X027864Y014430D03*
X031989Y014430D03*
X031989Y013930D03*
X031989Y013180D03*
X031989Y012555D03*
X031989Y011930D03*
X031989Y011430D03*
X028114Y011680D03*
X023114Y010930D03*
X022739Y010930D03*
X012239Y014430D03*
X009864Y013180D03*
X009614Y012305D03*
X005364Y017305D03*
X005364Y017680D03*
X005364Y018055D03*
X005364Y018430D03*
X005364Y018805D03*
X024989Y019055D03*
X010114Y005930D03*
X010114Y003430D03*
X009614Y003430D03*
X009114Y003430D03*
X009614Y002930D03*
X013114Y003430D03*
X013614Y003430D03*
X018114Y003430D03*
X018614Y005430D03*
X035989Y005305D03*
X036489Y005305D03*
X036989Y005305D03*
X037489Y005305D03*
D21*
X020864Y005680D03*
X018864Y007680D03*
X014989Y011680D03*
X015614Y013680D03*
D22*
X015614Y012305D01*
X014989Y011680D01*
X018864Y007680D02*
X020864Y005680D01*
D23*
X022614Y005430D03*
X022864Y005680D03*
X023614Y006430D03*
X022989Y006805D03*
X022739Y007180D03*
X021239Y007680D03*
X020614Y007680D03*
X022239Y008680D03*
X024989Y007305D03*
X025614Y007055D03*
X025989Y006555D03*
X027239Y006305D03*
X026864Y005805D03*
X025739Y005805D03*
X027114Y004430D03*
X027614Y004555D03*
X029114Y005930D03*
X029489Y005930D03*
X028364Y007180D03*
X028614Y007555D03*
X028614Y008055D03*
X028239Y008680D03*
X026989Y008680D03*
X025864Y008680D03*
X026739Y007305D03*
X024114Y004430D03*
X014114Y005805D03*
X014114Y006805D03*
X012114Y006930D03*
X010989Y006930D03*
X012614Y003930D03*
X011114Y003430D03*
X021739Y010555D03*
X021614Y011430D03*
X023364Y012180D03*
X022739Y012930D03*
X022114Y013305D03*
X020239Y013805D03*
X019864Y014055D03*
X019489Y014305D03*
X018864Y013680D03*
X019364Y012805D03*
X016614Y014055D03*
X016239Y013680D03*
X016114Y013055D03*
X015489Y014430D03*
X015864Y014680D03*
X019614Y015555D03*
X020614Y015680D03*
X020864Y015305D03*
X021114Y014930D03*
X022489Y015055D03*
X024614Y016180D03*
X024989Y016180D03*
X025364Y016180D03*
X025739Y016180D03*
X023614Y016930D03*
X023364Y016680D03*
X023114Y016430D03*
X021114Y016430D03*
X020864Y016680D03*
X020614Y016930D03*
X020239Y016805D03*
X023614Y018055D03*
X024864Y018055D03*
X025864Y017430D03*
X026239Y017430D03*
X026864Y017680D03*
X027239Y017680D03*
X035864Y015555D03*
X037114Y014805D03*
X037614Y014430D03*
X038114Y014055D03*
X036489Y013055D03*
X033864Y009555D03*
X024614Y013180D03*
X013614Y017555D03*
X012614Y016930D03*
X011739Y013055D03*
X011614Y012305D03*
D24*
X009864Y012555D02*
X009614Y012305D01*
X009864Y012555D02*
X009864Y013180D01*
X014989Y014555D02*
X015989Y015555D01*
X018114Y016680D02*
X019239Y016680D01*
X021614Y019055D01*
X024989Y019055D01*
X026114Y019555D02*
X021364Y019555D01*
X019114Y017305D01*
X018239Y017305D01*
X026114Y019555D02*
X026114Y020430D01*
D25*
X024864Y018055D02*
X023614Y018055D01*
X024614Y016180D02*
X025864Y017430D01*
X026239Y017430D02*
X024989Y016180D01*
X025364Y016180D02*
X026864Y017680D01*
X027239Y017680D02*
X025739Y016180D01*
X023614Y016930D02*
X020614Y016930D01*
X020864Y016680D02*
X023364Y016680D01*
X023114Y016430D02*
X021114Y016430D01*
X020239Y016805D02*
X019614Y016180D01*
X019614Y015555D01*
X020614Y015680D02*
X019489Y014305D01*
X019864Y014055D02*
X020864Y015305D01*
X021114Y014930D02*
X020239Y013805D01*
X020364Y012930D02*
X018989Y014305D01*
X017489Y014305D01*
X016239Y013055D01*
X016114Y013055D01*
X016239Y013680D02*
X015489Y014430D01*
X015864Y014680D02*
X016489Y014055D01*
X016614Y014055D01*
X018864Y013680D02*
X019239Y013680D01*
X020364Y012555D01*
X024614Y012555D01*
X024614Y013180D01*
X022739Y013305D02*
X022739Y012930D01*
X022739Y013305D02*
X022489Y013555D01*
X022489Y015055D01*
X022114Y013305D02*
X021739Y012930D01*
X020364Y012930D01*
X019739Y012805D02*
X020239Y012305D01*
X023364Y012305D01*
X023364Y012180D01*
X021739Y011305D02*
X021614Y011430D01*
X021739Y011305D02*
X021739Y010555D01*
X022239Y008680D02*
X022239Y008305D01*
X023114Y007430D01*
X024614Y007430D01*
X025864Y008680D01*
X026989Y008680D02*
X028239Y008680D01*
X028614Y008055D02*
X026364Y005805D01*
X025739Y005805D01*
X026864Y005805D02*
X026864Y004680D01*
X027114Y004430D01*
X027239Y004930D02*
X027614Y004555D01*
X027239Y004930D02*
X027239Y006305D01*
X026739Y007305D02*
X025989Y006555D01*
X025614Y007055D02*
X025364Y006805D01*
X022989Y006805D01*
X023614Y006430D02*
X023614Y004930D01*
X024114Y004430D01*
X022614Y005430D02*
X020614Y007430D01*
X020614Y007680D01*
X021239Y007680D02*
X021239Y007305D01*
X022864Y005680D01*
X022739Y007180D02*
X024864Y007180D01*
X024989Y007305D01*
X028364Y007180D02*
X028364Y006680D01*
X029114Y005930D01*
X029489Y005930D02*
X028614Y006805D01*
X028614Y007555D01*
X033864Y009555D02*
X035864Y011555D01*
X035864Y015555D01*
X036614Y015055D02*
X036864Y015305D01*
X037489Y015305D01*
X038239Y014555D01*
X038830Y014555D01*
X039016Y014741D01*
X037614Y014430D02*
X037614Y012430D01*
X038114Y011930D01*
X038827Y011930D01*
X039016Y011741D01*
X038114Y011305D02*
X038114Y009055D01*
X038239Y008930D01*
X038827Y008930D01*
X039016Y008741D01*
X038114Y011305D02*
X037114Y012305D01*
X037114Y014805D01*
X036614Y015055D02*
X036614Y013305D01*
X036489Y013180D01*
X036489Y013055D01*
X038114Y012930D02*
X038827Y012930D01*
X039016Y012741D01*
X038114Y012930D02*
X038114Y014055D01*
X019739Y012805D02*
X019364Y012805D01*
X011739Y013055D02*
X011614Y012930D01*
X011614Y012305D01*
X012114Y006930D02*
X010989Y006930D01*
X014114Y006805D02*
X014114Y005805D01*
X012614Y003930D02*
X012114Y003430D01*
X011114Y003430D01*
M02*
